<?xml version="1.0" standalone="no"?>
<!DOCTYPE svg PUBLIC "-//W3C//DTD SVG 1.1//EN" "http://www.w3.org/Graphics/SVG/1.1/DTD/svg11.dtd" >
<svg>
<metadata>
Created by FontForge 20130207 at Tue Apr  9 16:55:22 2013
 By Trung Le Vu Tran
Copyright (c) 2009 by TypeTogether. All rights reserved.
</metadata>
<defs>
<font id="Adelle-SemiBoldItalic" horiz-adv-x="500" >
  <font-face 
    font-family="Adelle SB"
    font-weight="600"
    font-style="italic"
    font-stretch="normal"
    units-per-em="1000"
    panose-1="2 0 5 3 0 0 0 9 0 4"
    ascent="755"
    descent="-245"
    x-height="517"
    cap-height="724"
    bbox="-152 -292 1236 978"
    underline-thickness="50"
    underline-position="-50"
    unicode-range="U+0020-FB06"
  />
<missing-glyph 
 />
    <glyph glyph-name="ff" unicode="ff" horiz-adv-x="729" 
d="M453 435h-205l-91 -647h-113l90 637q2 10 -7 10h-68l12 82h76l10 65q26 169 183 169q76 0 128 -41l-43 -71q-37 25 -75 25t-56.5 -21t-24.5 -65l-8 -51q-1 -10 7 -10h206l11 80q23 169 185 169q98 0 158 -50l-45 -74q-49 37 -95 37t-65 -20.5t-26 -65.5l-10 -66
q-1 -10 7 -10h159l-12 -82h-166l-92 -647h-113l91 637q2 10 -8 10z" />
    <glyph glyph-name="fi" unicode="fi" horiz-adv-x="633" 
d="M447 435h-199l-91 -647h-113l90 637q2 10 -7 10h-68l12 82h76l11 80q25 169 207 169q115 0 202 -58l-44 -75q-77 46 -137 46t-85 -22t-31 -68l-9 -62q-1 -10 7 -10h318l-60 -430q-2 -12 0 -15.5t13 -4.5l55 -8l-8 -59h-187l-3 5l23 122l41 291q3 17 -13 17z" />
    <glyph glyph-name="fl" unicode="fl" horiz-adv-x="635" 
d="M369 679q-88 0 -99 -86l-9 -66q-1 -10 7 -10h147l-11 -82h-156l-91 -647h-113l90 637q2 10 -7 10h-68l12 82h76l11 80q25 169 203 169q86 0 162 -42l63 31h33l-93 -668q-2 -12 0.5 -15.5t13.5 -4.5l53 -8l-8 -59h-187l-3 5l23 122l72 516q-68 36 -121 36z" />
    <glyph glyph-name="ffi" unicode="ffi" horiz-adv-x="958" 
d="M773 435h-199l-91 -647h-113l90 637q2 10 -7 10h-205l-91 -647h-113l90 637q2 10 -7 10h-68l12 82h76l10 65q26 169 183 169q76 0 128 -41l-43 -71q-37 25 -75 25t-56.5 -21t-24.5 -65l-8 -51q-1 -10 7 -10h205l11 80q25 169 207 169q115 0 202 -58l-44 -75
q-77 46 -137 46t-85 -22t-31 -68l-9 -62q-1 -10 7 -10h318l-60 -430q-2 -12 0 -15.5t13 -4.5l55 -8l-8 -59h-187l-3 5l23 122l41 291q3 17 -13 17z" />
    <glyph glyph-name="ffl" unicode="ffl" horiz-adv-x="963" 
d="M696 679q-88 0 -99 -86l-9 -66q-1 -10 7 -10h147l-11 -82h-156l-91 -647h-113l90 637q2 10 -7 10h-206l-91 -647h-113l90 637q2 10 -7 10h-68l12 82h76l10 65q26 169 183 169q76 0 128 -41l-43 -71q-37 25 -75 25t-56.5 -21t-24.5 -65l-8 -51q-1 -10 7 -10h206l11 80
q25 169 203 169q86 0 162 -42l63 31h33l-93 -668q-2 -12 0.5 -15.5t13.5 -4.5l53 -8l-8 -59h-187l-3 5l23 122l72 516q-68 36 -121 36z" />
    <glyph glyph-name="fk" unicode="fk" horiz-adv-x="919" 
d="M369 679q-88 0 -99 -86l-9 -66q-1 -10 7 -10h147l-11 -82h-156l-91 -647h-113l90 637q2 10 -7 10h-68l12 82h76l11 80q25 169 203 169q89 0 166 -44l58 33h35l-64 -456l184 175q57 53 121 53q28 0 49 -5l-9 -71q-57 4 -105 -43l-75 -72l96 -252q6 -14 27 -17l50 -9
l-8 -58h-161l-3 3l-34 104l-63 158l-85 -80l-14 -98q-2 -12 0 -15.5t13 -4.5l58 -8l-8 -59h-250l8 60l48 7q10 1 13 5t5 15l78 555q-66 37 -122 37z" />
    <glyph glyph-name="fb" unicode="fb" horiz-adv-x="926" 
d="M640 76q54 0 99 54.5t45 175.5t-67 121q-56 0 -159 -95l-28 -198q56 -58 110 -58zM369 679q-88 0 -99 -86l-9 -66q-1 -10 7 -10h147l-11 -82h-156l-91 -647h-113l90 637q2 10 -7 10h-68l12 82h76l11 80q25 169 203 169q89 0 163 -42l63 31h29l-46 -325l1 -1
q109 98 183 98q150 0 149 -193q0 -121 -54.5 -233.5t-194.5 -112.5q-76 0 -141 65l-3 -1l-12 -52h-111q23 78 33 144l70 498q-66 37 -121 37z" />
    <glyph glyph-name="fh" unicode="fh" horiz-adv-x="946" 
d="M769 376q0 50 -42 50q-58 0 -168 -95l-34 -244q-2 -12 0 -15.5t13 -4.5l59 -8l-9 -59h-249l9 60l46 7q11 2 14.5 5t4.5 15l77 555q-66 37 -121 37q-88 0 -99 -86l-9 -66q-1 -10 7 -10h147l-11 -82h-156l-91 -647h-113l90 637q2 10 -7 10h-68l12 82h76l11 80
q25 169 203 169q85 0 161 -41l61 30h33l-43 -319q111 91 196 91q112 0 115 -115q0 -34 -4 -62l-38 -263q-2 -12 0.5 -15.5t13.5 -4.5l53 -8l-9 -59h-184l-2 3l19 104l32 220q4 32 4 49z" />
    <glyph glyph-name="ft" unicode="ft" horiz-adv-x="741" 
d="M535 128q0 -51 59 -51q36 0 88 18l17 -73q-72 -34 -145 -34t-104.5 26t-31.5 82q0 11 2 37l41 292q1 10 -10 10h-203l-91 -647h-113l90 637q2 10 -7 10h-68l12 82h76l11 80q25 169 207 169q115 0 202 -58l-44 -75q-77 46 -137 46t-84.5 -22t-31.5 -68l-8 -55
q-3 -17 9 -17h202l12 81h113l-10 -71q-1 -10 8 -10h140l-11 -82h-150l-37 -272q-3 -21 -3 -35z" />
    <glyph glyph-name="fj" unicode="fj" horiz-adv-x="626" 
d="M447 435h-199l-91 -647h-112l89 637q2 10 -7 10h-68l12 82h76l11 80q25 169 207 169q115 0 202 -58l-44 -75q-77 46 -137 46t-85 -22t-31 -68l-9 -62q-1 -10 7 -10h317l-80 -577q-23 -163 -165 -163q-84 0 -130 41l43 67q33 -22 69 -22t50.5 22t22.5 76l65 456
q3 18 -13 18z" />
    <glyph glyph-name="ffj" unicode="ffj" horiz-adv-x="952" 
d="M773 435h-199l-90 -647h-112l88 637q2 10 -7 10h-205l-91 -647h-113l90 637q2 10 -7 10h-68l12 82h76l10 65q26 169 183 169q76 0 128 -41l-43 -71q-37 25 -75 25t-56.5 -21t-24.5 -65l-8 -51q-1 -10 7 -10h205l11 80q25 169 207 169q115 0 202 -58l-44 -75
q-77 46 -137 46t-85 -22t-31 -68l-9 -62q-1 -10 7 -10h317l-80 -577q-12 -86 -52.5 -124.5t-98.5 -38.5q-101 0 -143 42l43 66q34 -22 69 -22t49.5 21.5t22.5 76.5l65 456q3 18 -13 18z" />
    <glyph glyph-name="ffk" unicode="ffk" horiz-adv-x="1246" 
d="M695 679q-88 0 -99 -86l-9 -66q-1 -10 7 -10h147l-11 -82h-156l-91 -647h-113l90 637q2 10 -7 10h-205l-91 -647h-113l90 637q2 10 -7 10h-68l12 82h76l10 65q26 169 183 169q76 0 128 -41l-43 -71q-37 25 -75 25t-56.5 -21t-24.5 -65l-8 -51q-1 -10 7 -10h205l11 80
q25 169 203 169q89 0 166 -44l58 33h35l-64 -456l184 175q57 53 121 53q28 0 49 -5l-9 -71q-57 4 -105 -43l-75 -72l96 -252q6 -14 27 -17l50 -9l-8 -58h-161l-3 3l-34 104l-63 158l-85 -80l-14 -98q-2 -12 0 -15.5t13 -4.5l58 -8l-8 -59h-250l8 60l48 7q10 1 13 5t5 15
l78 555q-66 37 -122 37z" />
    <glyph glyph-name="ffb" unicode="ffb" horiz-adv-x="1250" 
d="M966 76q54 0 99 54.5t45 175.5t-67 121q-56 0 -159 -95l-28 -198q56 -58 110 -58zM695 679q-88 0 -99 -86l-9 -66q-1 -10 7 -10h147l-11 -82h-156l-91 -647h-113l90 637q2 10 -7 10h-205l-91 -647h-113l90 637q2 10 -7 10h-68l12 82h76l10 65q26 169 183 169
q76 0 128 -41l-43 -71q-37 25 -75 25t-56.5 -21t-24.5 -65l-8 -51q-1 -10 7 -10h205l11 80q25 169 203 169q89 0 163 -42l63 31h29l-46 -325l1 -1q109 98 183 98q150 0 149 -193q0 -121 -54.5 -233.5t-194.5 -112.5q-76 0 -141 65l-3 -1l-12 -52h-111q23 78 33 144l70 498
q-66 37 -121 37z" />
    <glyph glyph-name="ffh" unicode="ffh" horiz-adv-x="1273" 
d="M1095 376q0 50 -42 50q-58 0 -168 -95l-34 -244q-2 -12 0 -15.5t13 -4.5l59 -8l-9 -59h-249l9 60l46 7q11 2 14.5 5t4.5 15l77 555q-66 37 -121 37q-88 0 -99 -86l-9 -66q-1 -10 7 -10h147l-11 -82h-156l-91 -647h-113l90 637q2 10 -7 10h-205l-91 -647h-113l90 637
q2 10 -7 10h-68l12 82h76l10 65q26 169 183 169q76 0 128 -41l-43 -71q-37 25 -75 25t-56.5 -21t-24.5 -65l-8 -51q-1 -10 7 -10h205l11 80q25 169 203 169q85 0 161 -41l61 30h33l-43 -319q111 91 196 91q112 0 115 -115q0 -34 -4 -62l-38 -263q-2 -12 0.5 -15.5t13.5 -4.5
l53 -8l-9 -59h-184l-2 3l19 104l32 220q4 32 4 49z" />
    <glyph glyph-name="fft" unicode="fft" horiz-adv-x="1069" 
d="M862 128q0 -51 59 -51q36 0 88 18l17 -73q-72 -34 -145 -34t-104.5 26t-31.5 82q0 11 2 37l41 292q1 10 -10 10h-203l-91 -647h-113l90 637q2 10 -7 10h-206l-91 -647h-113l90 637q2 10 -7 10h-68l12 82h76l10 65q26 169 183 169q76 0 128 -41l-43 -71q-37 25 -75 25
t-56.5 -21t-24.5 -65l-8 -51q-1 -10 7 -10h206l11 80q25 169 207 169q115 0 202 -58l-44 -75q-77 46 -137 46t-84.5 -22t-31.5 -68l-8 -55q-3 -17 9 -17h202l12 81h113l-10 -71q-1 -10 8 -10h140l-11 -82h-150l-37 -272q-3 -21 -3 -35z" />
    <glyph glyph-name="f_iacute" unicode="f&#xed;" horiz-adv-x="635" 
d="M692 705l-194 -141l-42 46l174 165zM127 435h-68l12 82h76l11 80q25 169 184 169q86 0 137 -43l-42 -72q-39 28 -81 28t-61 -21t-25 -65l-8 -56q-4 -20 11 -20h315l-61 -430q-2 -12 0.5 -15.5t13.5 -4.5l54 -8l-8 -59h-187l-3 5l23 122l41 294q1 13 -9 14h-204l-91 -647
h-113l90 637q2 10 -7 10z" />
    <glyph glyph-name="tt" unicode="tt" horiz-adv-x="723" 
d="M536 -11q-74 0 -105.5 26t-31.5 82q0 17 3 37l40 291q2 10 -6 10h-191l-37 -272q-3 -21 -3 -41q0 -44 56 -45q33 0 76 15l17 -73q-65 -31 -134 -31t-100.5 26t-31.5 82q0 20 3 39l40 289q0 10 -7 10h-70l10 74q59 8 90 40t50 109h72l-18 -130q-1 -10 8 -10h126
q49 0 77 35.5t46 105.5h72l-18 -130q-1 -10 8 -10h140l-11 -81h-150l-37 -273q-3 -20 -3 -41q0 -45 59 -45q36 0 88 18l17 -72q-70 -35 -144 -35z" />
    <glyph glyph-name=".notdef" 
 />
    <glyph glyph-name=".null" horiz-adv-x="0" 
 />
    <glyph glyph-name="nonmarkingreturn" horiz-adv-x="333" 
 />
    <glyph glyph-name="space" unicode=" " horiz-adv-x="214" 
 />
    <glyph glyph-name="exclam" unicode="!" horiz-adv-x="272" 
d="M197 69q0 -81 -85 -81q-65 0 -65 57q0 81 85 81q65 0 65 -57zM188 183h-96l37 371l24 170h125l-24 -170z" />
    <glyph glyph-name="quotedbl" unicode="&#x22;" horiz-adv-x="390" 
d="M188 447h-108l37 259h108zM370 447h-108l37 259h108z" />
    <glyph glyph-name="numbersign" unicode="#" horiz-adv-x="607" 
d="M343 212l39 134h-107l-39 -134h107zM509 132h-105l-38 -132h-84l37 132h-107l-38 -132h-84l37 132h-109l29 80h104l40 134h-109l29 81h103l34 116h85l-34 -116h106l34 116h85l-34 -116h110l-28 -81h-106l-38 -134h108z" />
    <glyph glyph-name="dollar" unicode="$" horiz-adv-x="515" 
d="M362 171q0 47 -50 76l-22 -165q72 21 72 89zM194 468q0 -32 13.5 -48t44.5 -32l22 163q-34 -7 -57 -29t-23 -54zM468 191q0 -76 -51 -125.5t-138 -61.5l-11 -84h-80l11 80q-122 7 -182 38l21 148h81l8 -74q1 -19 21 -24q22 -7 62 -10l27 197q-118 53 -135 93.5t-17 77.5
q0 79 55 125.5t144 59.5l11 72h81l-10 -73q78 -4 148 -30l-21 -161l-81 9l-3 75q0 22 -54 28l-27 -192q109 -56 124.5 -94.5t15.5 -73.5z" />
    <glyph glyph-name="percent" unicode="%" horiz-adv-x="889" 
d="M697 281q-93 0 -93 -140q0 -83 60 -83q92 0 92 145q0 78 -59 78zM653 -12q-143 0 -143 145q0 98 50.5 158t146.5 60q142 0 142 -144q0 -99 -51 -159t-145 -60zM268 550q-93 0 -93 -140q0 -83 60 -83q92 0 92 145q0 78 -59 78zM284 -17h-108l466 638h107zM279 620
q142 0 142 -144q0 -99 -51.5 -159t-135.5 -60t-118.5 40.5t-34.5 121.5t51 141t147 60z" />
    <glyph glyph-name="ampersand" unicode="&#x26;" horiz-adv-x="683" 
d="M248 482q0 -44 28.5 -69t79.5 -25h50l-12 -86q-56 0 -87 -6q-117 -20 -117 -120t140 -100q99 0 112 14.5t15 28.5l36 259l16 10h154l-10 -65l-41 -4q-16 -1 -17 -14l-36 -261q-90 -56 -239 -56q-248 0 -248 172q0 75 43.5 123t109.5 64v2q-38 14 -65 47t-27 84
q0 91 66.5 144.5t187.5 53.5t198 -50l-23 -143l-83 6l-4 69q-2 30 -94 30q-133 0 -133 -108z" />
    <glyph glyph-name="quotesingle" unicode="'" horiz-adv-x="208" 
d="M188 447h-108l37 259h108z" />
    <glyph glyph-name="parenleft" unicode="(" horiz-adv-x="334" 
d="M67 205q0 265 234 530l78 -52q-102 -131 -147 -241t-45 -250t73 -306l-95 -50q-98 170 -98 369z" />
    <glyph glyph-name="parenright" unicode=")" horiz-adv-x="336" 
d="M182 379q0 140 -73 306l95 50q98 -170 98 -369q0 -265 -234 -530l-78 52q102 131 147 241t45 250z" />
    <glyph glyph-name="asterisk" unicode="*" horiz-adv-x="473" 
d="M422 443l-74 -52l-35 52l-26 95l-55 -95l-49 -53l-63 54l49 52l92 62l-103 6l-61 22l40 82l61 -22l77 -58l-13 100l9 67h87l-9 -67l-41 -100l93 58l67 22l17 -82l-67 -22l-104 -7l73 -62zM314 557l-6 31h-33l-14 -30l26 -20z" />
    <glyph glyph-name="plus" unicode="+" horiz-adv-x="570" 
d="M329 125h-98l21 150h-141l14 95h141l20 146h98l-20 -146h142l-14 -95h-142z" />
    <glyph glyph-name="comma" unicode="," horiz-adv-x="200" 
d="M162 66q0 -32 -26 -71l-73 -113l-53 18l45 106q3 8 -5 11l-34 13l35 94q57 -2 84 -14t27 -44z" />
    <glyph glyph-name="hyphen" unicode="-" horiz-adv-x="311" 
d="M301 239h-271l15 104h271z" />
    <glyph glyph-name="period" unicode="." horiz-adv-x="223" 
d="M27 44q0 82 85 82q64 0 64 -56q0 -82 -84 -82q-65 0 -65 56z" />
    <glyph glyph-name="slash" unicode="/" horiz-adv-x="421" 
d="M91 -92h-111l388 823h110z" />
    <glyph glyph-name="zero" unicode="0" horiz-adv-x="563" 
d="M430 370q0 129 -100 129q-70 0 -117.5 -64.5t-47.5 -227.5q0 -134 102 -134q129 1 153 181q10 78 10 116zM256 -12q-209 0 -209 217q0 198 81 290t215 92q205 0 205 -216q0 -39 -6 -83q-19 -143 -84.5 -221.5t-201.5 -78.5z" />
    <glyph glyph-name="one" unicode="1" horiz-adv-x="371" 
d="M322 0h-317l9 60l92 6q9 1 12 4.5t5 15.5l54 385q2 17 -12 21l-86 18l9 62h215l-67 -486q-2 -12 0.5 -15.5t12.5 -4.5l82 -7z" />
    <glyph glyph-name="two" unicode="2" horiz-adv-x="498" 
d="M361 434q0 67 -84 67q-54 0 -77.5 -20t-30.5 -79l-104 11q14 110 77.5 142t153.5 32t133.5 -38.5t43.5 -103.5t-24 -98t-31.5 -43.5t-29.5 -30.5t-29.5 -27t-34.5 -30t-34 -29l-125 -108h181q12 0 16 11l26 83h80l-24 -173h-428l10 75l163 144q11 10 63 55t80.5 80
t28.5 80z" />
    <glyph glyph-name="three" unicode="3" horiz-adv-x="506" 
d="M209 8q130 0 130 117q0 93 -109 93q-27 0 -69 -6l10 81l54 6q67 7 104 41t37 88q0 73 -82 73q-54 0 -78 -20.5t-31 -78.5l-106 11q18 174 227 174q183 0 183 -148q0 -63 -35.5 -107.5t-96.5 -64.5v-4q46 -12 75.5 -46t29.5 -91q0 -98 -66 -153.5t-158 -55.5
q-171 0 -236 91l71 68q58 -68 146 -68z" />
    <glyph glyph-name="four" unicode="4" horiz-adv-x="531" 
d="M398 -67h-105l19 141h-282l11 79l272 431l88 -49l-244 -372h168l26 184l106 14l-27 -198h84l-12 -89h-86z" />
    <glyph glyph-name="five" unicode="5" horiz-adv-x="517" 
d="M361 143q-1 110 -103 110q-48 0 -105 -45l-76 34l67 330h353l-13 -96h-265l-41 -175l1 -1q61 41 135 41t118 -46.5t44 -142.5t-69 -165.5t-201 -69.5t-211 90l71 69q61 -68 135 -68t117 36.5t43 98.5z" />
    <glyph glyph-name="six" unicode="6" horiz-adv-x="547" 
d="M180 219q0 -144 94 -144q60 0 90 44.5t30 100.5t-19 76t-73 20t-120 -51q-2 -34 -2 -46zM374 562q-58 0 -113.5 -47t-71.5 -165q79 54 158 54t121 -42.5t42 -121.5q0 -118 -67 -185t-179 -67q-200 0 -200 247q0 111 31.5 191t86.5 152.5t175 72.5q119 0 185 -66l-61 -69
q-49 46 -107 46z" />
    <glyph glyph-name="seven" unicode="7" horiz-adv-x="503" 
d="M182 476q-12 0 -15 -11l-28 -88l-79 -6l27 201h455l-12 -84q-99 -94 -184.5 -251t-110.5 -304h-120q37 183 117.5 318t169.5 225h-220z" />
    <glyph glyph-name="eight" unicode="8" horiz-adv-x="507" 
d="M398 503q0 67 -85 67q-45 0 -74 -23t-29 -60t26 -61.5t75 -51.5q87 71 87 129zM136 152q0 -83 103 -83q55 0 88 29.5t33 71.5t-18.5 57.5t-26.5 22.5t-76 46q-103 -72 -103 -144zM478 184q0 -90 -71 -143t-172 -53q-203 0 -203 147q0 65 36.5 113.5t99.5 91.5
q-69 47 -69 130t63.5 132t153.5 49t136.5 -37t46.5 -99q0 -97 -112 -182q91 -59 91 -149z" />
    <glyph glyph-name="nine" unicode="9" horiz-adv-x="544" 
d="M307 501q-56 0 -87.5 -44t-31.5 -103t17 -82t71 -23t124 54q1 15 1 46q4 152 -94 152zM220 7q139 0 173 211q-77 -54 -157 -54t-122.5 43.5t-42.5 121.5q0 118 66 188t181 70q199 0 199 -248q0 -298 -113 -360t-175 -62q-130 0 -194 73l59 71q59 -54 126 -54z" />
    <glyph glyph-name="colon" unicode=":" horiz-adv-x="223" 
d="M27 44q0 82 85 82q64 0 64 -56q0 -82 -84 -82q-65 0 -65 56zM84 430q0 82 85 82q64 0 64 -56q0 -82 -84 -82q-65 0 -65 56z" />
    <glyph glyph-name="semicolon" unicode=";" horiz-adv-x="200" 
d="M78 430q0 82 85 82q64 0 64 -56q0 -82 -84 -82q-65 0 -65 56zM162 66q0 -32 -26 -71l-73 -113l-53 18l45 106q3 8 -5 11l-34 13l35 94q57 -2 84 -14t27 -44z" />
    <glyph glyph-name="less" unicode="&#x3c;" horiz-adv-x="570" 
d="M471 90l-362 142l16 116l399 149l16 -92l-322 -114l294 -112z" />
    <glyph glyph-name="equal" unicode="=" horiz-adv-x="570" 
d="M495 319h-379l14 97h379zM471 147h-378l13 97h378z" />
    <glyph glyph-name="greater" unicode="&#x3e;" horiz-adv-x="570" 
d="M489 232l-402 -142l-12 94l325 112l-290 114l39 87l357 -149z" />
    <glyph glyph-name="question" unicode="?" horiz-adv-x="498" 
d="M262 69q0 -81 -84 -81q-66 0 -66 57q0 81 85 81q65 0 65 -57zM323 724q206 0 206 -176q0 -104 -66 -168t-185 -83l-15 -115h-115l25 187q232 25 232 174q0 43 -26.5 65t-70.5 22t-68 -5q-23 -5 -28 -24l-19 -62l-92 -7l23 157q96 35 199 35z" />
    <glyph glyph-name="at" unicode="@" horiz-adv-x="834" 
d="M466 332q-44 0 -93 -64t-49 -149q0 -54 36 -54q49 0 113 64l56 189q-19 14 -63 14zM329 -12q-93 0 -93 108q0 162 90.5 231.5t164.5 69.5t134 -32l-38 -124q-38 -127 -38 -150q0 -34 47 -34t84 70.5t37 159.5q0 205 -230 205q-104 0 -184 -52t-121 -135.5t-41 -182.5
q0 -230 248 -230q85 0 173 31l11 -69q-79 -35 -175 -35t-220 35t-124 260q0 196 130 325t318 129q139 0 220 -69t81 -192t-56 -221t-182 -98q-89 0 -96 72q-86 -72 -140 -72z" />
    <glyph glyph-name="A" unicode="A" horiz-adv-x="717" 
d="M476 296l-62 323l-149 -323h211zM692 0h-269l9 57l83 9l-26 143h-262l-64 -143l86 -9l-9 -57h-253l9 57l43 11q19 5 29 22l300 634h138l130 -639q2 -12 21 -17l44 -11z" />
    <glyph glyph-name="B" unicode="B" horiz-adv-x="647" 
d="M348 413q165 0 165 137q0 50 -30.5 68.5t-93.5 18.5h-82l-31 -224h72zM325 87q90 0 136 29t46 110q0 101 -130 101h-113l-32 -240h93zM330 0h-302l9 58l62 7q11 2 14.5 5.5t4.5 14.5l76 552q3 18 -13 20l-61 8l8 59h307q193 0 193 -154q0 -79 -42 -126t-104 -65l-1 -4
q70 -7 106.5 -47t36.5 -103q0 -225 -294 -225z" />
    <glyph glyph-name="C" unicode="C" horiz-adv-x="665" 
d="M182 308q0 -230 193 -230q130 0 140 36l29 93h80l-23 -165q-89 -54 -243 -54t-225.5 83.5t-71.5 227.5q0 197 108 317.5t305 120.5q138 0 214 -55l-24 -175l-83 6l-3 94q0 15 -12 20q-44 18 -104 18q-126 0 -203 -88.5t-77 -248.5z" />
    <glyph glyph-name="D" unicode="D" horiz-adv-x="747" 
d="M314 87q151 0 229 91.5t78 225.5t-55 183.5t-166 49.5h-92l-75 -550h81zM423 724q158 0 237.5 -78.5t79.5 -218.5q0 -188 -104 -307.5t-319 -119.5h-289l9 60l63 7q15 2 17 19l77 552q3 18 -13 20l-61 7l8 59h295z" />
    <glyph glyph-name="E" unicode="E" horiz-adv-x="617" 
d="M509 638h-201l-31 -230h249l-12 -87h-249l-32 -236h221q14 0 18 11l27 88h80l-25 -184h-525l7 59l63 7q11 2 14.5 5.5t4.5 14.5l76 551q2 12 -0.5 15.5t-12.5 4.5l-60 7l7 60h504l-25 -180l-80 4l-3 77q-1 13 -15 13z" />
    <glyph glyph-name="F" unicode="F" horiz-adv-x="593" 
d="M505 638h-196l-31 -228h245l-13 -87h-245l-32 -236q-2 -12 0.5 -15.5t12.5 -4.5l143 -8l-8 -59h-351l7 59l63 7q10 1 13 5t5 15l76 551q2 12 -0.5 15.5t-12.5 4.5l-60 7l8 60h500l-25 -180l-80 4l-3 77q-1 13 -16 13z" />
    <glyph glyph-name="G" unicode="G" horiz-adv-x="716" 
d="M181 310q0 -231 209 -231q72 0 118 13q13 6 15 18l22 157h-125l23 75h281l-9 -65l-41 -4q-17 -1 -18 -14l-31 -227q-96 -44 -254 -44t-234 84.5t-76 227.5q0 194 107.5 315.5t305.5 121.5q141 0 214 -56l-23 -171l-83 7l-3 91q0 16 -11 19q-50 18 -111 18
q-125 0 -200.5 -90.5t-75.5 -244.5z" />
    <glyph glyph-name="H" unicode="H" horiz-adv-x="796" 
d="M727 0h-273l8 59l62 7q11 2 14.5 5.5t4.5 14.5l34 243h-310l-34 -242q-2 -12 0 -15.5t12 -4.5l65 -8l-8 -59h-273l8 59l63 7q10 1 13 5t5 15l77 552q2 12 -0.5 15.5t-12.5 4.5l-60 7l7 59h274l-8 -59l-67 -8q-11 -1 -13.5 -4t-4.5 -15l-30 -221h309l31 221
q2 12 -0.5 15.5t-12.5 4.5l-61 7l8 59h273l-8 -59l-66 -8q-11 -1 -13.5 -4t-4.5 -15l-77 -551q-2 -12 0 -15.5t12 -4.5l65 -8z" />
    <glyph glyph-name="I" unicode="I" horiz-adv-x="371" 
d="M313 0h-293l7 59l73 7q10 1 13 4.5t5 15.5l77 552q2 12 -0.5 15.5t-12.5 4.5l-70 7l8 59h292l-7 -59l-77 -8q-11 -2 -14 -5t-4 -14l-77 -551q-4 -15 0.5 -17t11.5 -3l75 -8z" />
    <glyph glyph-name="J" unicode="J" horiz-adv-x="491" 
d="M122 103q0 -25 52 -25t69 18.5t22 60.5l67 482q3 17 -13 18l-85 8l8 59h298l-8 -59l-67 -8q-11 -2 -14 -5t-4 -14l-68 -485q-23 -165 -166 -165t-192 37l20 154l81 -6v-70z" />
    <glyph glyph-name="K" unicode="K" horiz-adv-x="723" 
d="M689 0h-163l-5 5l-55 109l-121 213l-91 -91l-22 -149q-2 -12 0.5 -15.5t12.5 -4.5l67 -8l-9 -59h-273l8 59l61 7q13 2 15.5 7t3.5 14l77 551q2 12 -0.5 15.5t-12.5 4.5l-60 7l8 59h273l-8 -59l-67 -8q-11 -1 -13.5 -4.5t-4.5 -14.5l-40 -275l296 293l-57 8l8 60h235
l-8 -59l-47 -9q-19 -3 -33 -16l-234 -231l180 -322q7 -14 26 -18l61 -10z" />
    <glyph glyph-name="L" unicode="L" horiz-adv-x="603" 
d="M454 85q14 0 18 11l29 95h80l-26 -191h-525l7 59l62 7q11 2 14.5 5.5t4.5 14.5l77 551q2 12 -0.5 15.5t-12.5 4.5l-60 7l7 60h289l-7 -60l-83 -8q-11 -1 -13.5 -4.5t-4.5 -14.5l-78 -552h222z" />
    <glyph glyph-name="M" unicode="M" horiz-adv-x="931" 
d="M863 0h-289l7 59l83 7q10 1 13 5t5 15l64 454l-224 -380h-120l-125 381l-63 -454q-2 -12 0.5 -15.5t12.5 -4.5l85 -8l-8 -59h-274l7 59l63 7q10 1 13 4.5t5 15.5l77 551q2 12 -0.5 15.5t-12.5 4.5l-60 7l7 60h202l148 -463h5l264 463h214l-7 -59l-67 -8q-11 -1 -14 -4.5
t-5 -17.5l-77 -549q-3 -18 14 -19l65 -8z" />
    <glyph glyph-name="N" unicode="N" horiz-adv-x="814" 
d="M666 0h-126l-261 577l-68 -490q-2 -12 0 -15.5t13 -4.5l64 -8l-6 -59h-252l6 59l63 7q11 2 14.5 5.5t4.5 14.5l77 552q2 12 -0.5 15.5t-12.5 4.5l-60 7l7 59h211l256 -575l67 489q2 12 -0.5 15.5t-12.5 4.5l-61 7l8 59h251l-8 -59l-67 -8q-11 -2 -14 -5t-4 -14z" />
    <glyph glyph-name="O" unicode="O" horiz-adv-x="754" 
d="M367 85q221 0 260 273q5 32 5 71q0 101 -48 156t-144 55t-166 -68.5t-89 -202.5q-6 -41 -6 -74q0 -210 188 -210zM362 -12q-159 0 -231.5 78.5t-72.5 215.5q0 223 119 339t275 116t228.5 -81.5t72.5 -213.5q0 -42 -5 -75q-25 -180 -126 -279.5t-260 -99.5z" />
    <glyph glyph-name="P" unicode="P" horiz-adv-x="638" 
d="M343 357q140 0 165 59t25 115q0 106 -137 106h-89l-38 -280h74zM438 724q112 0 163 -50t51 -135q0 -136 -79.5 -202t-224.5 -66h-91l-25 -184q-2 -12 0 -15.5t12 -4.5l140 -8l-8 -59h-348l9 59l63 7q11 2 14.5 5.5t4.5 14.5l76 552q3 18 -14 20l-60 7l7 59h310z" />
    <glyph glyph-name="Q" unicode="Q" horiz-adv-x="754" 
d="M367 85q221 0 260 273q5 32 5 71q0 101 -48 156t-144 55t-166 -68.5t-89 -202.5q-6 -41 -6 -74q0 -210 188 -210zM452 737q156 0 228.5 -81.5t72.5 -213.5q0 -42 -5 -75q-51 -360 -368 -364v-4q125 -65 220 -65q27 0 67 5l-4 -88q-43 -5 -95 -5t-112 22t-101 43.5
t-82 21.5t-99 -35l-43 76q41 29 95 39v3q-168 54 -168 271t119 333.5t275 116.5z" />
    <glyph glyph-name="R" unicode="R" horiz-adv-x="665" 
d="M345 389q177 0 177 147q0 57 -35 79t-113 22h-66l-33 -248h70zM346 304h-83l-31 -217q-2 -12 0 -15.5t12 -4.5l63 -8l-8 -59h-269l8 59l62 7q10 1 13 5t5 16l77 550q2 12 -0.5 15.5t-12.5 4.5l-60 7l7 60h308q108 0 156.5 -48.5t48.5 -126.5q0 -155 -163 -217
q21 -10 30 -30.5t19 -62.5l35 -148q5 -20 23 -22l64 -10l-8 -59h-175l-6 7l-60 254q-9 43 -55 43z" />
    <glyph glyph-name="S" unicode="S" horiz-adv-x="572" 
d="M378 645q-56 0 -102.5 -29.5t-46.5 -80.5t34.5 -74t80.5 -39q46 -17 118.5 -47t72.5 -150t-81.5 -178.5t-211.5 -58.5q-63 0 -125 12.5t-89 26.5l24 176h84l7 -93q3 -18 27 -26q24 -7 93 -7t111.5 32.5t42.5 86.5t-31.5 80t-78.5 42t-53.5 18.5t-34 14t-54.5 33.5
t-40.5 52.5t-13.5 73.5q0 111 80.5 169t192.5 58t197 -38l-25 -180l-84 8l-3 89q0 17 -18 23q-17 6 -73 6z" />
    <glyph glyph-name="T" unicode="T" horiz-adv-x="654" 
d="M203 638q-14 0 -17 -11l-27 -87h-80l24 184h606l-25 -184h-80l-4 87q-1 11 -14 11h-135l-76 -551q-2 -11 0 -14.5t12 -4.5l109 -8l-9 -60h-354l8 60l101 7q10 1 13 5t5 15l76 551h-133z" />
    <glyph glyph-name="U" unicode="U" horiz-adv-x="772" 
d="M372 -12q-128 0 -186 50t-58 153q0 28 5 65l51 382q3 18 -12 20l-61 7l8 59h274l-9 -59l-67 -8q-11 -1 -13.5 -4t-4.5 -15l-51 -371q-5 -38 -5 -62q0 -66 31.5 -94t109.5 -28t121.5 39.5t56.5 137.5l52 378q2 12 -0.5 15.5t-12.5 4.5l-61 7l8 59h262l-8 -59l-67 -8
q-11 -1 -13.5 -4t-4.5 -15l-55 -397q-19 -135 -90.5 -194t-199.5 -59z" />
    <glyph glyph-name="V" unicode="V" horiz-adv-x="692" 
d="M409 0h-153l-119 637q-1 12 -17 15l-47 13l9 59h265l-8 -59l-82 -9l95 -551l240 551l-76 9l9 59h241l-9 -59l-45 -11q-18 -4 -26 -23z" />
    <glyph glyph-name="W" unicode="W" horiz-adv-x="979" 
d="M736 0h-150l-57 421l-174 -421h-144l-70 632q-1 13 -4.5 17t-14.5 6l-52 10l10 59h268l-9 -59l-86 -9l56 -527l191 454h119l60 -470l197 543l-83 9l9 59h254l-9 -59l-51 -9q-18 -4 -26 -26z" />
    <glyph glyph-name="X" unicode="X" horiz-adv-x="714" 
d="M671 0h-272l9 59l76 9l-122 219l-175 -219l72 -9l-9 -59h-251l8 57l54 11q14 4 28 19l225 277l-151 273q-6 13 -21 17l-45 11l9 59h263l-8 -59l-76 -9l112 -211l172 211l-72 9l10 59h239l-9 -59l-46 -11q-15 -4 -28 -19l-217 -264l162 -284q9 -16 24 -18l48 -10z" />
    <glyph glyph-name="Y" unicode="Y" horiz-adv-x="629" 
d="M473 0h-341l8 59l97 7q14 2 17 21l26 189l-146 361q-5 13 -21 17l-43 11l9 59h259l-9 -59l-76 -9l102 -278l180 278l-73 9l9 59h233l-8 -59l-43 -11q-19 -4 -27 -20l-231 -356l-26 -191q-2 -13 0 -16t13 -4l99 -8z" />
    <glyph glyph-name="Z" unicode="Z" horiz-adv-x="642" 
d="M239 638q-14 0 -17 -11l-31 -92l-83 -4l28 193h518l-11 -78l-462 -561h288q15 0 18 11l33 107h81l-28 -203h-548l11 75l464 563h-261z" />
    <glyph glyph-name="bracketleft" unicode="[" horiz-adv-x="298" 
d="M226 -143h-190l122 867h190l-6 -57l-67 -10q-16 -2 -19 -20l-97 -692q-2 -11 0 -14.5t13 -5.5l64 -10z" />
    <glyph glyph-name="backslash" unicode="\" horiz-adv-x="401" 
d="M367 -92h-105l-157 823h104z" />
    <glyph glyph-name="bracketright" unicode="]" horiz-adv-x="291" 
d="M175 -143h-190l7 57l66 10q11 1 14 5t5 15l97 692q2 11 0 15t-13 5l-64 10l10 58h190z" />
    <glyph glyph-name="asciicircum" unicode="^" horiz-adv-x="574" 
d="M561 299h-109l-111 267l-182 -267h-112l248 365h117z" />
    <glyph glyph-name="underscore" unicode="_" 
d="M474 -181h-499l11 83h500z" />
    <glyph glyph-name="grave" unicode="`" 
d="M449 607l-53 -43l-156 144l78 67z" />
    <glyph glyph-name="a" unicode="a" horiz-adv-x="590" 
d="M319 437q-94 0 -126.5 -83t-32.5 -152q0 -68 16.5 -93t52.5 -25q61 0 162 108l28 197q-48 48 -100 48zM195 -12q-151 0 -151 195q0 125 58.5 234.5t192.5 109.5q79 0 140 -57l17 47h102q-20 -84 -26 -126l-42 -305q-2 -12 0.5 -15.5t12.5 -4.5l48 -7l-8 -59h-165l12 86
l-4 2q-51 -50 -93.5 -75t-93.5 -25z" />
    <glyph glyph-name="b" unicode="b" horiz-adv-x="588" 
d="M308 76q52 0 96 55t44 176q0 120 -67 120q-56 0 -159 -95l-28 -195q62 -61 114 -61zM418 527q150 0 149 -193q0 -121 -54.5 -233.5t-194.5 -112.5q-76 0 -141 65l-3 -1l-12 -52h-111q23 78 33 144l73 515q3 17 -10 21l-53 16l9 59h177l-46 -325l1 -1q109 98 183 98z" />
    <glyph glyph-name="c" unicode="c" horiz-adv-x="493" 
d="M326 442q-68 0 -117 -56t-49 -172q0 -138 116 -138q70 0 136 33l22 -76q-74 -45 -180 -45q-211 0 -211 213q0 162 84.5 244t198.5 82t169 -36l-20 -142l-78 4l-3 66q0 23 -68 23z" />
    <glyph glyph-name="d" unicode="d" horiz-adv-x="593" 
d="M320 437q-94 0 -127 -82t-33 -176t71 -94q59 0 160 106l29 200q-48 46 -100 46zM196 -12q-152 0 -152 193q0 121 56 233.5t198 112.5q72 0 135 -49l24 182q2 17 -10 21l-53 15l9 59h176l-93 -669q-2 -12 0.5 -15.5t12.5 -4.5l48 -7l-8 -59h-165l12 85l-4 2
q-50 -48 -92.5 -73.5t-93.5 -25.5z" />
    <glyph glyph-name="e" unicode="e" horiz-adv-x="492" 
d="M373 391q-1 49 -57 49t-96.5 -45t-53.5 -114q131 14 169 48t38 62zM245 -12q-202 0 -202 209q0 144 81.5 237t205.5 93q76 0 113 -33.5t37 -91.5q0 -162 -320 -199q0 -64 24 -95t88 -31t145 36l20 -80q-95 -45 -192 -45z" />
    <glyph glyph-name="f" unicode="f" horiz-adv-x="402" 
d="M127 435h-68l12 82h76l11 80q25 169 186 169q97 0 157 -50l-45 -74q-50 37 -96 37t-65.5 -21t-24.5 -65l-9 -66q-1 -10 7 -10h158l-12 -82h-166l-91 -647h-113l90 637q1 10 -7 10z" />
    <glyph glyph-name="g" unicode="g" horiz-adv-x="578" 
d="M319 437q-93 0 -126 -82t-33 -164q0 -106 71 -106q55 0 160 107l28 197q-48 48 -100 48zM196 -12q-152 0 -152 195q0 124 57 234t199 110q74 0 136 -57l17 47h102q-19 -78 -27 -133l-56 -411q-28 -196 -229 -196q-64 0 -120.5 15.5t-84.5 32.5l39 77q18 -12 62.5 -26.5
t98.5 -14.5q112 0 131 120l17 104l-4 2q-55 -51 -94.5 -75t-91.5 -24z" />
    <glyph glyph-name="h" unicode="h" horiz-adv-x="619" 
d="M441 376q0 50 -42 50q-58 0 -168 -95l-34 -244q-2 -12 0 -15.5t13 -4.5l59 -8l-9 -59h-249l9 60l46 7q11 2 14.5 5t4.5 15l80 572q3 18 -9 21l-52 16l8 59h176l-43 -319q111 91 196 91q112 0 115 -115q0 -34 -4 -62l-38 -263q-2 -12 0.5 -15.5t13.5 -4.5l53 -8l-9 -59
h-184l-2 3l19 104l32 220q4 32 4 49z" />
    <glyph glyph-name="i" unicode="i" horiz-adv-x="304" 
d="M257 0h-187l-3 5l23 122l41 294q3 17 -10 21l-52 16l9 59h180l-61 -430q-2 -12 0.5 -15.5t13.5 -4.5l54 -8zM220 763q65 0 65 -61q0 -39 -23 -63t-58 -24q-69 0 -69 62q0 39 23 62.5t62 23.5z" />
    <glyph glyph-name="j" unicode="j" horiz-adv-x="297" 
d="M221 763q65 0 65 -61q0 -39 -23.5 -63t-62.5 -24q-65 0 -65 62q0 39 23 62.5t63 23.5zM17 -223q-62 0 -101.5 16t-54.5 31l42 67q45 -28 83 -28t55 22t25 76l65 460q1 17 -10 21l-55 16l9 59h181l-80 -577q-12 -85 -54.5 -124t-104.5 -39z" />
    <glyph glyph-name="k" unicode="k" horiz-adv-x="592" 
d="M530 527q32 0 52 -5l-9 -71q-57 4 -105 -43l-75 -72l96 -252q6 -14 27 -17l50 -9l-8 -58h-161l-3 3l-34 104l-63 158l-85 -80l-14 -98q-2 -12 0 -15.5t13 -4.5l58 -8l-8 -59h-250l8 60l48 7q10 1 13 5t5 15l81 573q1 16 -10 20l-53 16l9 59h180l-64 -456l184 175
q57 53 118 53z" />
    <glyph glyph-name="l" unicode="l" horiz-adv-x="304" 
d="M254 0h-187l-3 5l23 122l75 533q3 17 -11 21l-51 15l8 59h180l-93 -668q-2 -12 0.5 -15.5t13.5 -4.5l53 -8z" />
    <glyph glyph-name="m" unicode="m" horiz-adv-x="889" 
d="M712 380q0 45 -35 45q-40 0 -75 -29.5t-74 -64.5l-34 -244q-2 -12 0 -15.5t13 -4.5l53 -8l-8 -59h-180l-4 5l19 119l27 196q6 44 6 63q0 40 -32 40q-52 0 -155 -91l-34 -245q-2 -12 0.5 -15.5t13.5 -4.5l57 -8l-8 -59h-249l8 60l46 7q11 2 14.5 5.5t4.5 14.5l46 333
q3 16 -9 21l-52 17l8 59h171l-12 -88q117 98 196 98q45 0 71 -27t26 -75q40 34 83.5 68t103.5 34t90.5 -33t13.5 -143l-37 -264q-2 -12 0.5 -15.5t12.5 -4.5l53 -8l-8 -59h-181q-1 1 -1 2l46 325q5 32 5 53z" />
    <glyph glyph-name="n" unicode="n" horiz-adv-x="620" 
d="M441 375q0 51 -39 51q-63 0 -169 -95l-34 -244q-2 -12 0.5 -15.5t13.5 -4.5l57 -8l-8 -59h-249l8 60l46 7q11 2 14.5 5.5t4.5 14.5l46 333q3 16 -9 21l-52 17l8 59h171l-12 -88q57 48 102.5 73t99.5 25q117 0 117 -122q0 -24 -5 -59l-37 -259q-2 -12 0 -15.5t13 -4.5
l54 -8l-8 -59h-186l-2 3l21 120l28 188q6 42 6 64z" />
    <glyph glyph-name="o" unicode="o" horiz-adv-x="567" 
d="M269 71q71 0 114.5 61.5t43.5 184.5t-106 123q-72 0 -116.5 -59t-44.5 -185t109 -125zM274 -12q-230 0 -231 211q0 147 76.5 237.5t200.5 90.5q224 0 225 -210q0 -152 -73.5 -240.5t-197.5 -88.5z" />
    <glyph glyph-name="p" unicode="p" horiz-adv-x="593" 
d="M321 76q65 0 98 74.5t33 175.5t-66 101q-56 0 -159 -95l-28 -199q57 -57 122 -57zM420 527q151 0 151 -193t-78 -269.5t-152 -76.5t-155 57l-25 -169q-3 -16 13 -18l97 -8l-9 -62h-225l-3 4l28 168l64 460q3 17 -9 21l-52 17l8 59h173l-11 -85q111 95 185 95z" />
    <glyph glyph-name="q" unicode="q" horiz-adv-x="578" 
d="M320 437q-94 0 -127 -83.5t-33 -162.5q0 -106 70 -106q60 0 162 107l28 197q-48 48 -100 48zM191 -12q-147 0 -147 195q0 120 58 232t196 112q72 0 138 -57l17 47h102q-22 -96 -27 -133l-69 -507q-2 -12 0.5 -15.5t12.5 -4.5l48 -6l-9 -63h-263l8 62l79 8q19 2 21 19
l30 208l-4 2q-49 -48 -93 -73.5t-98 -25.5z" />
    <glyph glyph-name="r" unicode="r" horiz-adv-x="450" 
d="M396 527q42 0 73 -9l-22 -164l-88 4l-3 62q0 10 -8 10q-36 0 -113 -85l-35 -258q-2 -12 0.5 -15.5t13.5 -4.5l91 -8l-8 -59h-284l8 60l48 6q15 2 18 20l46 334q2 17 -10 21l-52 17l8 59h169l-13 -96q31 43 75 74.5t86 31.5z" />
    <glyph glyph-name="s" unicode="s" horiz-adv-x="462" 
d="M218 65q96 0 97 70q-1 49 -81 75q-103 33 -131 67t-28 86q0 81 62.5 122.5t157.5 41.5t157 -28l-18 -137l-80 4l-3 58q-1 13 -11 17q-25 9 -64 9q-94 0 -94 -66q0 -33 29 -47.5t59 -25.5t90.5 -35t60.5 -113q0 -90 -62.5 -132.5t-138.5 -42.5t-129 11.5t-70 22.5l19 137
l79 -5l3 -62q0 -27 96 -27z" />
    <glyph glyph-name="t" unicode="t" horiz-adv-x="412" 
d="M205 128q0 -51 59 -51q36 0 88 18l17 -73q-72 -34 -145 -34t-104.5 26t-31.5 82q0 11 2 37l41 292q0 10 -7 10h-70l10 73q59 8 90 40t50 109h72l-18 -130q-1 -10 8 -10h140l-11 -82h-150l-37 -272q-3 -21 -3 -35z" />
    <glyph glyph-name="u" unicode="u" horiz-adv-x="617" 
d="M205 -12q-117 0 -117 124q0 30 4 54l37 264q2 12 0 15.5t-13 4.5l-50 8l8 59h177l2 -3l-45 -326q-4 -30 -4 -49q0 -48 38 -48t72 22t99 80l32 237q2 12 0 15.5t-13 4.5l-55 8l9 59h183l2 -3l-60 -428q-3 -18 9 -19l54 -9l-8 -58h-172l14 91l-3 1q-93 -80 -132 -92
t-68 -12z" />
    <glyph glyph-name="v" unicode="v" horiz-adv-x="559" 
d="M319 0h-134l-88 432q-2 10 -6 12t-11 5l-41 9l8 59h158l6 -8l67 -395h3l165 335l-65 10l8 58h176l8 -21z" />
    <glyph glyph-name="w" unicode="w" horiz-adv-x="829" 
d="M625 0h-131l-48 374l-147 -374h-136l-66 432q-3 14 -16 17l-42 9l9 59h154l6 -8l7 -87l39 -306l156 396h123l51 -401l147 339l-58 8l9 59h154l9 -19z" />
    <glyph glyph-name="x" unicode="x" horiz-adv-x="572" 
d="M537 0h-148l-9 8l-41 78l-61 106l-111 -125l63 -9l-7 -58h-228l7 58l49 9q12 2 26 17l156 177l-98 172q-9 14 -21 17l-39 7l9 60h135l7 -7l90 -174l104 114l-52 8l9 59h212l-9 -59l-42 -10q-14 -3 -28 -19l-149 -159l106 -184q9 -15 23 -18l56 -9z" />
    <glyph glyph-name="y" unicode="y" horiz-adv-x="539" 
d="M174 -190q-42 -33 -122 -33t-128 46l43 69q45 -29 85 -29t63 22t46 63l34 62l-104 422q-4 13 -17 17l-41 10l11 58h148l7 -8l75 -361h3l151 301l-62 10l8 58h170l10 -21l-298 -575q-40 -78 -82 -111z" />
    <glyph glyph-name="z" unicode="z" horiz-adv-x="504" 
d="M186 439q-10 0 -13 -13l-20 -60l-79 -4l21 155h410l-10 -68l-324 -372h180q11 0 15 13l22 72l80 4l-22 -166h-425l8 66l328 373h-171z" />
    <glyph glyph-name="braceleft" unicode="{" horiz-adv-x="304" 
d="M60 -51q0 47 22 130t22 116t-17.5 45.5t-52.5 14.5l10 69q33 2 52.5 13t33.5 51t14 155t44 146.5t165 37.5l4 -69q-68 -9 -82.5 -32.5t-16.5 -71.5q-5 -143 -11 -169q-17 -71 -78 -97q52 -22 52 -84q0 -30 -21 -115t-21 -113t14.5 -37.5t55.5 -19.5l-19 -67
q-92 5 -131 27.5t-39 69.5z" />
    <glyph glyph-name="bar" unicode="|" horiz-adv-x="283" 
d="M154 -143h-104l122 867h104z" />
    <glyph glyph-name="braceright" unicode="}" horiz-adv-x="313" 
d="M282 630q0 -47 -22 -130t-22 -116t17.5 -45.5t52.5 -14.5l-10 -69q-33 -2 -52.5 -12.5t-33.5 -50.5t-14 -156q0 -115 -44 -146.5t-165 -37.5l-4 69q68 9 82.5 32t16.5 71q5 143 11 170q17 71 78 97q-52 22 -52 84q0 30 21 115q21 84 21 112t-14.5 38t-55.5 20l19 67
q92 -5 131 -27.5t39 -69.5z" />
    <glyph glyph-name="asciitilde" unicode="~" horiz-adv-x="499" 
d="M175 339q-35 0 -72 -51l-56 28q57 117 138 117q39 0 111 -23t98 -23t39 11t27 41l61 -23q-21 -62 -49 -92.5t-70 -30.5t-117 23t-110 23z" />
    <glyph glyph-name="exclamdown" unicode="&#xa1;" horiz-adv-x="268" 
d="M110 446q0 81 85 81q65 0 65 -57q0 -81 -85 -81q-65 0 -65 57zM119 332h96l-37 -371l-24 -170h-125l24 170z" />
    <glyph glyph-name="cent" unicode="&#xa2;" horiz-adv-x="501" 
d="M176 245q0 -90 52 -119l44 320q-96 -44 -96 -201zM55 239q0 115 61 196t168 98l14 102h82l-15 -102q74 -5 135 -34l-20 -138l-77 4l-2 65q0 13 -47 20l-47 -334q48 2 54 21l21 65l79 4l-20 -138q-56 -32 -145 -36l-14 -99h-81l14 104q-160 29 -160 202z" />
    <glyph glyph-name="sterling" unicode="&#xa3;" horiz-adv-x="546" 
d="M385 651q112 0 172 -58l-55 -69q-48 40 -109 40t-88.5 -30t-35.5 -90l-9 -67h163l-12 -87h-161l-5 -38q-15 -108 -87 -173h233q11 0 16 12l25 82h81l-23 -173h-453l-5 72q53 35 71.5 72t30.5 121l3 25h-76l12 87h74l8 58q14 104 66 160t164 56z" />
    <glyph glyph-name="currency" unicode="&#xa4;" horiz-adv-x="570" 
d="M402 280q0 130 -116 130q-55 0 -84.5 -36t-29.5 -94t29 -95.5t85 -37.5t86 37.5t30 95.5zM280 55q-76 0 -124 33l-87 -87l-69 69l91 91q-26 47 -26 114t28 116l-90 89l72 72l84 -85q53 38 131 38t129 -36l82 82l68 -70l-86 -86q26 -49 26 -113t-31 -122l90 -89l-72 -70
l-88 87q-52 -33 -128 -33z" />
    <glyph glyph-name="yen" unicode="&#xa5;" horiz-adv-x="553" 
d="M472 289h-125l-7 -54h126l-10 -69h-125l-11 -76q-2 -12 0 -15t13 -4l99 -8l-8 -63h-341l8 63l96 9q10 1 13.5 4.5t4.5 16.5l10 73h-128l10 69h128l6 54h-128l11 69h92l-101 187q-7 12 -22 17l-41 11l9 59h249l-8 -59l-73 -9l91 -176h4l136 176l-57 9l8 59h216l-9 -60
l-42 -9q-12 -2 -18.5 -10.5t-13 -17.5t-8.5 -11l-135 -166h92z" />
    <glyph glyph-name="brokenbar" unicode="&#xa6;" horiz-adv-x="283" 
d="M229 389h-104l47 335h104zM154 -143h-104l54 388h104z" />
    <glyph glyph-name="section" unicode="&#xa7;" horiz-adv-x="556" 
d="M387 246q0 43 -73 64l-82 23q-59 -44 -59 -86t77 -66l77 -25q60 47 60 90zM328 4q0 36 -29 51t-69 26q-39 11 -98.5 28.5t-59.5 105.5q0 89 95 156q-41 33 -41 105t62 113t162 41t167 -29l-19 -135l-81 5l-2 58q0 13 -10 17q-23 8 -71 8t-74 -19.5t-26 -50.5t26 -46.5
t55 -23.5t47 -14q45 -14 86.5 -40.5t41.5 -103.5q0 -78 -92 -137q40 -40 40 -110t-62.5 -110.5t-139.5 -40.5q-146 0 -206 36l17 132l81 -5l3 -60q2 -30 99 -30q98 0 98 73z" />
    <glyph glyph-name="dieresis" unicode="&#xa8;" 
d="M230 601q-53 0 -53 52q0 32 19 51.5t52 19.5q54 0 54 -51q0 -32 -19.5 -52t-52.5 -20zM434 601q-53 0 -53 52q0 32 19 51.5t52 19.5q54 0 54 -51q0 -32 -19.5 -52t-52.5 -20z" />
    <glyph glyph-name="copyright" unicode="&#xa9;" horiz-adv-x="765" 
d="M402 453q-107 0 -107 -139t114 -139q48 0 53 18l15 54h43v-103q-40 -24 -126 -24t-131 52.5t-45 141.5t49 142t125 53t129 -20v-108l-48 4l-9 48q-2 20 -62 20zM396 45q124 0 195 71.5t71 197.5t-73 195t-192 69t-193.5 -73t-74.5 -197t71.5 -193.5t195.5 -69.5zM728 317
q0 -148 -93 -239.5t-247 -91.5t-240.5 89t-86.5 235t95.5 236.5t244.5 90.5t238 -86t89 -234z" />
    <glyph glyph-name="ordfeminine" unicode="&#xaa;" horiz-adv-x="415" 
d="M161 404q0 -56 39 -56t99 58l18 123q-27 27 -69 27t-64.5 -48t-22.5 -104zM170 273q-103 0 -103 128q0 87 42 155t128 68q54 0 93 -37l13 31h80q-15 -70 -17 -84l-28 -190q-1 -13 9 -14l31 -5l-6 -44h-123l8 54l-3 1q-66 -63 -124 -63z" />
    <glyph glyph-name="guillemotleft" unicode="&#xab;" horiz-adv-x="448" 
d="M219 103h-97l-65 155l110 150h99l-97 -139q-8 -10 -4 -19zM389 103h-97l-65 155l110 150h99l-97 -139q-8 -10 -4 -19z" />
    <glyph glyph-name="logicalnot" unicode="&#xac;" horiz-adv-x="570" 
d="M474 183h-93l14 95h-288l13 95h381z" />
    <glyph glyph-name="registered" unicode="&#xae;" horiz-adv-x="450" 
d="M254 490h14q37 0 37 27t-32 27h-19v-54zM371 384h-81v23l13 2l-24 42q-5 8 -13 8h-12v-43q0 -6 6 -7l15 -2v-23h-82v22l15 3q5 1 5 7v128q0 5 -5 6l-15 3v22h88q67 0 67 -54q0 -38 -36 -52q9 -2 17 -18l17 -36q2 -5 8 -6l17 -2v-23zM415 478q0 66 -38.5 102.5
t-100.5 36.5t-102 -38.5t-40 -103.5t37 -101.5t103 -36.5t103.5 37.5t37.5 103.5zM459 480q0 -82 -51.5 -133.5t-137.5 -51.5t-133.5 49.5t-47.5 131.5t53.5 132.5t135.5 50.5t131.5 -48.5t49.5 -130.5z" />
    <glyph glyph-name="macron" unicode="&#xaf;" 
d="M491 606h-311l12 82h311z" />
    <glyph glyph-name="degree" unicode="&#xb0;" horiz-adv-x="286" 
d="M216 774q100 0 99 -98q0 -48 -35.5 -82.5t-83.5 -34.5q-100 -1 -101 99q0 50 36.5 83t84.5 33zM198 614q26 0 41.5 17t15.5 44q0 44 -42 44q-25 0 -41 -17t-16 -45q0 -43 42 -43z" />
    <glyph glyph-name="plusminus" unicode="&#xb1;" horiz-adv-x="570" 
d="M486 275h-141l-20 -141h-98l20 141h-142l13 95h142l20 146h99l-21 -146h141zM448 0h-381l13 95h381z" />
    <glyph glyph-name="twosuperior" unicode="&#xb2;" horiz-adv-x="363" 
d="M296 693q0 39 -41 39t-57 -13t-22 -47l-92 9q12 72 58.5 97t119.5 25q138 0 138 -101q0 -51 -31 -86t-63 -67l-133 -134h110q10 0 12 8l16 48h72l-18 -121h-324l9 61l149 149q65 66 81 90.5t16 42.5z" />
    <glyph glyph-name="threesuperior" unicode="&#xb3;" horiz-adv-x="371" 
d="M381 495q0 -72 -50.5 -112.5t-144.5 -40.5t-148 62l60 59q41 -45 88 -45q92 0 92 72q0 56 -62 56q-21 0 -49 -4l10 67l35 4q87 9 87 77q0 41 -46 41q-29 0 -44 -12.5t-20 -46.5l-95 9q15 122 161 122t146 -99q0 -46 -26.5 -76t-64.5 -42v-2q71 -17 71 -89z" />
    <glyph glyph-name="acute" unicode="&#xb4;" 
d="M451 699l-186 -135l-43 49l165 158z" />
    <glyph glyph-name="mu" unicode="&#xb5;" horiz-adv-x="635" 
d="M259 -12q-41 0 -73 27l-18 -191h-118l98 693h115l-47 -334q-4 -34 -4 -54q0 -47 61 -47t145 76l51 359h115l-60 -429q-3 -17 10 -20l52 -7l-9 -61h-166l10 65l-4 1q-87 -78 -158 -78z" />
    <glyph glyph-name="paragraph" unicode="&#xb6;" horiz-adv-x="631" 
d="M298 56q-108 0 -171 68t-63 183q0 157 93.5 247.5t257.5 90.5h258l-9 -62l-68 -8q-11 -1 -14.5 -4.5t-4.5 -14.5l-74 -527q-28 -191 -220 -191q-123 0 -200 49l38 73q18 -12 61.5 -26.5t90.5 -14.5q116 0 135 122l75 528h-72l-73 -513h-40z" />
    <glyph glyph-name="periodcentered" unicode="&#xb7;" horiz-adv-x="212" 
d="M55 301q0 82 85 82q64 0 64 -56q0 -82 -84 -82q-65 0 -65 56z" />
    <glyph glyph-name="cedilla" unicode="&#xb8;" 
d="M171 -181q71 0 71 51q0 40 -63 42l33 118l62 -8l-19 -67q67 -19 67 -78t-41.5 -90t-88.5 -31t-71 8l14 59q14 -4 36 -4z" />
    <glyph glyph-name="onesuperior" unicode="&#xb9;" horiz-adv-x="278" 
d="M284 350h-237l7 53l56 5q11 1 13 13l43 294q3 11 -7 13l-57 12l9 53h171l-55 -372q-3 -11 9 -13l55 -5z" />
    <glyph glyph-name="ordmasculine" unicode="&#xba;" horiz-adv-x="399" 
d="M223 339q96 0 96 144q0 76 -62 76q-44 0 -71 -35t-27 -110t64 -75zM224 273q-158 0 -158 142q0 94 52 151.5t138 57.5q156 0 157 -141q0 -97 -51.5 -153.5t-137.5 -56.5z" />
    <glyph glyph-name="guillemotright" unicode="&#xbb;" horiz-adv-x="448" 
d="M141 103h-100l97 145q6 10 3 19l-57 141h98l66 -153zM311 103h-100l97 145q6 10 3 19l-57 141h98l66 -153z" />
    <glyph glyph-name="onequarter" unicode="&#xbc;" horiz-adv-x="905" 
d="M691 160l25 183l-134 -183h109zM764 0h-96l11 81h-198l11 71l212 289h122l-39 -281h55l-12 -79h-55zM294 -17h-107l462 741h106zM310 281h-237l7 53l56 5q11 1 13 13l43 294q3 11 -7 13l-57 12l9 53h171l-55 -372q-3 -11 9 -13l55 -5z" />
    <glyph glyph-name="onehalf" unicode="&#xbd;" horiz-adv-x="905" 
d="M751 343q0 39 -41 39t-57 -13t-22 -47l-92 9q12 72 58.5 97t119.5 25q138 0 138 -101q0 -51 -31 -86t-63 -67l-133 -134h110q10 0 12 8l16 48h72l-18 -121h-324l9 61l149 149q66 66 81.5 90.5t15.5 42.5zM257 -17h-107l462 741h106zM295 281h-237l7 53l56 5q11 1 13 13
l43 294q3 11 -7 13l-57 12l9 53h171l-55 -372q-3 -11 9 -13l55 -5z" />
    <glyph glyph-name="threequarters" unicode="&#xbe;" horiz-adv-x="905" 
d="M703 160l25 183l-134 -183h109zM776 0h-96l11 81h-198l11 71l212 289h122l-39 -281h55l-12 -79h-55zM325 -17h-107l462 741h106zM403 426q0 -72 -50.5 -112.5t-144.5 -40.5t-148 62l60 59q41 -45 88 -45q92 0 92 72q0 56 -62 56q-21 0 -49 -4l10 67l35 4q87 9 87 77
q0 41 -46 41q-29 0 -44 -12.5t-20 -46.5l-95 9q15 122 161 122t146 -99q0 -46 -26.5 -76t-64.5 -42v-2q71 -17 71 -89z" />
    <glyph glyph-name="questiondown" unicode="&#xbf;" horiz-adv-x="502" 
d="M292 446q0 81 84 81q66 0 66 -57q0 -81 -85 -81q-65 0 -65 57zM231 -209q-206 0 -206 176q0 104 66 168t185 83l15 115h115l-25 -187q-232 -25 -232 -174q0 -43 26.5 -65t70.5 -22t68 5q23 5 28 24l19 62l92 7l-23 -157q-96 -35 -199 -35z" />
    <glyph glyph-name="Agrave" unicode="&#xc0;" horiz-adv-x="717" 
d="M518 766l-198 96l58 84l178 -126zM476 296l-62 323l-149 -323h211zM692 0h-269l9 57l83 9l-26 143h-262l-64 -143l86 -9l-9 -57h-253l9 57l43 11q19 5 29 22l300 634h138l130 -639q2 -12 21 -17l44 -11z" />
    <glyph glyph-name="Aacute" unicode="&#xc1;" horiz-adv-x="717" 
d="M579 861l-219 -95l-28 58l207 123zM476 296l-62 323l-149 -323h211zM692 0h-269l9 57l83 9l-26 143h-262l-64 -143l86 -9l-9 -57h-253l9 57l43 11q19 5 29 22l300 634h138l130 -639q2 -12 21 -17l44 -11z" />
    <glyph glyph-name="Acircumflex" unicode="&#xc2;" horiz-adv-x="717" 
d="M609 813l-52 -47l-107 83l-130 -83l-41 47l133 106h92zM476 296l-62 323l-149 -323h211zM692 0h-269l9 57l83 9l-26 143h-262l-64 -143l86 -9l-9 -57h-253l9 57l43 11q19 5 29 22l300 634h138l130 -639q2 -12 21 -17l44 -11z" />
    <glyph glyph-name="Atilde" unicode="&#xc3;" horiz-adv-x="717" 
d="M535 781q-26 0 -66 10l-99 27q-11 3 -17 -3l-41 -36l-46 33l35 48q33 43 63 43t92 -17t74 -17t16 4l34 34l50 -34l-29 -38q-40 -54 -66 -54zM476 296l-62 323l-149 -323h211zM692 0h-269l9 57l83 9l-26 143h-262l-64 -143l86 -9l-9 -57h-253l9 57l43 11q19 5 29 22
l300 634h138l130 -639q2 -12 21 -17l44 -11z" />
    <glyph glyph-name="Adieresis" unicode="&#xc4;" horiz-adv-x="717" 
d="M339 781q-53 0 -53 52q0 32 19 51.5t52 19.5q54 0 54 -51q0 -32 -19.5 -52t-52.5 -20zM543 781q-53 0 -53 52q0 32 19 51.5t52 19.5q54 0 54 -51q0 -32 -19.5 -52t-52.5 -20zM476 296l-62 323l-149 -323h211zM692 0h-269l9 57l83 9l-26 143h-262l-64 -143l86 -9l-9 -57
h-253l9 57l43 11q19 5 29 22l300 634h138l130 -639q2 -12 21 -17l44 -11z" />
    <glyph glyph-name="Aring" unicode="&#xc5;" horiz-adv-x="717" 
d="M439 746q19 0 30 13.5t11 34.5q0 29 -31 29q-42 0 -42 -44q0 -33 32 -33zM476 296l-62 323l-149 -323h211zM451 874q84 0 84 -80q0 -40 -31 -70h2l130 -639q2 -12 21 -17l44 -11l-9 -57h-269l9 57l83 9l-26 143h-262l-64 -143l86 -9l-9 -57h-253l9 57l43 11q19 5 29 22
l300 633q-16 21 -16 57t30 65t69 29z" />
    <glyph glyph-name="AE" unicode="&#xc6;" horiz-adv-x="1000" 
d="M540 401l33 237h-44l-157 -237h168zM888 638h-202l-33 -237h253l-12 -88h-253l-33 -228h224q15 0 18 11l28 88h83l-26 -184h-530l8 59l69 7q10 2 13 15l32 232h-206l-161 -245l74 -9l-8 -59h-239l8 58l44 11q20 6 29 19l370 565l-74 10l8 61h643l-26 -180l-82 4l-3 75
q0 15 -16 15z" />
    <glyph glyph-name="Ccedilla" unicode="&#xc7;" horiz-adv-x="665" 
d="M182 308q0 -230 193 -230q130 0 140 36l29 93h80l-23 -165q-78 -48 -223 -53l-9 -34q67 -19 67 -78t-41.5 -90t-88.5 -31t-71 8l14 59q14 -4 36 -4q71 0 71 51q0 40 -63 42l21 78q-129 11 -191 93t-62 216q0 197 108 317.5t305 120.5q138 0 214 -55l-24 -175l-83 6l-3 94
q0 15 -12 20q-44 18 -104 18q-126 0 -203 -88.5t-77 -248.5z" />
    <glyph glyph-name="Egrave" unicode="&#xc8;" horiz-adv-x="617" 
d="M478 766l-198 96l58 84l178 -126zM509 638h-201l-31 -230h249l-12 -87h-249l-32 -236h221q14 0 18 11l27 88h80l-25 -184h-525l7 59l63 7q11 2 14.5 5.5t4.5 14.5l76 551q2 12 -0.5 15.5t-12.5 4.5l-60 7l7 60h504l-25 -180l-80 4l-3 77q-1 13 -15 13z" />
    <glyph glyph-name="Eacute" unicode="&#xc9;" horiz-adv-x="617" 
d="M539 861l-219 -95l-28 58l207 123zM509 638h-201l-31 -230h249l-12 -87h-249l-32 -236h221q14 0 18 11l27 88h80l-25 -184h-525l7 59l63 7q11 2 14.5 5.5t4.5 14.5l76 551q2 12 -0.5 15.5t-12.5 4.5l-60 7l7 60h504l-25 -180l-80 4l-3 77q-1 13 -15 13z" />
    <glyph glyph-name="Ecircumflex" unicode="&#xca;" horiz-adv-x="617" 
d="M569 813l-52 -47l-107 83l-130 -83l-41 47l133 106h92zM509 638h-201l-31 -230h249l-12 -87h-249l-32 -236h221q14 0 18 11l27 88h80l-25 -184h-525l7 59l63 7q11 2 14.5 5.5t4.5 14.5l76 551q2 12 -0.5 15.5t-12.5 4.5l-60 7l7 60h504l-25 -180l-80 4l-3 77
q-1 13 -15 13z" />
    <glyph glyph-name="Edieresis" unicode="&#xcb;" horiz-adv-x="617" 
d="M299 781q-53 0 -53 52q0 32 19 51.5t52 19.5q54 0 54 -51q0 -32 -19.5 -52t-52.5 -20zM503 781q-53 0 -53 52q0 32 19 51.5t52 19.5q54 0 54 -51q0 -32 -19.5 -52t-52.5 -20zM509 638h-201l-31 -230h249l-12 -87h-249l-32 -236h221q14 0 18 11l27 88h80l-25 -184h-525
l7 59l63 7q11 2 14.5 5.5t4.5 14.5l76 551q2 12 -0.5 15.5t-12.5 4.5l-60 7l7 60h504l-25 -180l-80 4l-3 77q-1 13 -15 13z" />
    <glyph glyph-name="Igrave" unicode="&#xcc;" horiz-adv-x="371" 
d="M347 766l-198 96l58 84l178 -126zM313 0h-293l7 59l73 7q10 1 13 4.5t5 15.5l77 552q2 12 -0.5 15.5t-12.5 4.5l-70 7l8 59h292l-7 -59l-77 -8q-11 -2 -14 -5t-4 -14l-77 -551q-4 -15 0.5 -17t11.5 -3l75 -8z" />
    <glyph glyph-name="Iacute" unicode="&#xcd;" horiz-adv-x="371" 
d="M408 861l-219 -95l-28 58l207 123zM313 0h-293l7 59l73 7q10 1 13 4.5t5 15.5l77 552q2 12 -0.5 15.5t-12.5 4.5l-70 7l8 59h292l-7 -59l-77 -8q-11 -2 -14 -5t-4 -14l-77 -551q-4 -15 0.5 -17t11.5 -3l75 -8z" />
    <glyph glyph-name="Icircumflex" unicode="&#xce;" horiz-adv-x="371" 
d="M438 813l-52 -47l-107 83l-130 -83l-41 47l133 106h92zM313 0h-293l7 59l73 7q10 1 13 4.5t5 15.5l77 552q2 12 -0.5 15.5t-12.5 4.5l-70 7l8 59h292l-7 -59l-77 -8q-11 -2 -14 -5t-4 -14l-77 -551q-4 -15 0.5 -17t11.5 -3l75 -8z" />
    <glyph glyph-name="Idieresis" unicode="&#xcf;" horiz-adv-x="371" 
d="M168 781q-53 0 -53 52q0 32 19 51.5t52 19.5q54 0 54 -51q0 -32 -19.5 -52t-52.5 -20zM372 781q-53 0 -53 52q0 32 19 51.5t52 19.5q54 0 54 -51q0 -32 -19.5 -52t-52.5 -20zM313 0h-293l7 59l73 7q10 1 13 4.5t5 15.5l77 552q2 12 -0.5 15.5t-12.5 4.5l-70 7l8 59h292
l-7 -59l-77 -8q-11 -2 -14 -5t-4 -14l-77 -551q-4 -15 0.5 -17t11.5 -3l75 -8z" />
    <glyph glyph-name="Eth" unicode="&#xd0;" horiz-adv-x="760" 
d="M327 87q151 0 229 91.5t78 225.5t-55 183.5t-166 49.5h-92l-32 -236h170l-12 -88h-170l-31 -226h81zM436 724q158 0 237.5 -78.5t79.5 -218.5q0 -188 -104 -307.5t-319 -119.5h-289l9 60l63 7q15 2 17 19l31 227h-86l11 88h88l33 237q3 18 -13 20l-61 7l8 59h295z" />
    <glyph glyph-name="Ntilde" unicode="&#xd1;" horiz-adv-x="814" 
d="M596 781q-26 0 -66 10l-99 27q-11 3 -17 -3l-41 -36l-46 33l35 48q32 43 62 43t93 -17t75 -17t15 4l34 34l50 -34l-29 -38q-40 -54 -66 -54zM666 0h-126l-261 577l-68 -490q-2 -12 0 -15.5t13 -4.5l64 -8l-6 -59h-252l6 59l63 7q11 2 14.5 5.5t4.5 14.5l77 552
q2 12 -0.5 15.5t-12.5 4.5l-60 7l7 59h211l256 -575l67 489q2 12 -0.5 15.5t-12.5 4.5l-61 7l8 59h251l-8 -59l-67 -8q-11 -2 -14 -5t-4 -14z" />
    <glyph glyph-name="Ograve" unicode="&#xd2;" horiz-adv-x="754" 
d="M539 766l-198 96l58 84l178 -126zM367 85q221 0 260 273q5 32 5 71q0 101 -48 156t-144 55t-166 -68.5t-89 -202.5q-6 -41 -6 -74q0 -210 188 -210zM362 -12q-159 0 -231.5 78.5t-72.5 215.5q0 223 119 339t275 116t228.5 -81.5t72.5 -213.5q0 -42 -5 -75
q-25 -180 -126 -279.5t-260 -99.5z" />
    <glyph glyph-name="Oacute" unicode="&#xd3;" horiz-adv-x="754" 
d="M600 861l-219 -95l-28 58l207 123zM367 85q221 0 260 273q5 32 5 71q0 101 -48 156t-144 55t-166 -68.5t-89 -202.5q-6 -41 -6 -74q0 -210 188 -210zM362 -12q-159 0 -231.5 78.5t-72.5 215.5q0 223 119 339t275 116t228.5 -81.5t72.5 -213.5q0 -42 -5 -75
q-25 -180 -126 -279.5t-260 -99.5z" />
    <glyph glyph-name="Ocircumflex" unicode="&#xd4;" horiz-adv-x="754" 
d="M630 813l-52 -47l-107 83l-130 -83l-41 47l133 106h92zM367 85q221 0 260 273q5 32 5 71q0 101 -48 156t-144 55t-166 -68.5t-89 -202.5q-6 -41 -6 -74q0 -210 188 -210zM362 -12q-159 0 -231.5 78.5t-72.5 215.5q0 223 119 339t275 116t228.5 -81.5t72.5 -213.5
q0 -42 -5 -75q-25 -180 -126 -279.5t-260 -99.5z" />
    <glyph glyph-name="Otilde" unicode="&#xd5;" horiz-adv-x="754" 
d="M556 781q-26 0 -66 10l-99 27q-11 3 -17 -3l-41 -36l-46 33l35 48q32 43 62 43t93 -17t75 -17t15 4l34 34l50 -34l-29 -38q-40 -54 -66 -54zM367 85q221 0 260 273q5 32 5 71q0 101 -48 156t-144 55t-166 -68.5t-89 -202.5q-6 -41 -6 -74q0 -210 188 -210zM362 -12
q-159 0 -231.5 78.5t-72.5 215.5q0 223 119 339t275 116t228.5 -81.5t72.5 -213.5q0 -42 -5 -75q-25 -180 -126 -279.5t-260 -99.5z" />
    <glyph glyph-name="Odieresis" unicode="&#xd6;" horiz-adv-x="754" 
d="M360 781q-53 0 -53 52q0 32 19 51.5t52 19.5q54 0 54 -51q0 -32 -19.5 -52t-52.5 -20zM564 781q-53 0 -53 52q0 32 19 51.5t52 19.5q54 0 54 -51q0 -32 -19.5 -52t-52.5 -20zM367 85q221 0 260 273q5 32 5 71q0 101 -48 156t-144 55t-166 -68.5t-89 -202.5q-6 -41 -6 -74
q0 -210 188 -210zM362 -12q-159 0 -231.5 78.5t-72.5 215.5q0 223 119 339t275 116t228.5 -81.5t72.5 -213.5q0 -42 -5 -75q-25 -180 -126 -279.5t-260 -99.5z" />
    <glyph glyph-name="multiply" unicode="&#xd7;" horiz-adv-x="570" 
d="M385 149l-88 103l-117 -103l-59 68l118 104l-89 104l79 69l87 -104l118 104l59 -69l-117 -104l88 -104z" />
    <glyph glyph-name="Oslash" unicode="&#xd8;" horiz-adv-x="754" 
d="M367 85q221 0 260 273q5 32 5 71q0 97 -45 153l-275 -492q28 -5 55 -5zM179 295q0 -104 46 -156l277 495q-24 6 -52 6q-105 0 -175.5 -68.5t-89.5 -202.5q-6 -41 -6 -74zM58 282q0 223 119 339t288 116q44 0 89 -10l36 64h114l-59 -105q108 -76 108 -244q0 -42 -5 -75
q-25 -180 -126 -279.5t-272 -99.5q-50 0 -90 9l-42 -75h-115l64 114q-109 73 -109 246z" />
    <glyph glyph-name="Ugrave" unicode="&#xd9;" horiz-adv-x="772" 
d="M553 766l-198 96l58 84l178 -126zM372 -12q-128 0 -186 50t-58 153q0 28 5 65l51 382q3 18 -12 20l-61 7l8 59h274l-9 -59l-67 -8q-11 -1 -13.5 -4t-4.5 -15l-51 -371q-5 -38 -5 -62q0 -66 31.5 -94t109.5 -28t121.5 39.5t56.5 137.5l52 378q2 12 -0.5 15.5t-12.5 4.5
l-61 7l8 59h262l-8 -59l-67 -8q-11 -1 -13.5 -4t-4.5 -15l-55 -397q-19 -135 -90.5 -194t-199.5 -59z" />
    <glyph glyph-name="Uacute" unicode="&#xda;" horiz-adv-x="772" 
d="M614 861l-219 -95l-28 58l207 123zM372 -12q-128 0 -186 50t-58 153q0 28 5 65l51 382q3 18 -12 20l-61 7l8 59h274l-9 -59l-67 -8q-11 -1 -13.5 -4t-4.5 -15l-51 -371q-5 -38 -5 -62q0 -66 31.5 -94t109.5 -28t121.5 39.5t56.5 137.5l52 378q2 12 -0.5 15.5t-12.5 4.5
l-61 7l8 59h262l-8 -59l-67 -8q-11 -1 -13.5 -4t-4.5 -15l-55 -397q-19 -135 -90.5 -194t-199.5 -59z" />
    <glyph glyph-name="Ucircumflex" unicode="&#xdb;" horiz-adv-x="772" 
d="M644 813l-52 -47l-107 83l-130 -83l-41 47l133 106h92zM372 -12q-128 0 -186 50t-58 153q0 28 5 65l51 382q3 18 -12 20l-61 7l8 59h274l-9 -59l-67 -8q-11 -1 -13.5 -4t-4.5 -15l-51 -371q-5 -38 -5 -62q0 -66 31.5 -94t109.5 -28t121.5 39.5t56.5 137.5l52 378
q2 12 -0.5 15.5t-12.5 4.5l-61 7l8 59h262l-8 -59l-67 -8q-11 -1 -13.5 -4t-4.5 -15l-55 -397q-19 -135 -90.5 -194t-199.5 -59z" />
    <glyph glyph-name="Udieresis" unicode="&#xdc;" horiz-adv-x="772" 
d="M374 781q-53 0 -53 52q0 32 19 51.5t52 19.5q54 0 54 -51q0 -32 -19.5 -52t-52.5 -20zM578 781q-53 0 -53 52q0 32 19 51.5t52 19.5q54 0 54 -51q0 -32 -19.5 -52t-52.5 -20zM372 -12q-128 0 -186 50t-58 153q0 28 5 65l51 382q3 18 -12 20l-61 7l8 59h274l-9 -59l-67 -8
q-11 -1 -13.5 -4t-4.5 -15l-51 -371q-5 -38 -5 -62q0 -66 31.5 -94t109.5 -28t121.5 39.5t56.5 137.5l52 378q2 12 -0.5 15.5t-12.5 4.5l-61 7l8 59h262l-8 -59l-67 -8q-11 -1 -13.5 -4t-4.5 -15l-55 -397q-19 -135 -90.5 -194t-199.5 -59z" />
    <glyph glyph-name="Yacute" unicode="&#xdd;" horiz-adv-x="629" 
d="M551 861l-219 -95l-28 58l207 123zM473 0h-341l8 59l97 7q14 2 17 21l26 189l-146 361q-5 13 -21 17l-43 11l9 59h259l-9 -59l-76 -9l102 -278l180 278l-73 9l9 59h233l-8 -59l-43 -11q-19 -4 -27 -20l-231 -356l-26 -191q-2 -13 0 -16t13 -4l99 -8z" />
    <glyph glyph-name="Thorn" unicode="&#xde;" horiz-adv-x="640" 
d="M325 239q139 0 165 58t26 109q0 105 -137 105h-90l-37 -272h73zM635 412q0 -257 -303 -257h-92l-9 -67q-1 -12 1 -15.5t12 -4.5l139 -8l-8 -60h-347l8 60l63 7q11 2 14.5 5.5t4.5 14.5l76 551q3 18 -14 20l-60 7l8 59h277l-7 -59l-75 -9q-14 -2 -16 -17l-6 -42h118
q113 0 164.5 -49.5t51.5 -135.5z" />
    <glyph glyph-name="germandbls" unicode="&#xdf;" horiz-adv-x="654" 
d="M376 766q146 0 188.5 -50t42.5 -94t-21 -76t-41 -50t-27.5 -25t-10.5 -9.5t-9.5 -8.5t-9.5 -9.5t-7.5 -8.5t-6.5 -9t-5.5 -10.5t-3.5 -15.5q0 -10 3.5 -19t7.5 -15t13.5 -14.5t15 -13t18.5 -14t35 -25.5q66 -49 66 -131q0 -83 -57.5 -131.5t-157.5 -48.5t-165 34l19 131
l79 -5l4 -64q0 -25 60 -25q109 0 109 84q0 34 -17.5 56.5t-61.5 50.5t-64 54t-20 65q0 40 18 68t48 56t52 51t22 58t-27 56t-83 21q-113 0 -132 -132l-107 -759h-113l110 772q17 117 85.5 161.5t150.5 44.5z" />
    <glyph glyph-name="agrave" unicode="&#xe0;" horiz-adv-x="590" 
d="M449 607l-53 -43l-156 144l78 67zM319 437q-94 0 -126.5 -83t-32.5 -152q0 -68 16.5 -93t52.5 -25q61 0 162 108l28 197q-48 48 -100 48zM195 -12q-151 0 -151 195q0 125 58.5 234.5t192.5 109.5q79 0 140 -57l17 47h102q-20 -84 -26 -126l-42 -305q-2 -12 0.5 -15.5
t12.5 -4.5l48 -7l-8 -59h-165l12 86l-4 2q-51 -50 -93.5 -75t-93.5 -25z" />
    <glyph glyph-name="aacute" unicode="&#xe1;" horiz-adv-x="590" 
d="M476 699l-186 -135l-43 49l165 158zM319 437q-94 0 -126.5 -83t-32.5 -152q0 -68 16.5 -93t52.5 -25q61 0 162 108l28 197q-48 48 -100 48zM195 -12q-151 0 -151 195q0 125 58.5 234.5t192.5 109.5q79 0 140 -57l17 47h102q-20 -84 -26 -126l-42 -305q-2 -12 0.5 -15.5
t12.5 -4.5l48 -7l-8 -59h-165l12 86l-4 2q-51 -50 -93.5 -75t-93.5 -25z" />
    <glyph glyph-name="acircumflex" unicode="&#xe2;" horiz-adv-x="590" 
d="M514 612l-55 -44l-107 98l-135 -98l-46 44l143 125h92zM319 437q-94 0 -126.5 -83t-32.5 -152q0 -68 16.5 -93t52.5 -25q61 0 162 108l28 197q-48 48 -100 48zM195 -12q-151 0 -151 195q0 125 58.5 234.5t192.5 109.5q79 0 140 -57l17 47h102q-20 -84 -26 -126l-42 -305
q-2 -12 0.5 -15.5t12.5 -4.5l48 -7l-8 -59h-165l12 86l-4 2q-51 -50 -93.5 -75t-93.5 -25z" />
    <glyph glyph-name="atilde" unicode="&#xe3;" horiz-adv-x="590" 
d="M258 706q26 0 92 -18t73.5 -19.5t15.5 4.5l37 35l48 -33l-28 -38q-41 -54 -64 -54t-92 19t-78 21t-16 -5l-41 -36l-44 32l36 47q35 45 61 45zM319 437q-94 0 -126.5 -83t-32.5 -152q0 -68 16.5 -93t52.5 -25q61 0 162 108l28 197q-48 48 -100 48zM195 -12
q-151 0 -151 195q0 125 58.5 234.5t192.5 109.5q79 0 140 -57l17 47h102q-20 -84 -26 -126l-42 -305q-2 -12 0.5 -15.5t12.5 -4.5l48 -7l-8 -59h-165l12 86l-4 2q-51 -50 -93.5 -75t-93.5 -25z" />
    <glyph glyph-name="adieresis" unicode="&#xe4;" horiz-adv-x="590" 
d="M239 601q-53 0 -53 52q0 32 19 51.5t52 19.5q54 0 54 -51q0 -32 -19.5 -52t-52.5 -20zM443 601q-53 0 -53 52q0 32 19 51.5t52 19.5q54 0 54 -51q0 -32 -19.5 -52t-52.5 -20zM319 437q-94 0 -126.5 -83t-32.5 -152q0 -68 16.5 -93t52.5 -25q61 0 162 108l28 197
q-48 48 -100 48zM195 -12q-151 0 -151 195q0 125 58.5 234.5t192.5 109.5q79 0 140 -57l17 47h102q-20 -84 -26 -126l-42 -305q-2 -12 0.5 -15.5t12.5 -4.5l48 -7l-8 -59h-165l12 86l-4 2q-51 -50 -93.5 -75t-93.5 -25z" />
    <glyph glyph-name="aring" unicode="&#xe5;" horiz-adv-x="590" 
d="M360 621q19 0 30 13.5t11 33.5q0 29 -31 29q-41 0 -41 -44q0 -32 31 -32zM358 571q-84 0 -84 81q0 39 29 66t69 27q82 0 83 -72q0 -44 -28.5 -73t-68.5 -29zM319 437q-94 0 -126.5 -83t-32.5 -152q0 -68 16.5 -93t52.5 -25q61 0 162 108l28 197q-48 48 -100 48zM195 -12
q-151 0 -151 195q0 125 58.5 234.5t192.5 109.5q79 0 140 -57l17 47h102q-20 -84 -26 -126l-42 -305q-2 -12 0.5 -15.5t12.5 -4.5l48 -7l-8 -59h-165l12 86l-4 2q-51 -50 -93.5 -75t-93.5 -25z" />
    <glyph glyph-name="ae" unicode="&#xe6;" horiz-adv-x="813" 
d="M694 391q0 49 -56 49t-97 -45t-54 -114q207 30 207 110zM314 437q-89 0 -121.5 -83t-32.5 -162q0 -107 74 -107q56 0 131 75q-10 137 50 230q-54 47 -101 47zM566 -12q-133 0 -181 97q-102 -97 -190 -97q-151 0 -151 195q0 125 58.5 234.5t192.5 109.5q95 0 172 -75
q84 75 190 75q70 0 107 -34t37 -96t-50 -103q-74 -61 -271 -88q1 -64 25 -96.5t87 -32.5t147 36l19 -80q-93 -45 -192 -45z" />
    <glyph glyph-name="ccedilla" unicode="&#xe7;" horiz-adv-x="493" 
d="M326 442q-68 0 -117 -56t-49 -172q0 -138 116 -138q70 0 136 33l22 -76q-62 -38 -155 -44l-9 -34q67 -19 67 -78t-41.5 -90t-88.5 -31t-71 8l14 59q14 -4 36 -4q71 0 71 51q0 40 -63 42l22 78q-173 20 -173 211q0 162 84.5 244t198.5 82t169 -36l-20 -142l-78 4l-3 66
q0 23 -68 23z" />
    <glyph glyph-name="egrave" unicode="&#xe8;" horiz-adv-x="492" 
d="M433 607l-53 -43l-156 144l78 67zM373 391q-1 49 -57 49t-96.5 -45t-53.5 -114q131 14 169 48t38 62zM245 -12q-202 0 -202 209q0 144 81.5 237t205.5 93q76 0 113 -33.5t37 -91.5q0 -162 -320 -199q0 -64 24 -95t88 -31t145 36l20 -80q-95 -45 -192 -45z" />
    <glyph glyph-name="eacute" unicode="&#xe9;" horiz-adv-x="492" 
d="M460 699l-186 -135l-43 49l165 158zM373 391q-1 49 -57 49t-96.5 -45t-53.5 -114q131 14 169 48t38 62zM245 -12q-202 0 -202 209q0 144 81.5 237t205.5 93q76 0 113 -33.5t37 -91.5q0 -162 -320 -199q0 -64 24 -95t88 -31t145 36l20 -80q-95 -45 -192 -45z" />
    <glyph glyph-name="ecircumflex" unicode="&#xea;" horiz-adv-x="492" 
d="M498 612l-55 -44l-107 98l-135 -98l-46 44l143 125h92zM373 391q-1 49 -57 49t-96.5 -45t-53.5 -114q131 14 169 48t38 62zM245 -12q-202 0 -202 209q0 144 81.5 237t205.5 93q76 0 113 -33.5t37 -91.5q0 -162 -320 -199q0 -64 24 -95t88 -31t145 36l20 -80
q-95 -45 -192 -45z" />
    <glyph glyph-name="edieresis" unicode="&#xeb;" horiz-adv-x="492" 
d="M223 601q-53 0 -53 52q0 32 19 51.5t52 19.5q54 0 54 -51q0 -32 -19.5 -52t-52.5 -20zM427 601q-53 0 -53 52q0 32 19 51.5t52 19.5q54 0 54 -51q0 -32 -19.5 -52t-52.5 -20zM373 391q-1 49 -57 49t-96.5 -45t-53.5 -114q131 14 169 48t38 62zM245 -12q-202 0 -202 209
q0 144 81.5 237t205.5 93q76 0 113 -33.5t37 -91.5q0 -162 -320 -199q0 -64 24 -95t88 -31t145 36l20 -80q-95 -45 -192 -45z" />
    <glyph glyph-name="igrave" unicode="&#xec;" horiz-adv-x="304" 
d="M278 602l-53 -43l-156 144l78 67zM257 0h-187l-3 5l23 122l41 294q3 17 -10 21l-52 16l9 59h180l-61 -430q-2 -12 0.5 -15.5t13.5 -4.5l54 -8z" />
    <glyph glyph-name="iacute" unicode="&#xed;" horiz-adv-x="304" 
d="M305 694l-186 -135l-43 49l165 158zM257 0h-187l-3 5l23 122l41 294q3 17 -10 21l-52 16l9 59h180l-61 -430q-2 -12 0.5 -15.5t13.5 -4.5l54 -8z" />
    <glyph glyph-name="icircumflex" unicode="&#xee;" horiz-adv-x="304" 
d="M257 0h-187l-3 5l23 122l41 294q3 17 -10 21l-52 16l9 59h180l-61 -430q-2 -12 0.5 -15.5t13.5 -4.5l54 -8zM333 610l-55 -44l-97 98l-125 -98l-46 44l133 125h92z" />
    <glyph glyph-name="idieresis" unicode="&#xef;" horiz-adv-x="304" 
d="M257 0h-187l-3 5l23 122l41 294q3 17 -10 21l-52 16l9 59h180l-61 -430q-2 -12 0.5 -15.5t13.5 -4.5l54 -8zM82 583q-53 0 -53 52q0 32 19 51.5t52 19.5q54 0 54 -51q0 -32 -19.5 -52t-52.5 -20zM266 583q-53 0 -53 52q0 32 19 51.5t52 19.5q54 0 54 -51q0 -32 -19.5 -52
t-52.5 -20z" />
    <glyph glyph-name="eth" unicode="&#xf0;" horiz-adv-x="574" 
d="M315 417q-74 0 -113 -59.5t-39 -154.5q0 -129 104 -129q84 0 126.5 81.5t48.5 216.5q-53 45 -127 45zM558 395q0 -293 -115 -350t-204 -57t-142.5 57.5t-53.5 172.5t72 200.5t197 85.5q73 0 135 -40q-15 82 -55 135l-99 -51l-44 74l73 37q-41 23 -102 34l42 79
q94 -14 159 -62l111 56l40 -75l-86 -44q72 -97 72 -252z" />
    <glyph glyph-name="ntilde" unicode="&#xf1;" horiz-adv-x="620" 
d="M275 706q27 0 93 -18t73 -19.5t15 4.5l37 35l48 -33l-28 -38q-41 -54 -64 -54t-92 19t-78 21t-16 -5l-41 -36l-44 32l36 47q35 45 61 45zM441 375q0 51 -39 51q-63 0 -169 -95l-34 -244q-2 -12 0.5 -15.5t13.5 -4.5l57 -8l-8 -59h-249l8 60l46 7q11 2 14.5 5.5t4.5 14.5
l46 333q3 16 -9 21l-52 17l8 59h171l-12 -88q57 48 102.5 73t99.5 25q117 0 117 -122q0 -24 -5 -59l-37 -259q-2 -12 0 -15.5t13 -4.5l54 -8l-8 -59h-186l-2 3l21 120l28 188q6 42 6 64z" />
    <glyph glyph-name="ograve" unicode="&#xf2;" horiz-adv-x="567" 
d="M446 607l-53 -43l-156 144l78 67zM269 71q71 0 114.5 61.5t43.5 184.5t-106 123q-72 0 -116.5 -59t-44.5 -185t109 -125zM274 -12q-230 0 -231 211q0 147 76.5 237.5t200.5 90.5q224 0 225 -210q0 -152 -73.5 -240.5t-197.5 -88.5z" />
    <glyph glyph-name="oacute" unicode="&#xf3;" horiz-adv-x="567" 
d="M473 699l-186 -135l-43 49l165 158zM269 71q71 0 114.5 61.5t43.5 184.5t-106 123q-72 0 -116.5 -59t-44.5 -185t109 -125zM274 -12q-230 0 -231 211q0 147 76.5 237.5t200.5 90.5q224 0 225 -210q0 -152 -73.5 -240.5t-197.5 -88.5z" />
    <glyph glyph-name="ocircumflex" unicode="&#xf4;" horiz-adv-x="567" 
d="M511 612l-55 -44l-107 98l-135 -98l-46 44l143 125h92zM269 71q71 0 114.5 61.5t43.5 184.5t-106 123q-72 0 -116.5 -59t-44.5 -185t109 -125zM274 -12q-230 0 -231 211q0 147 76.5 237.5t200.5 90.5q224 0 225 -210q0 -152 -73.5 -240.5t-197.5 -88.5z" />
    <glyph glyph-name="otilde" unicode="&#xf5;" horiz-adv-x="567" 
d="M429 583q-23 0 -92 19t-78 21t-16 -5l-41 -36l-44 32l36 47q35 45 61 45q27 0 93 -18t73 -19.5t15 4.5l37 35l48 -33l-28 -38q-41 -54 -64 -54zM269 71q71 0 114.5 61.5t43.5 184.5t-106 123q-72 0 -116.5 -59t-44.5 -185t109 -125zM274 -12q-230 0 -231 211
q0 147 76.5 237.5t200.5 90.5q224 0 225 -210q0 -152 -73.5 -240.5t-197.5 -88.5z" />
    <glyph glyph-name="odieresis" unicode="&#xf6;" horiz-adv-x="567" 
d="M236 601q-53 0 -53 52q0 32 19 51.5t52 19.5q54 0 54 -51q0 -32 -19.5 -52t-52.5 -20zM440 601q-53 0 -53 52q0 32 19 51.5t52 19.5q54 0 54 -51q0 -32 -19.5 -52t-52.5 -20zM269 71q71 0 114.5 61.5t43.5 184.5t-106 123q-72 0 -116.5 -59t-44.5 -185t109 -125zM274 -12
q-230 0 -231 211q0 147 76.5 237.5t200.5 90.5q224 0 225 -210q0 -152 -73.5 -240.5t-197.5 -88.5z" />
    <glyph glyph-name="divide" unicode="&#xf7;" horiz-adv-x="570" 
d="M331 547q62 0 62 -56q0 -76 -80 -76q-61 0 -61 54q0 36 20.5 57t58.5 21zM488 274h-381l14 94h381zM348 173q0 -77 -79 -77q-62 0 -62 55q0 36 21 56.5t59 20.5q61 0 61 -55z" />
    <glyph glyph-name="oslash" unicode="&#xf8;" horiz-adv-x="567" 
d="M160 202q0 -41 11 -69l177 304q-12 3 -27 3q-72 0 -116.5 -59t-44.5 -179zM269 71q71 0 114.5 61.5t43.5 183.5q0 41 -12 68l-179 -309q13 -4 33 -4zM43 216q0 130 76.5 220.5t215.5 90.5q33 0 62 -6l39 67h98l-59 -101q70 -53 70 -187t-74 -223t-212 -89q-33 0 -70 7
l-48 -83h-99l69 119q-68 55 -68 185z" />
    <glyph glyph-name="ugrave" unicode="&#xf9;" horiz-adv-x="617" 
d="M454 607l-53 -43l-156 144l78 67zM205 -12q-117 0 -117 124q0 30 4 54l37 264q2 12 0 15.5t-13 4.5l-50 8l8 59h177l2 -3l-45 -326q-4 -30 -4 -49q0 -48 38 -48t72 22t99 80l32 237q2 12 0 15.5t-13 4.5l-55 8l9 59h183l2 -3l-60 -428q-3 -18 9 -19l54 -9l-8 -58h-172
l14 91l-3 1q-93 -80 -132 -92t-68 -12z" />
    <glyph glyph-name="uacute" unicode="&#xfa;" horiz-adv-x="617" 
d="M481 699l-186 -135l-43 49l165 158zM205 -12q-117 0 -117 124q0 30 4 54l37 264q2 12 0 15.5t-13 4.5l-50 8l8 59h177l2 -3l-45 -326q-4 -30 -4 -49q0 -48 38 -48t72 22t99 80l32 237q2 12 0 15.5t-13 4.5l-55 8l9 59h183l2 -3l-60 -428q-3 -18 9 -19l54 -9l-8 -58h-172
l14 91l-3 1q-93 -80 -132 -92t-68 -12z" />
    <glyph glyph-name="ucircumflex" unicode="&#xfb;" horiz-adv-x="617" 
d="M519 612l-55 -44l-107 98l-135 -98l-46 44l143 125h92zM205 -12q-117 0 -117 124q0 30 4 54l37 264q2 12 0 15.5t-13 4.5l-50 8l8 59h177l2 -3l-45 -326q-4 -30 -4 -49q0 -48 38 -48t72 22t99 80l32 237q2 12 0 15.5t-13 4.5l-55 8l9 59h183l2 -3l-60 -428q-3 -18 9 -19
l54 -9l-8 -58h-172l14 91l-3 1q-93 -80 -132 -92t-68 -12z" />
    <glyph glyph-name="udieresis" unicode="&#xfc;" horiz-adv-x="617" 
d="M244 601q-53 0 -53 52q0 32 19 51.5t52 19.5q54 0 54 -51q0 -32 -19.5 -52t-52.5 -20zM448 601q-53 0 -53 52q0 32 19 51.5t52 19.5q54 0 54 -51q0 -32 -19.5 -52t-52.5 -20zM205 -12q-117 0 -117 124q0 30 4 54l37 264q2 12 0 15.5t-13 4.5l-50 8l8 59h177l2 -3
l-45 -326q-4 -30 -4 -49q0 -48 38 -48t72 22t99 80l32 237q2 12 0 15.5t-13 4.5l-55 8l9 59h183l2 -3l-60 -428q-3 -18 9 -19l54 -9l-8 -58h-172l14 91l-3 1q-93 -80 -132 -92t-68 -12z" />
    <glyph glyph-name="yacute" unicode="&#xfd;" horiz-adv-x="549" 
d="M452 699l-186 -135l-43 49l165 158zM184 -190q-42 -33 -122 -33t-128 46l43 69q45 -29 85 -29t63 22t46 63l34 62l-104 422q-4 13 -17 17l-41 10l11 58h148l7 -8l75 -361h3l151 301l-62 10l8 58h170l10 -21l-298 -575q-40 -78 -82 -111z" />
    <glyph glyph-name="thorn" unicode="&#xfe;" horiz-adv-x="588" 
d="M302 78q52 0 98.5 54t46.5 175q0 120 -67 120q-55 0 -158 -95l-28 -199q56 -55 108 -55zM418 527q148 0 148 -198t-82 -269.5t-162 -71.5t-137 55h-4l-23 -167q-3 -16 13 -18l95 -8l-9 -62h-225l-3 4l30 177l97 689q3 18 -9 21l-52 17l9 59h176l-47 -325q113 97 185 97z
" />
    <glyph glyph-name="ydieresis" unicode="&#xff;" horiz-adv-x="549" 
d="M215 601q-53 0 -53 52q0 32 19 51.5t52 19.5q54 0 54 -51q0 -32 -19.5 -52t-52.5 -20zM419 601q-53 0 -53 52q0 32 19 51.5t52 19.5q54 0 54 -51q0 -32 -19.5 -52t-52.5 -20zM184 -190q-42 -33 -122 -33t-128 46l43 69q45 -29 85 -29t63 22t46 63l34 62l-104 422
q-4 13 -17 17l-41 10l11 58h148l7 -8l75 -361h3l151 301l-62 10l8 58h170l10 -21l-298 -575q-40 -78 -82 -111z" />
    <glyph glyph-name="Amacron" unicode="&#x100;" horiz-adv-x="717" 
d="M603 790h-311l11 82h311zM476 296l-62 323l-149 -323h211zM692 0h-269l9 57l83 9l-26 143h-262l-64 -143l86 -9l-9 -57h-253l9 57l43 11q19 5 29 22l300 634h138l130 -639q2 -12 21 -17l44 -11z" />
    <glyph glyph-name="amacron" unicode="&#x101;" horiz-adv-x="590" 
d="M508 606h-311l12 82h311zM319 437q-94 0 -126.5 -83t-32.5 -152q0 -68 16.5 -93t52.5 -25q61 0 162 108l28 197q-48 48 -100 48zM195 -12q-151 0 -151 195q0 125 58.5 234.5t192.5 109.5q79 0 140 -57l17 47h102q-20 -84 -26 -126l-42 -305q-2 -12 0.5 -15.5t12.5 -4.5
l48 -7l-8 -59h-165l12 86l-4 2q-51 -50 -93.5 -75t-93.5 -25z" />
    <glyph glyph-name="Abreve" unicode="&#x102;" horiz-adv-x="717" 
d="M442 782q-128 0 -144 123l66 22q16 -70 86 -70t106 71l63 -23q-49 -123 -177 -123zM476 296l-62 323l-149 -323h211zM692 0h-269l9 57l83 9l-26 143h-262l-64 -143l86 -9l-9 -57h-253l9 57l43 11q19 5 29 22l300 634h138l130 -639q2 -12 21 -17l44 -11z" />
    <glyph glyph-name="abreve" unicode="&#x103;" horiz-adv-x="590" 
d="M344 572q-134 0 -150 135l66 24q16 -84 92 -84t118 84l62 -24q-54 -135 -188 -135zM319 437q-94 0 -126.5 -83t-32.5 -152q0 -68 16.5 -93t52.5 -25q61 0 162 108l28 197q-48 48 -100 48zM195 -12q-151 0 -151 195q0 125 58.5 234.5t192.5 109.5q79 0 140 -57l17 47h102
q-20 -84 -26 -126l-42 -305q-2 -12 0.5 -15.5t12.5 -4.5l48 -7l-8 -59h-165l12 86l-4 2q-51 -50 -93.5 -75t-93.5 -25z" />
    <glyph glyph-name="Aogonek" unicode="&#x104;" horiz-adv-x="717" 
d="M476 296l-62 323l-149 -323h211zM527 -224q-86 0 -86 67q0 77 111 157h-129l9 57l83 9l-26 143h-262l-64 -143l86 -9l-9 -57h-253l9 57l43 11q19 5 29 22l300 634h138l130 -639q2 -12 21 -17l44 -11l-9 -57h-54q-96 -75 -96 -123q0 -25 24 -25t54 11l14 -63
q-54 -24 -107 -24z" />
    <glyph glyph-name="aogonek" unicode="&#x105;" horiz-adv-x="590" 
d="M319 437q-94 0 -126.5 -83t-32.5 -152q0 -68 16.5 -93t52.5 -25q61 0 162 108l28 197q-48 48 -100 48zM405 -224q-86 0 -86 67q0 44 28.5 79t85.5 78h-59l12 86l-4 2q-51 -50 -93.5 -75t-93.5 -25q-151 0 -151 195q0 125 58.5 234.5t192.5 109.5q79 0 140 -57l17 47h102
q-20 -84 -26 -126l-42 -305q-2 -12 0.5 -15.5t12.5 -4.5l48 -7l-8 -59q-46 -21 -82.5 -55.5t-36.5 -63.5t24 -29t54 11l14 -63q-54 -24 -107 -24z" />
    <glyph glyph-name="Cacute" unicode="&#x106;" horiz-adv-x="665" 
d="M602 861l-219 -95l-28 58l207 123zM182 308q0 -230 193 -230q130 0 140 36l29 93h80l-23 -165q-89 -54 -243 -54t-225.5 83.5t-71.5 227.5q0 197 108 317.5t305 120.5q138 0 214 -55l-24 -175l-83 6l-3 94q0 15 -12 20q-44 18 -104 18q-126 0 -203 -88.5t-77 -248.5z" />
    <glyph glyph-name="cacute" unicode="&#x107;" horiz-adv-x="493" 
d="M471 699l-186 -135l-43 49l165 158zM326 442q-68 0 -117 -56t-49 -172q0 -138 116 -138q70 0 136 33l22 -76q-74 -45 -180 -45q-211 0 -211 213q0 162 84.5 244t198.5 82t169 -36l-20 -142l-78 4l-3 66q0 23 -68 23z" />
    <glyph glyph-name="Ccircumflex" unicode="&#x108;" horiz-adv-x="665" 
d="M632 813l-52 -47l-107 83l-130 -83l-41 47l133 106h92zM182 308q0 -230 193 -230q130 0 140 36l29 93h80l-23 -165q-89 -54 -243 -54t-225.5 83.5t-71.5 227.5q0 197 108 317.5t305 120.5q138 0 214 -55l-24 -175l-83 6l-3 94q0 15 -12 20q-44 18 -104 18
q-126 0 -203 -88.5t-77 -248.5z" />
    <glyph glyph-name="ccircumflex" unicode="&#x109;" horiz-adv-x="493" 
d="M504 612l-55 -44l-107 98l-135 -98l-46 44l143 125h92zM326 442q-68 0 -117 -56t-49 -172q0 -138 116 -138q70 0 136 33l22 -76q-74 -45 -180 -45q-211 0 -211 213q0 162 84.5 244t198.5 82t169 -36l-20 -142l-78 4l-3 66q0 23 -68 23z" />
    <glyph glyph-name="Cdotaccent" unicode="&#x10a;" horiz-adv-x="665" 
d="M489 929q65 0 65 -61q0 -39 -23 -63t-59 -24q-70 0 -70 62q0 39 23.5 62.5t63.5 23.5zM182 308q0 -230 193 -230q130 0 140 36l29 93h80l-23 -165q-89 -54 -243 -54t-225.5 83.5t-71.5 227.5q0 197 108 317.5t305 120.5q138 0 214 -55l-24 -175l-83 6l-3 94q0 15 -12 20
q-44 18 -104 18q-126 0 -203 -88.5t-77 -248.5z" />
    <glyph glyph-name="cdotaccent" unicode="&#x10b;" horiz-adv-x="493" 
d="M362 765q65 0 65 -61q0 -39 -23 -63t-58 -24q-69 0 -69 62q0 39 23 62.5t62 23.5zM326 442q-68 0 -117 -56t-49 -172q0 -138 116 -138q70 0 136 33l22 -76q-74 -45 -180 -45q-211 0 -211 213q0 162 84.5 244t198.5 82t169 -36l-20 -142l-78 4l-3 66q0 23 -68 23z" />
    <glyph glyph-name="Ccaron" unicode="&#x10c;" horiz-adv-x="665" 
d="M642 884l-133 -106h-92l-105 106l52 47l107 -83l130 83zM182 308q0 -230 193 -230q130 0 140 36l29 93h80l-23 -165q-89 -54 -243 -54t-225.5 83.5t-71.5 227.5q0 197 108 317.5t305 120.5q138 0 214 -55l-24 -175l-83 6l-3 94q0 15 -12 20q-44 18 -104 18
q-126 0 -203 -88.5t-77 -248.5z" />
    <glyph glyph-name="ccaron" unicode="&#x10d;" horiz-adv-x="493" 
d="M524 704l-144 -125h-92l-106 125l54 44l106 -98l136 98zM326 442q-68 0 -117 -56t-49 -172q0 -138 116 -138q70 0 136 33l22 -76q-74 -45 -180 -45q-211 0 -211 213q0 162 84.5 244t198.5 82t169 -36l-20 -142l-78 4l-3 66q0 23 -68 23z" />
    <glyph glyph-name="Dcaron" unicode="&#x10e;" horiz-adv-x="747" 
d="M595 884l-133 -106h-92l-105 106l52 47l107 -83l130 83zM314 87q151 0 229 91.5t78 225.5t-55 183.5t-166 49.5h-92l-75 -550h81zM423 724q158 0 237.5 -78.5t79.5 -218.5q0 -188 -104 -307.5t-319 -119.5h-289l9 60l63 7q15 2 17 19l77 552q3 18 -13 20l-61 7l8 59h295z
" />
    <glyph glyph-name="dcaron" unicode="&#x10f;" horiz-adv-x="686" 
d="M640 678q0 40 -9 60l91 31q24 -27 24 -53q0 -52 -76 -174l-63 23q33 73 33 113zM320 437q-94 0 -127 -82t-33 -176t71 -94q59 0 160 106l29 200q-48 46 -100 46zM196 -12q-152 0 -152 193q0 121 56 233.5t198 112.5q72 0 135 -49l24 182q2 17 -10 21l-53 15l9 59h176
l-93 -669q-2 -12 0.5 -15.5t12.5 -4.5l48 -7l-8 -59h-165l12 85l-4 2q-50 -48 -92.5 -73.5t-93.5 -25.5z" />
    <glyph glyph-name="Dcroat" unicode="&#x110;" horiz-adv-x="760" 
d="M327 87q151 0 229 91.5t78 225.5t-55 183.5t-166 49.5h-92l-32 -236h170l-12 -88h-170l-31 -226h81zM436 724q158 0 237.5 -78.5t79.5 -218.5q0 -188 -104 -307.5t-319 -119.5h-289l9 60l63 7q15 2 17 19l31 227h-86l11 88h88l33 237q3 18 -13 20l-61 7l8 59h295z" />
    <glyph glyph-name="dcroat" unicode="&#x111;" horiz-adv-x="593" 
d="M316 417q-94 0 -125 -72.5t-31 -166.5q0 -93 74 -93q60 0 157 101l26 185q-49 46 -101 46zM196 -12q-152 0 -152 193q0 120 55 223t197 103q72 0 134 -49l13 101h-173l10 73h173l4 28q2 17 -10 21l-53 15l9 59h176l-17 -123h69l-10 -73h-69l-66 -473q-2 -12 0.5 -15.5
t12.5 -4.5l48 -7l-8 -59h-165l12 85l-4 2q-50 -48 -92.5 -73.5t-93.5 -25.5z" />
    <glyph glyph-name="Emacron" unicode="&#x112;" horiz-adv-x="617" 
d="M563 790h-311l11 82h311zM509 638h-201l-31 -230h249l-12 -87h-249l-32 -236h221q14 0 18 11l27 88h80l-25 -184h-525l7 59l63 7q11 2 14.5 5.5t4.5 14.5l76 551q2 12 -0.5 15.5t-12.5 4.5l-60 7l7 60h504l-25 -180l-80 4l-3 77q-1 13 -15 13z" />
    <glyph glyph-name="emacron" unicode="&#x113;" horiz-adv-x="492" 
d="M492 606h-311l12 82h311zM373 391q-1 49 -57 49t-96.5 -45t-53.5 -114q131 14 169 48t38 62zM245 -12q-202 0 -202 209q0 144 81.5 237t205.5 93q76 0 113 -33.5t37 -91.5q0 -162 -320 -199q0 -64 24 -95t88 -31t145 36l20 -80q-95 -45 -192 -45z" />
    <glyph glyph-name="Ebreve" unicode="&#x114;" horiz-adv-x="617" 
d="M402 782q-128 0 -144 123l66 22q16 -70 86 -70t106 71l63 -23q-49 -123 -177 -123zM509 638h-201l-31 -230h249l-12 -87h-249l-32 -236h221q14 0 18 11l27 88h80l-25 -184h-525l7 59l63 7q11 2 14.5 5.5t4.5 14.5l76 551q2 12 -0.5 15.5t-12.5 4.5l-60 7l7 60h504
l-25 -180l-80 4l-3 77q-1 13 -15 13z" />
    <glyph glyph-name="ebreve" unicode="&#x115;" horiz-adv-x="492" 
d="M328 572q-134 0 -150 135l66 24q16 -84 92 -84t118 84l62 -24q-54 -135 -188 -135zM373 391q-1 49 -57 49t-96.5 -45t-53.5 -114q131 14 169 48t38 62zM245 -12q-202 0 -202 209q0 144 81.5 237t205.5 93q76 0 113 -33.5t37 -91.5q0 -162 -320 -199q0 -64 24 -95t88 -31
t145 36l20 -80q-95 -45 -192 -45z" />
    <glyph glyph-name="Edotaccent" unicode="&#x116;" horiz-adv-x="617" 
d="M426 929q65 0 65 -61q0 -39 -22.5 -63t-58.5 -24q-70 0 -71 62q0 39 23.5 62.5t63.5 23.5zM509 638h-201l-31 -230h249l-12 -87h-249l-32 -236h221q14 0 18 11l27 88h80l-25 -184h-525l7 59l63 7q11 2 14.5 5.5t4.5 14.5l76 551q2 12 -0.5 15.5t-12.5 4.5l-60 7l7 60h504
l-25 -180l-80 4l-3 77q-1 13 -15 13z" />
    <glyph glyph-name="edotaccent" unicode="&#x117;" horiz-adv-x="492" 
d="M356 765q65 0 65 -61q0 -39 -23 -63t-58 -24q-69 0 -69 62q0 39 23 62.5t62 23.5zM373 391q-1 49 -57 49t-96.5 -45t-53.5 -114q131 14 169 48t38 62zM245 -12q-202 0 -202 209q0 144 81.5 237t205.5 93q76 0 113 -33.5t37 -91.5q0 -162 -320 -199q0 -64 24 -95t88 -31
t145 36l20 -80q-95 -45 -192 -45z" />
    <glyph glyph-name="Eogonek" unicode="&#x118;" horiz-adv-x="617" 
d="M419 -224q-86 0 -86 67q0 80 117 157h-421l7 59l63 7q11 2 14.5 5.5t4.5 14.5l76 551q2 12 -0.5 15.5t-12.5 4.5l-60 7l7 60h504l-25 -180l-80 4l-3 77q-1 13 -15 13h-201l-31 -230h249l-12 -87h-249l-32 -236h221q14 0 18 11l27 88h80l-25 -184q-44 -22 -82 -57t-38 -63
t24 -28t54 11l14 -63q-54 -24 -107 -24z" />
    <glyph glyph-name="eogonek" unicode="&#x119;" horiz-adv-x="492" 
d="M373 391q-1 49 -57 49t-96.5 -45t-53.5 -114q131 14 169 48t38 62zM259 -224q-86 0 -86 67q0 73 96 146q-8 -1 -24 -1q-202 0 -202 209q0 144 81.5 237t205.5 93q76 0 113 -33.5t37 -91.5q0 -162 -320 -199q0 -64 24 -95t88 -31t145 36l20 -80q-32 -16 -50 -28
q-113 -71 -113 -128q0 -25 24 -25t54 11l14 -63q-54 -24 -107 -24z" />
    <glyph glyph-name="Ecaron" unicode="&#x11a;" horiz-adv-x="617" 
d="M579 884l-133 -106h-92l-105 106l52 47l107 -83l130 83zM509 638h-201l-31 -230h249l-12 -87h-249l-32 -236h221q14 0 18 11l27 88h80l-25 -184h-525l7 59l63 7q11 2 14.5 5.5t4.5 14.5l76 551q2 12 -0.5 15.5t-12.5 4.5l-60 7l7 60h504l-25 -180l-80 4l-3 77
q-1 13 -15 13z" />
    <glyph glyph-name="ecaron" unicode="&#x11b;" horiz-adv-x="492" 
d="M518 704l-144 -125h-92l-106 125l54 44l106 -98l136 98zM373 391q-1 49 -57 49t-96.5 -45t-53.5 -114q131 14 169 48t38 62zM245 -12q-202 0 -202 209q0 144 81.5 237t205.5 93q76 0 113 -33.5t37 -91.5q0 -162 -320 -199q0 -64 24 -95t88 -31t145 36l20 -80
q-95 -45 -192 -45z" />
    <glyph glyph-name="Gcircumflex" unicode="&#x11c;" horiz-adv-x="716" 
d="M632 813l-52 -47l-107 83l-130 -83l-41 47l133 106h92zM181 310q0 -231 209 -231q72 0 118 13q13 6 15 18l22 157h-125l23 75h281l-9 -65l-41 -4q-17 -1 -18 -14l-31 -227q-96 -44 -254 -44t-234 84.5t-76 227.5q0 194 107.5 315.5t305.5 121.5q141 0 214 -56l-23 -171
l-83 7l-3 91q0 16 -11 19q-50 18 -111 18q-125 0 -200.5 -90.5t-75.5 -244.5z" />
    <glyph glyph-name="gcircumflex" unicode="&#x11d;" horiz-adv-x="578" 
d="M501 612l-55 -44l-107 98l-135 -98l-46 44l143 125h92zM319 437q-93 0 -126 -82t-33 -164q0 -106 71 -106q55 0 160 107l28 197q-48 48 -100 48zM196 -12q-152 0 -152 195q0 124 57 234t199 110q74 0 136 -57l17 47h102q-19 -78 -27 -133l-56 -411q-28 -196 -229 -196
q-64 0 -120.5 15.5t-84.5 32.5l39 77q18 -12 62.5 -26.5t98.5 -14.5q112 0 131 120l17 104l-4 2q-55 -51 -94.5 -75t-91.5 -24z" />
    <glyph glyph-name="Gbreve" unicode="&#x11e;" horiz-adv-x="716" 
d="M466 782q-128 0 -145 123l66 22q15 -70 86 -70t106 71l63 -23q-48 -123 -176 -123zM181 310q0 -231 209 -231q72 0 118 13q13 6 15 18l22 157h-125l23 75h281l-9 -65l-41 -4q-17 -1 -18 -14l-31 -227q-96 -44 -254 -44t-234 84.5t-76 227.5q0 194 107.5 315.5
t305.5 121.5q141 0 214 -56l-23 -171l-83 7l-3 91q0 16 -11 19q-50 18 -111 18q-125 0 -200.5 -90.5t-75.5 -244.5z" />
    <glyph glyph-name="gbreve" unicode="&#x11f;" horiz-adv-x="578" 
d="M330 572q-134 0 -149 135l66 24q17 -84 93 -84t117 84l62 -24q-55 -135 -189 -135zM319 437q-93 0 -126 -82t-33 -164q0 -106 71 -106q55 0 160 107l28 197q-48 48 -100 48zM196 -12q-152 0 -152 195q0 124 57 234t199 110q74 0 136 -57l17 47h102q-19 -78 -27 -133
l-56 -411q-28 -196 -229 -196q-64 0 -120.5 15.5t-84.5 32.5l39 77q18 -12 62.5 -26.5t98.5 -14.5q112 0 131 120l17 104l-4 2q-55 -51 -94.5 -75t-91.5 -24z" />
    <glyph glyph-name="Gdotaccent" unicode="&#x120;" horiz-adv-x="716" 
d="M489 929q65 0 65 -61q0 -39 -23 -63t-59 -24q-70 0 -70 62q0 39 23.5 62.5t63.5 23.5zM181 310q0 -231 209 -231q72 0 118 13q13 6 15 18l22 157h-125l23 75h281l-9 -65l-41 -4q-17 -1 -18 -14l-31 -227q-96 -44 -254 -44t-234 84.5t-76 227.5q0 194 107.5 315.5
t305.5 121.5q141 0 214 -56l-23 -171l-83 7l-3 91q0 16 -11 19q-50 18 -111 18q-125 0 -200.5 -90.5t-75.5 -244.5z" />
    <glyph glyph-name="gdotaccent" unicode="&#x121;" horiz-adv-x="578" 
d="M357 765q65 0 65 -61q0 -39 -23 -63t-58 -24q-69 0 -69 62q0 39 23 62.5t62 23.5zM319 437q-93 0 -126 -82t-33 -164q0 -106 71 -106q55 0 160 107l28 197q-48 48 -100 48zM196 -12q-152 0 -152 195q0 124 57 234t199 110q74 0 136 -57l17 47h102q-19 -78 -27 -133
l-56 -411q-28 -196 -229 -196q-64 0 -120.5 15.5t-84.5 32.5l39 77q18 -12 62.5 -26.5t98.5 -14.5q112 0 131 120l17 104l-4 2q-55 -51 -94.5 -75t-91.5 -24z" />
    <glyph glyph-name="Gcommaaccent" unicode="&#x122;" horiz-adv-x="716" 
d="M422 -112q0 -30 -27 -73l-61 -93l-50 17l34 91q3 8 -3 11l-34 14l33 87q54 -2 81 -13t27 -41zM181 310q0 -231 209 -231q72 0 118 13q13 6 15 18l22 157h-125l23 75h281l-9 -65l-41 -4q-17 -1 -18 -14l-31 -227q-96 -44 -254 -44t-234 84.5t-76 227.5q0 194 107.5 315.5
t305.5 121.5q141 0 214 -56l-23 -171l-83 7l-3 91q0 16 -11 19q-50 18 -111 18q-125 0 -200.5 -90.5t-75.5 -244.5z" />
    <glyph glyph-name="gcommaaccent" unicode="&#x123;" horiz-adv-x="578" 
d="M265 619q0 31 27 72l60 93l51 -17l-34 -91q-4 -8 3 -11l34 -14l-33 -87q-54 2 -81 13t-27 42zM319 437q-93 0 -126 -82t-33 -164q0 -106 71 -106q55 0 160 107l28 197q-48 48 -100 48zM196 -12q-152 0 -152 195q0 124 57 234t199 110q74 0 136 -57l17 47h102
q-19 -78 -27 -133l-56 -411q-28 -196 -229 -196q-64 0 -120.5 15.5t-84.5 32.5l39 77q18 -12 62.5 -26.5t98.5 -14.5q112 0 131 120l17 104l-4 2q-55 -51 -94.5 -75t-91.5 -24z" />
    <glyph glyph-name="Hcircumflex" unicode="&#x124;" horiz-adv-x="796" 
d="M652 813l-52 -47l-107 83l-130 -83l-41 47l133 106h92zM727 0h-273l8 59l62 7q11 2 14.5 5.5t4.5 14.5l34 243h-310l-34 -242q-2 -12 0 -15.5t12 -4.5l65 -8l-8 -59h-273l8 59l63 7q10 1 13 5t5 15l77 552q2 12 -0.5 15.5t-12.5 4.5l-60 7l7 59h274l-8 -59l-67 -8
q-11 -1 -13.5 -4t-4.5 -15l-30 -221h309l31 221q2 12 -0.5 15.5t-12.5 4.5l-61 7l8 59h273l-8 -59l-66 -8q-11 -1 -13.5 -4t-4.5 -15l-77 -551q-2 -12 0 -15.5t12 -4.5l65 -8z" />
    <glyph glyph-name="hcircumflex" unicode="&#x125;" horiz-adv-x="619" 
d="M392 833l-52 -47l-107 83l-130 -83l-41 47l133 106h92zM441 376q0 50 -42 50q-58 0 -168 -95l-34 -244q-2 -12 0 -15.5t13 -4.5l59 -8l-9 -59h-249l9 60l46 7q11 2 14.5 5t4.5 15l80 572q3 18 -9 21l-52 16l8 59h176l-43 -319q111 91 196 91q112 0 115 -115q0 -34 -4 -62
l-38 -263q-2 -12 0.5 -15.5t13.5 -4.5l53 -8l-9 -59h-184l-2 3l19 104l32 220q4 32 4 49z" />
    <glyph glyph-name="Hbar" unicode="&#x126;" horiz-adv-x="796" 
d="M280 417h309l13 93h-310zM727 0h-273l8 59l62 7q11 2 14.5 5.5t4.5 14.5l34 243h-310l-34 -242q-2 -12 0 -15.5t12 -4.5l65 -8l-8 -59h-273l8 59l63 7q10 1 13 5t5 15l59 424h-69l9 63h69l9 65q2 12 -0.5 15.5t-12.5 4.5l-60 7l7 59h274l-8 -59l-67 -8q-11 -1 -13.5 -4
t-4.5 -15l-9 -65h310l9 65q2 12 -0.5 15.5t-12.5 4.5l-61 7l8 59h273l-8 -59l-66 -8q-11 -1 -13.5 -4t-4.5 -15l-9 -65h70l-9 -63h-70l-59 -423q-2 -12 0 -15.5t12 -4.5l65 -8z" />
    <glyph glyph-name="hbar" unicode="&#x127;" horiz-adv-x="617" 
d="M438 356q0 50 -42 50q-58 0 -168 -95l-31 -224q-2 -12 0 -15.5t13 -4.5l59 -8l-9 -59h-249l9 60l46 7q11 2 14.5 5t4.5 15l66 473h-65l10 72h65l4 27q3 18 -9 21l-52 16l8 59h176l-17 -123h176l-10 -72h-176l-19 -144q111 91 196 91q112 0 115 -115q0 -34 -4 -62
l-35 -243q-2 -12 0.5 -15.5t13.5 -4.5l53 -8l-9 -59h-184l-2 3l19 104l29 200q4 32 4 49z" />
    <glyph glyph-name="Itilde" unicode="&#x128;" horiz-adv-x="371" 
d="M192 903q30 0 93 -17t75 -17t15 4l34 34l50 -34l-29 -38q-41 -54 -66 -54q-26 0 -66 10l-99 27q-11 3 -17 -3l-41 -36l-46 33l35 48q32 43 62 43zM313 0h-293l7 59l73 7q10 1 13 4.5t5 15.5l77 552q2 12 -0.5 15.5t-12.5 4.5l-70 7l8 59h292l-7 -59l-77 -8q-11 -2 -14 -5
t-4 -14l-77 -551q-4 -15 0.5 -17t11.5 -3l75 -8z" />
    <glyph glyph-name="itilde" unicode="&#x129;" horiz-adv-x="304" 
d="M257 0h-187l-3 5l23 122l41 294q3 17 -10 21l-52 16l9 59h180l-61 -430q-2 -12 0.5 -15.5t13.5 -4.5l54 -8zM252 575q-21 -1 -84 19q-64 20 -70 22t-14 -6l-41 -36l-44 32l36 47q35 45 61 45t50 -7t55.5 -18t39.5 -13t16 5l37 35l48 -33l-28 -38q-41 -54 -62 -54z" />
    <glyph glyph-name="Imacron" unicode="&#x12a;" horiz-adv-x="371" 
d="M432 790h-311l11 82h311zM313 0h-293l7 59l73 7q10 1 13 4.5t5 15.5l77 552q2 12 -0.5 15.5t-12.5 4.5l-70 7l8 59h292l-7 -59l-77 -8q-11 -2 -14 -5t-4 -14l-77 -551q-4 -15 0.5 -17t11.5 -3l75 -8z" />
    <glyph glyph-name="imacron" unicode="&#x12b;" horiz-adv-x="304" 
d="M257 0h-187l-3 5l23 122l41 294q3 17 -10 21l-52 16l9 59h180l-61 -430q-2 -12 0.5 -15.5t13.5 -4.5l54 -8zM326 596h-291l12 82h291z" />
    <glyph glyph-name="Ibreve" unicode="&#x12c;" horiz-adv-x="371" 
d="M272 782q-128 0 -145 123l66 22q15 -70 86 -70t106 71l63 -23q-48 -123 -176 -123zM313 0h-293l7 59l73 7q10 1 13 4.5t5 15.5l77 552q2 12 -0.5 15.5t-12.5 4.5l-70 7l8 59h292l-7 -59l-77 -8q-11 -2 -14 -5t-4 -14l-77 -551q-4 -15 0.5 -17t11.5 -3l75 -8z" />
    <glyph glyph-name="ibreve" unicode="&#x12d;" horiz-adv-x="304" 
d="M257 0h-187l-3 5l23 122l41 294q3 17 -10 21l-52 16l9 59h180l-61 -430q-2 -12 0.5 -15.5t13.5 -4.5l54 -8zM183 643q35 0 58 19.5t44 64.5l62 -24q-51 -135 -173 -135t-137 135l66 24q15 -84 80 -84z" />
    <glyph glyph-name="Iogonek" unicode="&#x12e;" horiz-adv-x="371" 
d="M121 -224q-86 0 -86 67q0 77 111 157h-126l7 59l73 7q10 1 13 4.5t5 15.5l77 552q2 12 -0.5 15.5t-12.5 4.5l-70 7l8 59h292l-7 -59l-77 -8q-11 -2 -14 -5t-4 -14l-77 -551q-4 -15 0.5 -17t11.5 -3l75 -8l-7 -59h-81q-96 -75 -96 -123q0 -25 24 -25t54 11l14 -63
q-54 -24 -107 -24z" />
    <glyph glyph-name="iogonek" unicode="&#x12f;" horiz-adv-x="304" 
d="M220 763q65 0 65 -61q0 -39 -23 -63t-58 -24q-69 0 -69 62q0 39 23 62.5t62 23.5zM131 -224q-86 0 -86 67q0 77 111 157h-86l-3 5l23 122l41 294q3 17 -10 21l-52 16l9 59h180l-61 -430q-2 -12 0.5 -15.5t13.5 -4.5l54 -8l-8 -59q-41 -22 -76 -58t-35 -63t24 -27t54 11
l14 -63q-54 -24 -107 -24z" />
    <glyph glyph-name="Idotaccent" unicode="&#x130;" horiz-adv-x="371" 
d="M295 929q65 0 65 -61q0 -39 -23 -63t-59 -24q-70 0 -70 62q0 39 23.5 62.5t63.5 23.5zM313 0h-293l7 59l73 7q10 1 13 4.5t5 15.5l77 552q2 12 -0.5 15.5t-12.5 4.5l-70 7l8 59h292l-7 -59l-77 -8q-11 -2 -14 -5t-4 -14l-77 -551q-4 -15 0.5 -17t11.5 -3l75 -8z" />
    <glyph glyph-name="dotlessi" unicode="&#x131;" horiz-adv-x="304" 
d="M257 0h-187l-3 5l23 122l41 294q3 17 -10 21l-52 16l9 59h180l-61 -430q-2 -12 0.5 -15.5t13.5 -4.5l54 -8z" />
    <glyph glyph-name="IJ" unicode="&#x132;" horiz-adv-x="862" 
d="M493 103q1 -25 53 -25t68.5 18.5t21.5 60.5l67 482q3 17 -13 18l-85 8l8 59h298l-8 -59l-67 -8q-11 -2 -14 -5t-4 -14l-68 -485q-23 -165 -166 -165t-192 37l20 154l81 -6v-70zM313 0h-293l7 59l73 7q10 1 13 4.5t5 15.5l77 552q2 12 -0.5 15.5t-12.5 4.5l-70 7l8 59h292
l-7 -59l-77 -8q-11 -2 -14 -5t-4 -14l-77 -551q-4 -15 0.5 -17t11.5 -3l75 -8z" />
    <glyph glyph-name="ij" unicode="&#x133;" horiz-adv-x="601" 
d="M525 763q65 0 65 -61q0 -39 -23.5 -63t-62.5 -24q-65 0 -65 62q0 39 23 62.5t63 23.5zM321 -223q-62 0 -101.5 16t-54.5 31l42 67q45 -28 83 -28t55 22t25 76l65 460q1 17 -10 21l-55 16l9 59h181l-80 -577q-12 -85 -54.5 -124t-104.5 -39zM257 0h-187l-3 5l23 122
l41 294q3 17 -10 21l-52 16l9 59h180l-61 -430q-2 -12 0.5 -15.5t13.5 -4.5l54 -8zM220 763q65 0 65 -61q0 -39 -23 -63t-58 -24q-69 0 -69 62q0 39 23 62.5t62 23.5z" />
    <glyph glyph-name="Jcircumflex" unicode="&#x134;" horiz-adv-x="491" 
d="M573 813l-52 -47l-107 83l-130 -83l-41 47l133 106h92zM122 103q0 -25 52 -25t69 18.5t22 60.5l67 482q3 17 -13 18l-85 8l8 59h298l-8 -59l-67 -8q-11 -2 -14 -5t-4 -14l-68 -485q-23 -165 -166 -165t-192 37l20 154l81 -6v-70z" />
    <glyph glyph-name="jcircumflex" unicode="&#x135;" horiz-adv-x="298" 
d="M343 610l-55 -44l-107 98l-135 -98l-46 44l143 125h92zM18 -223q-62 0 -102 16t-55 31l43 67q44 -28 82 -28t55 22t25 76l66 460q1 17 -10 21l-55 16l9 59h181l-80 -577q-12 -85 -54.5 -124t-104.5 -39z" />
    <glyph glyph-name="Kcommaaccent" unicode="&#x136;" horiz-adv-x="723" 
d="M406 -112q0 -30 -27 -73l-61 -93l-50 17l34 91q3 8 -3 11l-34 14l33 87q54 -2 81 -13t27 -41zM689 0h-163l-5 5l-55 109l-121 213l-91 -91l-22 -149q-2 -12 0.5 -15.5t12.5 -4.5l67 -8l-9 -59h-273l8 59l61 7q13 2 15.5 7t3.5 14l77 551q2 12 -0.5 15.5t-12.5 4.5l-60 7
l8 59h273l-8 -59l-67 -8q-11 -1 -13.5 -4.5t-4.5 -14.5l-40 -275l296 293l-57 8l8 60h235l-8 -59l-47 -9q-19 -3 -33 -16l-234 -231l180 -322q7 -14 26 -18l61 -10z" />
    <glyph glyph-name="kcommaaccent" unicode="&#x137;" horiz-adv-x="592" 
d="M338 -112q0 -30 -27 -73l-61 -93l-50 17l34 91q3 8 -3 11l-34 14l33 87q54 -2 81 -13t27 -41zM530 527q32 0 52 -5l-9 -71q-57 4 -105 -43l-75 -72l96 -252q6 -14 27 -17l50 -9l-8 -58h-161l-3 3l-34 104l-63 158l-85 -80l-14 -98q-2 -12 0 -15.5t13 -4.5l58 -8l-8 -59
h-250l8 60l48 7q10 1 13 5t5 15l81 573q1 16 -10 20l-53 16l9 59h180l-64 -456l184 175q57 53 118 53z" />
    <glyph glyph-name="kgreenlandic" unicode="&#x138;" horiz-adv-x="592" 
d="M530 527q32 0 52 -5l-9 -71q-57 4 -105 -43l-75 -72l96 -252q6 -14 27 -17l50 -9l-8 -58h-161l-3 3l-34 104l-63 158l-85 -80l-14 -98q-2 -12 0 -15.5t13 -4.5l58 -8l-8 -59h-250l8 60l48 7q10 1 13 5t5 15l48 335q1 16 -10 20l-53 16l9 59h180l-31 -218l184 175
q57 53 118 53z" />
    <glyph glyph-name="Lacute" unicode="&#x139;" horiz-adv-x="603" 
d="M410 861l-219 -95l-28 58l207 123zM454 85q14 0 18 11l29 95h80l-26 -191h-525l7 59l62 7q11 2 14.5 5.5t4.5 14.5l77 551q2 12 -0.5 15.5t-12.5 4.5l-60 7l7 60h289l-7 -60l-83 -8q-11 -1 -13.5 -4.5t-4.5 -14.5l-78 -552h222z" />
    <glyph glyph-name="lacute" unicode="&#x13a;" horiz-adv-x="304" 
d="M346 881l-219 -95l-28 58l207 123zM254 0h-187l-3 5l23 122l75 533q3 17 -11 21l-51 15l8 59h180l-93 -668q-2 -12 0.5 -15.5t13.5 -4.5l53 -8z" />
    <glyph glyph-name="Lcommaaccent" unicode="&#x13b;" horiz-adv-x="603" 
d="M350 -112q0 -30 -27 -73l-61 -93l-50 17l34 91q3 8 -3 11l-34 14l33 87q54 -2 81 -13t27 -41zM454 85q14 0 18 11l29 95h80l-26 -191h-525l7 59l62 7q11 2 14.5 5.5t4.5 14.5l77 551q2 12 -0.5 15.5t-12.5 4.5l-60 7l7 60h289l-7 -60l-83 -8q-11 -1 -13.5 -4.5
t-4.5 -14.5l-78 -552h222z" />
    <glyph glyph-name="lcommaaccent" unicode="&#x13c;" horiz-adv-x="304" 
d="M208 -112q0 -30 -27 -73l-61 -93l-50 17l34 91q3 8 -3 11l-34 14l33 87q54 -2 81 -13t27 -41zM254 0h-187l-3 5l23 122l75 533q3 17 -11 21l-51 15l8 59h180l-93 -668q-2 -12 0.5 -15.5t13.5 -4.5l53 -8z" />
    <glyph glyph-name="Lcaron" unicode="&#x13d;" horiz-adv-x="603" 
d="M486 650q0 40 -9 59l91 31q24 -26 24 -52q0 -52 -76 -175l-63 23q33 74 33 114zM454 85q14 0 18 11l29 95h80l-26 -191h-525l7 59l62 7q11 2 14.5 5.5t4.5 14.5l77 551q2 12 -0.5 15.5t-12.5 4.5l-60 7l7 60h289l-7 -60l-83 -8q-11 -1 -13.5 -4.5t-4.5 -14.5l-78 -552
h222z" />
    <glyph glyph-name="lcaron" unicode="&#x13e;" horiz-adv-x="379" 
d="M348 678q0 40 -9 59l91 31q24 -26 24 -52q0 -52 -76 -175l-63 23q33 74 33 114zM254 0h-187l-3 5l23 122l75 533q3 17 -11 21l-51 15l8 59h180l-93 -668q-2 -12 0.5 -15.5t13.5 -4.5l53 -8z" />
    <glyph glyph-name="Ldot" unicode="&#x13f;" horiz-adv-x="603" 
d="M516 483q65 0 65 -61q0 -39 -22.5 -63t-58.5 -24q-70 0 -71 62q0 39 23.5 62.5t63.5 23.5zM454 85q14 0 18 11l29 95h80l-26 -191h-525l7 59l62 7q11 2 14.5 5.5t4.5 14.5l77 551q2 12 -0.5 15.5t-12.5 4.5l-60 7l7 60h289l-7 -60l-83 -8q-11 -1 -13.5 -4.5t-4.5 -14.5
l-78 -552h222z" />
    <glyph glyph-name="ldot" unicode="&#x140;" horiz-adv-x="401" 
d="M391 458q65 0 65 -61q0 -39 -23 -63t-58 -24q-69 0 -69 62q0 39 23 62.5t62 23.5zM254 0h-187l-3 5l23 122l75 533q3 17 -11 21l-51 15l8 59h180l-93 -668q-2 -12 0.5 -15.5t13.5 -4.5l53 -8z" />
    <glyph glyph-name="Lslash" unicode="&#x141;" horiz-adv-x="597" 
d="M454 85q14 0 18 11l29 95h80l-26 -191h-525l7 59l62 7q11 2 14.5 5.5t4.5 14.5l29 204l-103 -40l12 88l103 40l36 259q2 12 -0.5 15.5t-12.5 4.5l-60 7l7 60h289l-7 -60l-83 -8q-11 -1 -13.5 -4.5t-4.5 -14.5l-32 -223l215 84l-13 -89l-214 -84l-34 -240h222z" />
    <glyph glyph-name="lslash" unicode="&#x142;" horiz-adv-x="309" 
d="M254 0h-187l-3 5l23 122l28 198l-80 -35l12 91l81 35l34 244q3 17 -11 21l-51 15l8 59h180l-43 -306l86 37l-12 -90l-86 -38l-38 -271q-2 -12 0.5 -15.5t13.5 -4.5l53 -8z" />
    <glyph glyph-name="Nacute" unicode="&#x143;" horiz-adv-x="814" 
d="M650 861l-219 -95l-28 58l207 123zM666 0h-126l-261 577l-68 -490q-2 -12 0 -15.5t13 -4.5l64 -8l-6 -59h-252l6 59l63 7q11 2 14.5 5.5t4.5 14.5l77 552q2 12 -0.5 15.5t-12.5 4.5l-60 7l7 59h211l256 -575l67 489q2 12 -0.5 15.5t-12.5 4.5l-61 7l8 59h251l-8 -59
l-67 -8q-11 -2 -14 -5t-4 -14z" />
    <glyph glyph-name="nacute" unicode="&#x144;" horiz-adv-x="620" 
d="M517 699l-186 -135l-43 49l165 158zM441 375q0 51 -39 51q-63 0 -169 -95l-34 -244q-2 -12 0.5 -15.5t13.5 -4.5l57 -8l-8 -59h-249l8 60l46 7q11 2 14.5 5.5t4.5 14.5l46 333q3 16 -9 21l-52 17l8 59h171l-12 -88q57 48 102.5 73t99.5 25q117 0 117 -122q0 -24 -5 -59
l-37 -259q-2 -12 0 -15.5t13 -4.5l54 -8l-8 -59h-186l-2 3l21 120l28 188q6 42 6 64z" />
    <glyph glyph-name="Ncommaaccent" unicode="&#x145;" horiz-adv-x="814" 
d="M441 -112q0 -30 -27 -73l-61 -93l-50 17l34 91q3 8 -3 11l-34 14l33 87q54 -2 81 -13t27 -41zM666 0h-126l-261 577l-68 -490q-2 -12 0 -15.5t13 -4.5l64 -8l-6 -59h-252l6 59l63 7q11 2 14.5 5.5t4.5 14.5l77 552q2 12 -0.5 15.5t-12.5 4.5l-60 7l7 59h211l256 -575
l67 489q2 12 -0.5 15.5t-12.5 4.5l-61 7l8 59h251l-8 -59l-67 -8q-11 -2 -14 -5t-4 -14z" />
    <glyph glyph-name="ncommaaccent" unicode="&#x146;" horiz-adv-x="620" 
d="M353 -112q0 -30 -27 -73l-61 -93l-50 17l34 91q3 8 -3 11l-34 14l33 87q54 -2 81 -13t27 -41zM441 375q0 51 -39 51q-63 0 -169 -95l-34 -244q-2 -12 0.5 -15.5t13.5 -4.5l57 -8l-8 -59h-249l8 60l46 7q11 2 14.5 5.5t4.5 14.5l46 333q3 16 -9 21l-52 17l8 59h171
l-12 -88q57 48 102.5 73t99.5 25q117 0 117 -122q0 -24 -5 -59l-37 -259q-2 -12 0 -15.5t13 -4.5l54 -8l-8 -59h-186l-2 3l21 120l28 188q6 42 6 64z" />
    <glyph glyph-name="Ncaron" unicode="&#x147;" horiz-adv-x="814" 
d="M676 884l-133 -106h-92l-105 106l52 47l107 -83l130 83zM666 0h-126l-261 577l-68 -490q-2 -12 0 -15.5t13 -4.5l64 -8l-6 -59h-252l6 59l63 7q11 2 14.5 5.5t4.5 14.5l77 552q2 12 -0.5 15.5t-12.5 4.5l-60 7l7 59h211l256 -575l67 489q2 12 -0.5 15.5t-12.5 4.5l-61 7
l8 59h251l-8 -59l-67 -8q-11 -2 -14 -5t-4 -14z" />
    <glyph glyph-name="ncaron" unicode="&#x148;" horiz-adv-x="620" 
d="M561 704l-144 -125h-92l-106 125l54 44l106 -98l136 98zM441 375q0 51 -39 51q-63 0 -169 -95l-34 -244q-2 -12 0.5 -15.5t13.5 -4.5l57 -8l-8 -59h-249l8 60l46 7q11 2 14.5 5.5t4.5 14.5l46 333q3 16 -9 21l-52 17l8 59h171l-12 -88q57 48 102.5 73t99.5 25
q117 0 117 -122q0 -24 -5 -59l-37 -259q-2 -12 0 -15.5t13 -4.5l54 -8l-8 -59h-186l-2 3l21 120l28 188q6 42 6 64z" />
    <glyph glyph-name="napostrophe" unicode="&#x149;" horiz-adv-x="642" 
d="M120 640q0 -24 -19 -54l-55 -84l-40 16l32 76q2 7 -2 10l-28 10l27 69q42 -1 63.5 -10t21.5 -33zM463 375q0 51 -39 51q-63 0 -169 -95l-34 -244q-2 -12 0.5 -15.5t13.5 -4.5l57 -8l-8 -59h-249l8 60l46 7q11 2 14.5 5.5t4.5 14.5l46 333q3 16 -9 21l-52 17l8 59h171
l-12 -88q57 48 102.5 73t99.5 25q117 0 117 -122q0 -24 -5 -59l-37 -259q-2 -12 0 -15.5t13 -4.5l54 -8l-8 -59h-186l-2 3l21 120l28 188q6 42 6 64z" />
    <glyph glyph-name="Eng" unicode="&#x14a;" horiz-adv-x="814" 
d="M469 -223q-51 0 -97 17t-60 32l43 67q13 -10 43 -20t57 -10q79 0 92 98l5 40l-273 576l-68 -490q-2 -12 0 -15.5t13 -4.5l64 -8l-6 -59h-252l6 59l63 7q16 1 19 21l77 551q2 12 -0.5 15.5t-12.5 4.5l-60 7l7 59h211l258 -559l65 473q2 12 -0.5 15.5t-12.5 4.5l-61 7l8 59
h251l-8 -59l-67 -8q-15 -2 -18 -20l-95 -679q-4 -32 -14 -59q-34 -122 -177 -122z" />
    <glyph glyph-name="eng" unicode="&#x14b;" horiz-adv-x="619" 
d="M402 425q-40 0 -77.5 -22.5t-92.5 -71.5l-33 -244q-2 -13 0 -16t13 -4l56 -8l-8 -59h-247l8 60l46 7q11 2 14.5 5.5t4.5 14.5l46 333q3 18 -9 21l-52 17l8 59h171l-13 -92q39 33 60.5 49t63 34.5t79.5 18.5q139 0 113 -177l-58 -410q-12 -81 -55.5 -126.5t-134.5 -34.5
q-90 10 -125 45l43 67q44 -28 82 -28t55 22t25 76l51 366q4 32 4 41q2 57 -38 57z" />
    <glyph glyph-name="Omacron" unicode="&#x14c;" horiz-adv-x="754" 
d="M624 790h-311l11 82h311zM367 85q221 0 260 273q5 32 5 71q0 101 -48 156t-144 55t-166 -68.5t-89 -202.5q-6 -41 -6 -74q0 -210 188 -210zM362 -12q-159 0 -231.5 78.5t-72.5 215.5q0 223 119 339t275 116t228.5 -81.5t72.5 -213.5q0 -42 -5 -75q-25 -180 -126 -279.5
t-260 -99.5z" />
    <glyph glyph-name="omacron" unicode="&#x14d;" horiz-adv-x="567" 
d="M505 606h-311l12 82h311zM269 71q71 0 114.5 61.5t43.5 184.5t-106 123q-72 0 -116.5 -59t-44.5 -185t109 -125zM274 -12q-230 0 -231 211q0 147 76.5 237.5t200.5 90.5q224 0 225 -210q0 -152 -73.5 -240.5t-197.5 -88.5z" />
    <glyph glyph-name="Obreve" unicode="&#x14e;" horiz-adv-x="754" 
d="M464 782q-128 0 -145 123l66 22q15 -70 86 -70t106 71l63 -23q-48 -123 -176 -123zM367 85q221 0 260 273q5 32 5 71q0 101 -48 156t-144 55t-166 -68.5t-89 -202.5q-6 -41 -6 -74q0 -210 188 -210zM362 -12q-159 0 -231.5 78.5t-72.5 215.5q0 223 119 339t275 116
t228.5 -81.5t72.5 -213.5q0 -42 -5 -75q-25 -180 -126 -279.5t-260 -99.5z" />
    <glyph glyph-name="obreve" unicode="&#x14f;" horiz-adv-x="567" 
d="M340 572q-134 0 -149 135l66 24q17 -84 93 -84t117 84l62 -24q-55 -135 -189 -135zM269 71q71 0 114.5 61.5t43.5 184.5t-106 123q-72 0 -116.5 -59t-44.5 -185t109 -125zM274 -12q-230 0 -231 211q0 147 76.5 237.5t200.5 90.5q224 0 225 -210q0 -152 -73.5 -240.5
t-197.5 -88.5z" />
    <glyph glyph-name="Ohungarumlaut" unicode="&#x150;" horiz-adv-x="754" 
d="M723 905l-187 -143l-40 43l167 166zM544 913l-181 -151l-44 43l161 173zM367 85q221 0 260 273q5 32 5 71q0 101 -48 156t-144 55t-166 -68.5t-89 -202.5q-6 -41 -6 -74q0 -210 188 -210zM362 -12q-159 0 -231.5 78.5t-72.5 215.5q0 223 119 339t275 116t228.5 -81.5
t72.5 -213.5q0 -42 -5 -75q-25 -180 -126 -279.5t-260 -99.5z" />
    <glyph glyph-name="ohungarumlaut" unicode="&#x151;" horiz-adv-x="567" 
d="M593 719l-179 -154l-45 41l156 175zM413 719l-179 -154l-45 41l156 175zM269 71q71 0 114.5 61.5t43.5 184.5t-106 123q-72 0 -116.5 -59t-44.5 -185t109 -125zM274 -12q-230 0 -231 211q0 147 76.5 237.5t200.5 90.5q224 0 225 -210q0 -152 -73.5 -240.5t-197.5 -88.5z
" />
    <glyph glyph-name="OE" unicode="&#x152;" horiz-adv-x="993" 
d="M178 306q0 -223 186 -223q96 0 157 85.5t61 253.5q0 220 -165 220q-105 0 -172 -87.5t-67 -248.5zM694 408h208l-13 -87h-201q-24 -155 -112 -236h254q13 0 17 13l28 86h80l-25 -184h-496q-46 -12 -97 -12q-137 0 -207.5 85t-70.5 228q0 191 99.5 313.5t271.5 122.5
q54 0 101 -13h477l-25 -180l-80 4l-3 77q0 13 -16 13h-250q60 -71 60 -230z" />
    <glyph glyph-name="oe" unicode="&#x153;" horiz-adv-x="860" 
d="M742 391q0 49 -57 49t-97.5 -45t-53.5 -114q208 26 208 110zM265 71q74 0 118 61.5t44 152.5t-29.5 123t-89.5 32t-104 -59t-44 -185t105 -125zM700 527q148 1 148 -129q0 -62 -46 -101q-81 -67 -274 -91q1 -65 25 -97t88 -32t145 36l19 -80q-90 -45 -185 -45
q-125 0 -167 95q-71 -95 -189 -95t-169.5 57.5t-51.5 156.5q0 143 75.5 234t203.5 91q70 0 115.5 -29.5t63.5 -76.5q77 106 199 106z" />
    <glyph glyph-name="Racute" unicode="&#x154;" horiz-adv-x="665" 
d="M526 861l-219 -95l-28 58l207 123zM345 389q177 0 177 147q0 57 -35 79t-113 22h-66l-33 -248h70zM346 304h-83l-31 -217q-2 -12 0 -15.5t12 -4.5l63 -8l-8 -59h-269l8 59l62 7q10 1 13 5t5 16l77 550q2 12 -0.5 15.5t-12.5 4.5l-60 7l7 60h308q108 0 156.5 -48.5
t48.5 -126.5q0 -155 -163 -217q21 -10 30 -30.5t19 -62.5l35 -148q5 -20 23 -22l64 -10l-8 -59h-175l-6 7l-60 254q-9 43 -55 43z" />
    <glyph glyph-name="racute" unicode="&#x155;" horiz-adv-x="450" 
d="M432 699l-186 -135l-43 49l165 158zM396 527q42 0 73 -9l-22 -164l-88 4l-3 62q0 10 -8 10q-36 0 -113 -85l-35 -258q-2 -12 0.5 -15.5t13.5 -4.5l91 -8l-8 -59h-284l8 60l48 6q15 2 18 20l46 334q2 17 -10 21l-52 17l8 59h169l-13 -96q31 43 75 74.5t86 31.5z" />
    <glyph glyph-name="Rcommaaccent" unicode="&#x156;" horiz-adv-x="665" 
d="M398 -112q0 -30 -27 -73l-61 -93l-50 17l34 91q3 8 -3 11l-34 14l33 87q54 -2 81 -13t27 -41zM345 389q177 0 177 147q0 57 -35 79t-113 22h-66l-33 -248h70zM346 304h-83l-31 -217q-2 -12 0 -15.5t12 -4.5l63 -8l-8 -59h-269l8 59l62 7q10 1 13 5t5 16l77 550
q2 12 -0.5 15.5t-12.5 4.5l-60 7l7 60h308q108 0 156.5 -48.5t48.5 -126.5q0 -155 -163 -217q21 -10 30 -30.5t19 -62.5l35 -148q5 -20 23 -22l64 -10l-8 -59h-175l-6 7l-60 254q-9 43 -55 43z" />
    <glyph glyph-name="rcommaaccent" unicode="&#x157;" horiz-adv-x="450" 
d="M198 -112q0 -30 -27 -73l-61 -93l-50 17l34 91q3 8 -3 11l-34 14l33 87q54 -2 81 -13t27 -41zM396 527q42 0 73 -9l-22 -164l-88 4l-3 62q0 10 -8 10q-36 0 -113 -85l-35 -258q-2 -12 0.5 -15.5t13.5 -4.5l91 -8l-8 -59h-284l8 60l48 6q15 2 18 20l46 334q2 17 -10 21
l-52 17l8 59h169l-13 -96q31 43 75 74.5t86 31.5z" />
    <glyph glyph-name="Rcaron" unicode="&#x158;" horiz-adv-x="665" 
d="M566 884l-133 -106h-92l-105 106l52 47l107 -83l130 83zM345 389q177 0 177 147q0 57 -35 79t-113 22h-66l-33 -248h70zM346 304h-83l-31 -217q-2 -12 0 -15.5t12 -4.5l63 -8l-8 -59h-269l8 59l62 7q10 1 13 5t5 16l77 550q2 12 -0.5 15.5t-12.5 4.5l-60 7l7 60h308
q108 0 156.5 -48.5t48.5 -126.5q0 -155 -163 -217q21 -10 30 -30.5t19 -62.5l35 -148q5 -20 23 -22l64 -10l-8 -59h-175l-6 7l-60 254q-9 43 -55 43z" />
    <glyph glyph-name="rcaron" unicode="&#x159;" horiz-adv-x="450" 
d="M490 704l-144 -125h-92l-106 125l54 44l106 -98l136 98zM396 527q42 0 73 -9l-22 -164l-88 4l-3 62q0 10 -8 10q-36 0 -113 -85l-35 -258q-2 -12 0.5 -15.5t13.5 -4.5l91 -8l-8 -59h-284l8 60l48 6q15 2 18 20l46 334q2 17 -10 21l-52 17l8 59h169l-13 -96q31 43 75 74.5
t86 31.5z" />
    <glyph glyph-name="Sacute" unicode="&#x15a;" horiz-adv-x="572" 
d="M529 861l-219 -95l-28 58l207 123zM378 645q-56 0 -102.5 -29.5t-46.5 -80.5t34.5 -74t80.5 -39q46 -17 118.5 -47t72.5 -150t-81.5 -178.5t-211.5 -58.5q-63 0 -125 12.5t-89 26.5l24 176h84l7 -93q3 -18 27 -26q24 -7 93 -7t111.5 32.5t42.5 86.5t-31.5 80t-78.5 42
t-53.5 18.5t-34 14t-54.5 33.5t-40.5 52.5t-13.5 73.5q0 111 80.5 169t192.5 58t197 -38l-25 -180l-84 8l-3 89q0 17 -18 23q-17 6 -73 6z" />
    <glyph glyph-name="sacute" unicode="&#x15b;" horiz-adv-x="462" 
d="M428 699l-186 -135l-43 49l165 158zM218 65q96 0 97 70q-1 49 -81 75q-103 33 -131 67t-28 86q0 81 62.5 122.5t157.5 41.5t157 -28l-18 -137l-80 4l-3 58q-1 13 -11 17q-25 9 -64 9q-94 0 -94 -66q0 -33 29 -47.5t59 -25.5t90.5 -35t60.5 -113q0 -90 -62.5 -132.5
t-138.5 -42.5t-129 11.5t-70 22.5l19 137l79 -5l3 -62q0 -27 96 -27z" />
    <glyph glyph-name="Scircumflex" unicode="&#x15c;" horiz-adv-x="572" 
d="M559 813l-52 -47l-107 83l-130 -83l-41 47l133 106h92zM378 645q-56 0 -102.5 -29.5t-46.5 -80.5t34.5 -74t80.5 -39q46 -17 118.5 -47t72.5 -150t-81.5 -178.5t-211.5 -58.5q-63 0 -125 12.5t-89 26.5l24 176h84l7 -93q3 -18 27 -26q24 -7 93 -7t111.5 32.5t42.5 86.5
t-31.5 80t-78.5 42t-53.5 18.5t-34 14t-54.5 33.5t-40.5 52.5t-13.5 73.5q0 111 80.5 169t192.5 58t197 -38l-25 -180l-84 8l-3 89q0 17 -18 23q-17 6 -73 6z" />
    <glyph glyph-name="scircumflex" unicode="&#x15d;" horiz-adv-x="462" 
d="M466 612l-55 -44l-107 98l-135 -98l-46 44l143 125h92zM218 65q96 0 97 70q-1 49 -81 75q-103 33 -131 67t-28 86q0 81 62.5 122.5t157.5 41.5t157 -28l-18 -137l-80 4l-3 58q-1 13 -11 17q-25 9 -64 9q-94 0 -94 -66q0 -33 29 -47.5t59 -25.5t90.5 -35t60.5 -113
q0 -90 -62.5 -132.5t-138.5 -42.5t-129 11.5t-70 22.5l19 137l79 -5l3 -62q0 -27 96 -27z" />
    <glyph glyph-name="Scedilla" unicode="&#x15e;" horiz-adv-x="572" 
d="M195 -181q71 0 71 51q0 40 -63 42l21 76q-132 4 -196 39l24 176h84l7 -93q3 -18 27 -26q24 -7 93 -7t111.5 32.5t42.5 86.5t-31.5 80t-78.5 42t-53.5 18.5t-34 14t-54.5 33.5t-40.5 52.5t-13.5 73.5q0 111 80.5 169t192.5 58t197 -38l-25 -180l-84 8l-3 89q0 17 -18 23
q-17 6 -73 6t-102.5 -29.5t-46.5 -80.5t34.5 -74t80.5 -39q46 -17 118.5 -47t72.5 -144q0 -115 -67.5 -173t-178.5 -68l-10 -35q67 -19 67 -78t-41.5 -90t-88.5 -31t-71 8l14 59q14 -4 36 -4z" />
    <glyph glyph-name="scedilla" unicode="&#x15f;" horiz-adv-x="462" 
d="M218 65q96 0 97 70q-1 49 -81 75q-103 33 -131 67t-28 86q0 81 62.5 122.5t157.5 41.5t157 -28l-18 -137l-80 4l-3 58q-1 13 -11 17q-25 9 -64 9q-94 0 -94 -66q0 -33 29 -47.5t59 -25.5t63 -24t60.5 -46t27.5 -98q0 -64 -53.5 -105.5t-135.5 -48.5l-9 -34q67 -19 67 -78
t-41.5 -90t-88.5 -31t-71 8l14 59q14 -4 36 -4q71 0 71 51q0 40 -63 42l21 78q-113 8 -147 32l19 137l79 -5l3 -62q0 -27 96 -27z" />
    <glyph glyph-name="Scaron" unicode="&#x160;" horiz-adv-x="572" 
d="M569 884l-133 -106h-92l-105 106l52 47l107 -83l130 83zM378 645q-56 0 -102.5 -29.5t-46.5 -80.5t34.5 -74t80.5 -39q46 -17 118.5 -47t72.5 -150t-81.5 -178.5t-211.5 -58.5q-63 0 -125 12.5t-89 26.5l24 176h84l7 -93q3 -18 27 -26q24 -7 93 -7t111.5 32.5t42.5 86.5
t-31.5 80t-78.5 42t-53.5 18.5t-34 14t-54.5 33.5t-40.5 52.5t-13.5 73.5q0 111 80.5 169t192.5 58t197 -38l-25 -180l-84 8l-3 89q0 17 -18 23q-17 6 -73 6z" />
    <glyph glyph-name="scaron" unicode="&#x161;" horiz-adv-x="462" 
d="M486 704l-144 -125h-92l-106 125l54 44l106 -98l136 98zM218 65q96 0 97 70q-1 49 -81 75q-103 33 -131 67t-28 86q0 81 62.5 122.5t157.5 41.5t157 -28l-18 -137l-80 4l-3 58q-1 13 -11 17q-25 9 -64 9q-94 0 -94 -66q0 -33 29 -47.5t59 -25.5t90.5 -35t60.5 -113
q0 -90 -62.5 -132.5t-138.5 -42.5t-129 11.5t-70 22.5l19 137l79 -5l3 -62q0 -27 96 -27z" />
    <glyph glyph-name="uni0162" unicode="&#x162;" horiz-adv-x="654" 
d="M240 -181q71 0 71 51q0 40 -63 42l24 88h-139l8 60l101 7q10 1 13 5t5 15l76 551h-133q-14 0 -17 -11l-27 -87h-80l24 184h606l-25 -184h-80l-4 87q-1 11 -14 11h-135l-76 -551q-2 -11 0 -14.5t12 -4.5l109 -8l-9 -60h-150l-13 -45q67 -19 67 -78t-41.5 -90t-88.5 -31
t-71 8l14 59q14 -4 36 -4z" />
    <glyph glyph-name="uni0163" unicode="&#x163;" horiz-adv-x="412" 
d="M205 128q0 -51 59 -51q36 0 88 18l17 -73q-58 -28 -132 -33l-9 -34q67 -19 67 -78t-41.5 -90t-88.5 -31t-71 8l14 59q14 -4 36 -4q71 0 71 51q0 40 -63 42l22 79q-86 15 -86 105q0 11 2 37l41 292q0 10 -7 10h-70l10 73q59 8 90 40t50 109h72l-18 -130q-1 -10 8 -10h140
l-11 -82h-150l-37 -272q-3 -21 -3 -35z" />
    <glyph glyph-name="Tcaron" unicode="&#x164;" horiz-adv-x="654" 
d="M586 884l-133 -106h-92l-105 106l52 47l107 -83l130 83zM203 638q-14 0 -17 -11l-27 -87h-80l24 184h606l-25 -184h-80l-4 87q-1 11 -14 11h-135l-76 -551q-2 -11 0 -14.5t12 -4.5l109 -8l-9 -60h-354l8 60l101 7q10 1 13 5t5 15l76 551h-133z" />
    <glyph glyph-name="tcaron" unicode="&#x165;" horiz-adv-x="412" 
d="M339 682q0 40 -9 59l91 31q24 -26 24 -52q0 -52 -76 -175l-63 23q33 74 33 114zM205 128q0 -51 59 -51q36 0 88 18l17 -73q-72 -34 -145 -34t-104.5 26t-31.5 82q0 11 2 37l41 292q0 10 -7 10h-70l10 73q59 8 90 40t50 109h72l-18 -130q-1 -10 8 -10h140l-11 -82h-150
l-37 -272q-3 -21 -3 -35z" />
    <glyph glyph-name="Tbar" unicode="&#x166;" horiz-adv-x="654" 
d="M203 638q-14 0 -17 -11l-27 -87h-80l24 184h606l-25 -184h-80l-4 87q-1 11 -14 11h-135l-34 -244h124l-12 -82h-123l-31 -225q-2 -11 0 -14.5t12 -4.5l109 -8l-9 -60h-354l8 60l101 7q10 1 13 5t5 15l31 225h-117l12 82h116l34 244h-133z" />
    <glyph glyph-name="tbar" unicode="&#x167;" horiz-adv-x="412" 
d="M205 128q0 -51 59 -51q36 0 88 18l17 -73q-72 -34 -145 -34t-104.5 26t-31.5 82q0 11 2 37l14 102h-75l11 81h76l15 109q0 10 -7 10h-70l10 73q59 8 90 40t50 109h72l-18 -130q-1 -10 8 -10h140l-11 -82h-150l-16 -119h148l-11 -81h-148l-10 -72q-3 -21 -3 -35z" />
    <glyph glyph-name="Utilde" unicode="&#x168;" horiz-adv-x="772" 
d="M570 781q-26 0 -66 10l-99 27q-11 3 -17 -3l-41 -36l-46 33l35 48q32 43 62 43t93 -17t75 -17t15 4l34 34l50 -34l-29 -38q-40 -54 -66 -54zM372 -12q-128 0 -186 50t-58 153q0 28 5 65l51 382q3 18 -12 20l-61 7l8 59h274l-9 -59l-67 -8q-11 -1 -13.5 -4t-4.5 -15
l-51 -371q-5 -38 -5 -62q0 -66 31.5 -94t109.5 -28t121.5 39.5t56.5 137.5l52 378q2 12 -0.5 15.5t-12.5 4.5l-61 7l8 59h262l-8 -59l-67 -8q-11 -1 -13.5 -4t-4.5 -15l-55 -397q-19 -135 -90.5 -194t-199.5 -59z" />
    <glyph glyph-name="utilde" unicode="&#x169;" horiz-adv-x="617" 
d="M437 583q-23 0 -92 19t-78 21t-16 -5l-41 -36l-44 32l36 47q35 45 61 45q27 0 93 -18t73 -19.5t15 4.5l37 35l48 -33l-28 -38q-41 -54 -64 -54zM205 -12q-117 0 -117 124q0 30 4 54l37 264q2 12 0 15.5t-13 4.5l-50 8l8 59h177l2 -3l-45 -326q-4 -30 -4 -49q0 -48 38 -48
t72 22t99 80l32 237q2 12 0 15.5t-13 4.5l-55 8l9 59h183l2 -3l-60 -428q-3 -18 9 -19l54 -9l-8 -58h-172l14 91l-3 1q-93 -80 -132 -92t-68 -12z" />
    <glyph glyph-name="Umacron" unicode="&#x16a;" horiz-adv-x="772" 
d="M638 790h-311l11 82h311zM372 -12q-128 0 -186 50t-58 153q0 28 5 65l51 382q3 18 -12 20l-61 7l8 59h274l-9 -59l-67 -8q-11 -1 -13.5 -4t-4.5 -15l-51 -371q-5 -38 -5 -62q0 -66 31.5 -94t109.5 -28t121.5 39.5t56.5 137.5l52 378q2 12 -0.5 15.5t-12.5 4.5l-61 7l8 59
h262l-8 -59l-67 -8q-11 -1 -13.5 -4t-4.5 -15l-55 -397q-19 -135 -90.5 -194t-199.5 -59z" />
    <glyph glyph-name="umacron" unicode="&#x16b;" horiz-adv-x="617" 
d="M513 606h-311l12 82h311zM205 -12q-117 0 -117 124q0 30 4 54l37 264q2 12 0 15.5t-13 4.5l-50 8l8 59h177l2 -3l-45 -326q-4 -30 -4 -49q0 -48 38 -48t72 22t99 80l32 237q2 12 0 15.5t-13 4.5l-55 8l9 59h183l2 -3l-60 -428q-3 -18 9 -19l54 -9l-8 -58h-172l14 91l-3 1
q-93 -80 -132 -92t-68 -12z" />
    <glyph glyph-name="Ubreve" unicode="&#x16c;" horiz-adv-x="772" 
d="M478 782q-128 0 -145 123l66 22q15 -70 86 -70t106 71l63 -23q-48 -123 -176 -123zM372 -12q-128 0 -186 50t-58 153q0 28 5 65l51 382q3 18 -12 20l-61 7l8 59h274l-9 -59l-67 -8q-11 -1 -13.5 -4t-4.5 -15l-51 -371q-5 -38 -5 -62q0 -66 31.5 -94t109.5 -28t121.5 39.5
t56.5 137.5l52 378q2 12 -0.5 15.5t-12.5 4.5l-61 7l8 59h262l-8 -59l-67 -8q-11 -1 -13.5 -4t-4.5 -15l-55 -397q-19 -135 -90.5 -194t-199.5 -59z" />
    <glyph glyph-name="ubreve" unicode="&#x16d;" horiz-adv-x="617" 
d="M348 572q-134 0 -149 135l66 24q17 -84 93 -84t117 84l62 -24q-55 -135 -189 -135zM205 -12q-117 0 -117 124q0 30 4 54l37 264q2 12 0 15.5t-13 4.5l-50 8l8 59h177l2 -3l-45 -326q-4 -30 -4 -49q0 -48 38 -48t72 22t99 80l32 237q2 12 0 15.5t-13 4.5l-55 8l9 59h183
l2 -3l-60 -428q-3 -18 9 -19l54 -9l-8 -58h-172l14 91l-3 1q-93 -80 -132 -92t-68 -12z" />
    <glyph glyph-name="Uring" unicode="&#x16e;" horiz-adv-x="772" 
d="M481 807q19 0 30 13.5t11 34.5q0 29 -31 29q-42 0 -42 -44q0 -33 32 -33zM478 757q-84 -1 -84 81q0 40 30 68.5t69 28.5q84 1 84 -79q0 -40 -29.5 -69.5t-69.5 -29.5zM372 -12q-128 0 -186 50t-58 153q0 28 5 65l51 382q3 18 -12 20l-61 7l8 59h274l-9 -59l-67 -8
q-11 -1 -13.5 -4t-4.5 -15l-51 -371q-5 -38 -5 -62q0 -66 31.5 -94t109.5 -28t121.5 39.5t56.5 137.5l52 378q2 12 -0.5 15.5t-12.5 4.5l-61 7l8 59h262l-8 -59l-67 -8q-11 -1 -13.5 -4t-4.5 -15l-55 -397q-19 -135 -90.5 -194t-199.5 -59z" />
    <glyph glyph-name="uring" unicode="&#x16f;" horiz-adv-x="617" 
d="M353 621q19 0 30 13.5t11 33.5q0 29 -31 29q-41 0 -41 -44q0 -32 31 -32zM350 571q-84 0 -83 81q0 39 29.5 66t69.5 27q82 0 82 -72q0 -44 -29 -73t-69 -29zM205 -12q-117 0 -117 124q0 30 4 54l37 264q2 12 0 15.5t-13 4.5l-50 8l8 59h177l2 -3l-45 -326q-4 -30 -4 -49
q0 -48 38 -48t72 22t99 80l32 237q2 12 0 15.5t-13 4.5l-55 8l9 59h183l2 -3l-60 -428q-3 -18 9 -19l54 -9l-8 -58h-172l14 91l-3 1q-93 -80 -132 -92t-68 -12z" />
    <glyph glyph-name="Uhungarumlaut" unicode="&#x170;" horiz-adv-x="772" 
d="M737 905l-187 -143l-40 43l167 166zM558 913l-181 -151l-44 43l161 173zM372 -12q-128 0 -186 50t-58 153q0 28 5 65l51 382q3 18 -12 20l-61 7l8 59h274l-9 -59l-67 -8q-11 -1 -13.5 -4t-4.5 -15l-51 -371q-5 -38 -5 -62q0 -66 31.5 -94t109.5 -28t121.5 39.5
t56.5 137.5l52 378q2 12 -0.5 15.5t-12.5 4.5l-61 7l8 59h262l-8 -59l-67 -8q-11 -1 -13.5 -4t-4.5 -15l-55 -397q-19 -135 -90.5 -194t-199.5 -59z" />
    <glyph glyph-name="uhungarumlaut" unicode="&#x171;" horiz-adv-x="617" 
d="M601 719l-179 -154l-45 41l156 175zM421 719l-179 -154l-45 41l156 175zM205 -12q-117 0 -117 124q0 30 4 54l37 264q2 12 0 15.5t-13 4.5l-50 8l8 59h177l2 -3l-45 -326q-4 -30 -4 -49q0 -48 38 -48t72 22t99 80l32 237q2 12 0 15.5t-13 4.5l-55 8l9 59h183l2 -3
l-60 -428q-3 -18 9 -19l54 -9l-8 -58h-172l14 91l-3 1q-93 -80 -132 -92t-68 -12z" />
    <glyph glyph-name="Uogonek" unicode="&#x172;" horiz-adv-x="772" 
d="M380 -224q-86 0 -86 67q0 73 96 146q-7 -1 -22 -1q-123 0 -181.5 50t-58.5 153q0 28 5 65l51 382q3 18 -12 20l-61 7l8 59h274l-9 -59l-67 -8q-11 -1 -13.5 -4t-4.5 -15l-51 -371q-5 -38 -5 -62q0 -66 31.5 -94t109.5 -28t121.5 39.5t56.5 137.5l52 378q2 12 -0.5 15.5
t-12.5 4.5l-61 7l8 59h262l-8 -59l-67 -8q-11 -1 -13.5 -4t-4.5 -15l-55 -397q-24 -168 -142 -230q-52 -27 -88.5 -64t-36.5 -66t24 -29t54 11l14 -63q-54 -24 -107 -24z" />
    <glyph glyph-name="uogonek" unicode="&#x173;" horiz-adv-x="617" 
d="M435 -224q-86 0 -86 67q0 76 113 157h-68l14 91l-3 1q-93 -80 -132 -92t-68 -12q-117 0 -117 124q0 30 4 54l37 264q2 12 0 15.5t-13 4.5l-50 8l8 59h177l2 -3l-45 -326q-4 -30 -4 -49q0 -48 38 -48t72 22t99 80l32 237q2 12 0 15.5t-13 4.5l-55 8l9 59h183l2 -3
l-60 -428q-3 -18 9 -19l54 -9l-8 -58q-116 -66 -116 -123q0 -25 24 -25t54 11l14 -63q-54 -24 -107 -24z" />
    <glyph glyph-name="Wcircumflex" unicode="&#x174;" horiz-adv-x="979" 
d="M750 813l-52 -47l-107 83l-130 -83l-41 47l133 106h92zM736 0h-150l-57 421l-174 -421h-144l-70 632q-1 13 -4.5 17t-14.5 6l-52 10l10 59h268l-9 -59l-86 -9l56 -527l191 454h119l60 -470l197 543l-83 9l9 59h254l-9 -59l-51 -9q-18 -4 -26 -26z" />
    <glyph glyph-name="wcircumflex" unicode="&#x175;" horiz-adv-x="829" 
d="M642 612l-55 -44l-107 98l-135 -98l-46 44l143 125h92zM625 0h-131l-48 374l-147 -374h-136l-66 432q-3 14 -16 17l-42 9l9 59h154l6 -8l7 -87l39 -306l156 396h123l51 -401l147 339l-58 8l9 59h154l9 -19z" />
    <glyph glyph-name="Ycircumflex" unicode="&#x176;" horiz-adv-x="629" 
d="M567 813l-52 -47l-107 83l-130 -83l-41 47l133 106h92zM473 0h-341l8 59l97 7q14 2 17 21l26 189l-146 361q-5 13 -21 17l-43 11l9 59h259l-9 -59l-76 -9l102 -278l180 278l-73 9l9 59h233l-8 -59l-43 -11q-19 -4 -27 -20l-231 -356l-26 -191q-2 -13 0 -16t13 -4l99 -8z
" />
    <glyph glyph-name="ycircumflex" unicode="&#x177;" horiz-adv-x="549" 
d="M490 612l-55 -44l-107 98l-135 -98l-46 44l143 125h92zM184 -190q-42 -33 -122 -33t-128 46l43 69q45 -29 85 -29t63 22t46 63l34 62l-104 422q-4 13 -17 17l-41 10l11 58h148l7 -8l75 -361h3l151 301l-62 10l8 58h170l10 -21l-298 -575q-40 -78 -82 -111z" />
    <glyph glyph-name="Ydieresis" unicode="&#x178;" horiz-adv-x="629" 
d="M311 781q-53 0 -53 52q0 32 19 51.5t52 19.5q54 0 54 -51q0 -32 -19.5 -52t-52.5 -20zM515 781q-53 0 -53 52q0 32 19 51.5t52 19.5q54 0 54 -51q0 -32 -19.5 -52t-52.5 -20zM473 0h-341l8 59l97 7q14 2 17 21l26 189l-146 361q-5 13 -21 17l-43 11l9 59h259l-9 -59
l-76 -9l102 -278l180 278l-73 9l9 59h233l-8 -59l-43 -11q-19 -4 -27 -20l-231 -356l-26 -191q-2 -13 0 -16t13 -4l99 -8z" />
    <glyph glyph-name="Zacute" unicode="&#x179;" horiz-adv-x="642" 
d="M534 861l-219 -95l-28 58l207 123zM239 638q-14 0 -17 -11l-31 -92l-83 -4l28 193h518l-11 -78l-462 -561h288q15 0 18 11l33 107h81l-28 -203h-548l11 75l464 563h-261z" />
    <glyph glyph-name="zacute" unicode="&#x17a;" horiz-adv-x="504" 
d="M434 699l-186 -135l-43 49l165 158zM186 439q-10 0 -13 -13l-20 -60l-79 -4l21 155h410l-10 -68l-324 -372h180q11 0 15 13l22 72l80 4l-22 -166h-425l8 66l328 373h-171z" />
    <glyph glyph-name="Zdotaccent" unicode="&#x17b;" horiz-adv-x="642" 
d="M421 929q65 0 65 -61q0 -39 -23 -63t-59 -24q-70 0 -70 62q0 39 23.5 62.5t63.5 23.5zM239 638q-14 0 -17 -11l-31 -92l-83 -4l28 193h518l-11 -78l-462 -561h288q15 0 18 11l33 107h81l-28 -203h-548l11 75l464 563h-261z" />
    <glyph glyph-name="zdotaccent" unicode="&#x17c;" horiz-adv-x="504" 
d="M330 765q65 0 65 -61q0 -39 -23 -63t-58 -24q-69 0 -69 62q0 39 23 62.5t62 23.5zM186 439q-10 0 -13 -13l-20 -60l-79 -4l21 155h410l-10 -68l-324 -372h180q11 0 15 13l22 72l80 4l-22 -166h-425l8 66l328 373h-171z" />
    <glyph glyph-name="Zcaron" unicode="&#x17d;" horiz-adv-x="642" 
d="M574 884l-133 -106h-92l-105 106l52 47l107 -83l130 83zM239 638q-14 0 -17 -11l-31 -92l-83 -4l28 193h518l-11 -78l-462 -561h288q15 0 18 11l33 107h81l-28 -203h-548l11 75l464 563h-261z" />
    <glyph glyph-name="zcaron" unicode="&#x17e;" horiz-adv-x="504" 
d="M492 704l-144 -125h-92l-106 125l54 44l106 -98l136 98zM186 439q-10 0 -13 -13l-20 -60l-79 -4l21 155h410l-10 -68l-324 -372h180q11 0 15 13l22 72l80 4l-22 -166h-425l8 66l328 373h-171z" />
    <glyph glyph-name="longs" unicode="&#x17f;" horiz-adv-x="407" 
d="M350 766q114 0 174 -50l-45 -74q-50 37 -96 37t-65 -21t-25 -65l-113 -805h-114l115 809q12 89 59 129t110 40z" />
    <glyph glyph-name="florin" unicode="&#x192;" horiz-adv-x="539" 
d="M50 -98q-110 0 -161 43l42 73q47 -33 91 -33t65 18t36 67l69 222q2 10 -6 10h-89l23 78h100l33 105q28 91 73 128.5t128 37.5t143 -37l-40 -135l-71 6l8 66q0 19 -42 19t-62.5 -22.5t-35.5 -69.5l-28 -88q-3 -10 6 -10h132l-24 -78h-141l-68 -224q-31 -100 -76 -138
t-105 -38z" />
    <glyph glyph-name="Scommaaccent" unicode="&#x218;" horiz-adv-x="572" 
d="M326 -112q0 -30 -27 -73l-61 -93l-50 17l34 91q3 8 -3 11l-34 14l33 87q54 -2 81 -13t27 -41zM378 645q-56 0 -102.5 -29.5t-46.5 -80.5t34.5 -74t80.5 -39q46 -17 118.5 -47t72.5 -150t-81.5 -178.5t-211.5 -58.5q-63 0 -125 12.5t-89 26.5l24 176h84l7 -93
q3 -18 27 -26q24 -7 93 -7t111.5 32.5t42.5 86.5t-31.5 80t-78.5 42t-53.5 18.5t-34 14t-54.5 33.5t-40.5 52.5t-13.5 73.5q0 111 80.5 169t192.5 58t197 -38l-25 -180l-84 8l-3 89q0 17 -18 23q-17 6 -73 6z" />
    <glyph glyph-name="scommaaccent" unicode="&#x219;" horiz-adv-x="462" 
d="M259 -112q0 -30 -27 -73l-61 -93l-50 17l34 91q3 8 -3 11l-34 14l33 87q54 -2 81 -13t27 -41zM218 65q96 0 97 70q-1 49 -81 75q-103 33 -131 67t-28 86q0 81 62.5 122.5t157.5 41.5t157 -28l-18 -137l-80 4l-3 58q-1 13 -11 17q-25 9 -64 9q-94 0 -94 -66
q0 -33 29 -47.5t59 -25.5t90.5 -35t60.5 -113q0 -90 -62.5 -132.5t-138.5 -42.5t-129 11.5t-70 22.5l19 137l79 -5l3 -62q0 -27 96 -27z" />
    <glyph glyph-name="uni021A" unicode="&#x21a;" horiz-adv-x="654" 
d="M365 -112q0 -30 -27 -73l-61 -93l-50 17l34 91q3 8 -3 11l-34 14l33 87q54 -2 81 -13t27 -41zM203 638q-14 0 -17 -11l-27 -87h-80l24 184h606l-25 -184h-80l-4 87q-1 11 -14 11h-135l-76 -551q-2 -11 0 -14.5t12 -4.5l109 -8l-9 -60h-354l8 60l101 7q10 1 13 5t5 15
l76 551h-133z" />
    <glyph glyph-name="uni021B" unicode="&#x21b;" horiz-adv-x="412" 
d="M260 -112q0 -30 -27 -73l-61 -93l-50 17l34 91q3 8 -3 11l-34 14l33 87q54 -2 81 -13t27 -41zM205 128q0 -51 59 -51q36 0 88 18l17 -73q-72 -34 -145 -34t-104.5 26t-31.5 82q0 11 2 37l41 292q0 10 -7 10h-70l10 73q59 8 90 40t50 109h72l-18 -130q-1 -10 8 -10h140
l-11 -82h-150l-37 -272q-3 -21 -3 -35z" />
    <glyph glyph-name="dotlessj" unicode="&#x237;" horiz-adv-x="298" 
d="M18 -223q-62 0 -102 16t-55 31l43 67q44 -28 82 -28t55 22t25 76l66 460q1 17 -10 21l-55 16l9 59h181l-80 -577q-12 -85 -54.5 -124t-104.5 -39z" />
    <glyph glyph-name="apostrophe" unicode="&#x2bc;" 
d="M390 656q0 -24 -19 -53l-55 -84l-40 16l32 76q2 7 -2 10l-28 10l27 69q42 -1 63.5 -10.5t21.5 -33.5z" />
    <glyph glyph-name="circumflex" unicode="&#x2c6;" 
d="M507 612l-55 -44l-107 98l-135 -98l-46 44l143 125h92z" />
    <glyph glyph-name="caron" unicode="&#x2c7;" 
d="M519 704l-144 -125h-92l-106 125l54 44l106 -98l136 98z" />
    <glyph glyph-name="uni02C9" unicode="&#x2c9;" 
d="M490 606h-311l12 82h311z" />
    <glyph glyph-name="breve" unicode="&#x2d8;" 
d="M330 572q-134 0 -150 135l66 24q16 -84 92 -84t118 84l62 -24q-54 -135 -188 -135z" />
    <glyph glyph-name="dotaccent" unicode="&#x2d9;" 
d="M356 765q65 0 65 -61q0 -39 -23 -63t-58 -24q-69 0 -69 62q0 39 23 62.5t62 23.5z" />
    <glyph glyph-name="ring" unicode="&#x2da;" 
d="M343 621q19 0 30 13.5t11 33.5q0 29 -31 29q-41 0 -41 -44q0 -32 31 -32zM340 571q-84 0 -83 81q0 39 29.5 66t69.5 27q82 0 82 -72q0 -44 -29 -73t-69 -29z" />
    <glyph glyph-name="ogonek" unicode="&#x2db;" 
d="M226 -224q-86 0 -86 67q0 52 38.5 93.5t103.5 84.5l61 -17q-102 -78 -102 -127q0 -25 24 -25t54 11l14 -63q-54 -24 -107 -24z" />
    <glyph glyph-name="tilde" unicode="&#x2dc;" 
d="M430 583q-23 0 -92 19t-78 21t-16 -5l-41 -36l-44 32l36 47q35 45 61 45t92 -18t73.5 -19.5t15.5 4.5l37 35l48 -33l-28 -38q-41 -54 -64 -54z" />
    <glyph glyph-name="hungarumlaut" unicode="&#x2dd;" 
d="M549 719l-179 -154l-45 41l156 175zM369 719l-179 -154l-45 41l156 175z" />
    <glyph glyph-name="uni0394" unicode="&#x394;" horiz-adv-x="688" 
d="M509 94l-95 519h-3l-247 -519h345zM660 0h-652l355 724h140z" />
    <glyph glyph-name="uni03A9" unicode="&#x3a9;" horiz-adv-x="838" 
d="M678 454q0 188 -202 188q-102 0 -173 -70.5t-71 -211.5t123 -194l-23 -166h-303l23 165h81l4 -69q2 -11 15 -11h106l6 45q-72 31 -112 95t-40 145q0 160 107.5 263.5t268.5 103.5t235.5 -71.5t74.5 -195.5t-68 -211.5t-174 -129.5l-6 -44h101q14 0 17 11l25 69h81
l-24 -165h-297l23 166q146 56 174 147t28 141z" />
    <glyph glyph-name="uni03BC" unicode="&#x3bc;" horiz-adv-x="629" 
d="M259 -12q-41 0 -73 27l-18 -191h-118l98 693h115l-47 -334q-4 -34 -4 -54q0 -47 61 -47t145 76l51 359h115l-60 -429q-3 -17 10 -20l52 -7l-9 -61h-166l10 65l-4 1q-87 -78 -158 -78z" />
    <glyph glyph-name="pi" unicode="&#x3c0;" horiz-adv-x="693" 
d="M600 0h-179l61 436h-202l-61 -436h-179l9 62l49 7q10 1 12.5 3.5t4.5 11.5l49 342q2 12 -0.5 15.5t-12.5 4.5l-54 7l8 64h576l-8 -64l-59 -7q-11 -1 -14 -5t-5 -15l-47 -337q-2 -12 0 -15.5t13 -4.5l47 -7z" />
    <glyph glyph-name="Wgrave" unicode="&#x1e80;" horiz-adv-x="979" 
d="M650 766l-198 96l58 84l178 -126zM736 0h-150l-57 421l-174 -421h-144l-70 632q-1 13 -4.5 17t-14.5 6l-52 10l10 59h268l-9 -59l-86 -9l56 -527l191 454h119l60 -470l197 543l-83 9l9 59h254l-9 -59l-51 -9q-18 -4 -26 -26z" />
    <glyph glyph-name="wgrave" unicode="&#x1e81;" horiz-adv-x="829" 
d="M577 607l-53 -43l-156 144l78 67zM625 0h-131l-48 374l-147 -374h-136l-66 432q-3 14 -16 17l-42 9l9 59h154l6 -8l7 -87l39 -306l156 396h123l51 -401l147 339l-58 8l9 59h154l9 -19z" />
    <glyph glyph-name="Wacute" unicode="&#x1e82;" horiz-adv-x="979" 
d="M720 861l-219 -95l-28 58l207 123zM736 0h-150l-57 421l-174 -421h-144l-70 632q-1 13 -4.5 17t-14.5 6l-52 10l10 59h268l-9 -59l-86 -9l56 -527l191 454h119l60 -470l197 543l-83 9l9 59h254l-9 -59l-51 -9q-18 -4 -26 -26z" />
    <glyph glyph-name="wacute" unicode="&#x1e83;" horiz-adv-x="829" 
d="M604 699l-186 -135l-43 49l165 158zM625 0h-131l-48 374l-147 -374h-136l-66 432q-3 14 -16 17l-42 9l9 59h154l6 -8l7 -87l39 -306l156 396h123l51 -401l147 339l-58 8l9 59h154l9 -19z" />
    <glyph glyph-name="Wdieresis" unicode="&#x1e84;" horiz-adv-x="979" 
d="M480 781q-53 0 -53 52q0 32 19 51.5t52 19.5q54 0 54 -51q0 -32 -19.5 -52t-52.5 -20zM684 781q-53 0 -53 52q0 32 19 51.5t52 19.5q54 0 54 -51q0 -32 -19.5 -52t-52.5 -20zM736 0h-150l-57 421l-174 -421h-144l-70 632q-1 13 -4.5 17t-14.5 6l-52 10l10 59h268l-9 -59
l-86 -9l56 -527l191 454h119l60 -470l197 543l-83 9l9 59h254l-9 -59l-51 -9q-18 -4 -26 -26z" />
    <glyph glyph-name="wdieresis" unicode="&#x1e85;" horiz-adv-x="829" 
d="M367 601q-53 0 -53 52q0 32 19 51.5t52 19.5q54 0 54 -51q0 -32 -19.5 -52t-52.5 -20zM571 601q-53 0 -53 52q0 32 19 51.5t52 19.5q54 0 54 -51q0 -32 -19.5 -52t-52.5 -20zM625 0h-131l-48 374l-147 -374h-136l-66 432q-3 14 -16 17l-42 9l9 59h154l6 -8l7 -87l39 -306
l156 396h123l51 -401l147 339l-58 8l9 59h154l9 -19z" />
    <glyph glyph-name="Ygrave" unicode="&#x1ef2;" horiz-adv-x="629" 
d="M470 766l-198 96l58 84l178 -126zM473 0h-341l8 59l97 7q14 2 17 21l26 189l-146 361q-5 13 -21 17l-43 11l9 59h259l-9 -59l-76 -9l102 -278l180 278l-73 9l9 59h233l-8 -59l-43 -11q-19 -4 -27 -20l-231 -356l-26 -191q-2 -13 0 -16t13 -4l99 -8z" />
    <glyph glyph-name="ygrave" unicode="&#x1ef3;" horiz-adv-x="549" 
d="M403 607l-53 -43l-156 144l78 67zM184 -190q-42 -33 -122 -33t-128 46l43 69q45 -29 85 -29t63 22t46 63l34 62l-104 422q-4 13 -17 17l-41 10l11 58h148l7 -8l75 -361h3l151 301l-62 10l8 58h170l10 -21l-298 -575q-40 -78 -82 -111z" />
    <glyph glyph-name="endash" unicode="&#x2013;" 
d="M511 239h-499l12 84h499z" />
    <glyph glyph-name="emdash" unicode="&#x2014;" horiz-adv-x="1000" 
d="M1012 239h-1000l12 84h1000z" />
    <glyph glyph-name="quoteleft" unicode="&#x2018;" horiz-adv-x="197" 
d="M103 602q0 28 24 65l65 100l49 -18l-39 -96q-3 -8 4 -11l32 -13l-32 -82q-103 5 -103 55z" />
    <glyph glyph-name="quoteright" unicode="&#x2019;" horiz-adv-x="200" 
d="M242 711q0 -29 -24 -65l-65 -101l-49 18l39 96q3 8 -4 11l-32 13l32 83q50 -3 76.5 -14.5t26.5 -40.5z" />
    <glyph glyph-name="quotesinglbase" unicode="&#x201a;" horiz-adv-x="194" 
d="M153 38q0 -28 -25 -65l-64 -101l-49 18l39 96q3 8 -5 11l-31 13l31 83q51 -3 77.5 -15t26.5 -40z" />
    <glyph glyph-name="quotedblleft" unicode="&#x201c;" horiz-adv-x="360" 
d="M103 602q0 28 24 65l65 100l49 -18l-39 -96q-3 -8 4 -11l32 -13l-32 -82q-103 5 -103 55zM266 602q0 28 24 65l65 100l49 -18l-39 -96q-3 -8 4 -11l32 -13l-32 -82q-103 5 -103 55z" />
    <glyph glyph-name="quotedblright" unicode="&#x201d;" horiz-adv-x="363" 
d="M242 711q0 -29 -24 -65l-65 -101l-49 18l39 96q3 8 -4 11l-32 13l32 83q50 -3 76.5 -14.5t26.5 -40.5zM405 711q0 -29 -24 -65l-65 -101l-49 18l39 96q3 8 -4 11l-32 13l32 83q50 -3 76.5 -14.5t26.5 -40.5z" />
    <glyph glyph-name="quotedblbase" unicode="&#x201e;" horiz-adv-x="357" 
d="M153 38q0 -28 -25 -65l-64 -101l-49 18l39 96q3 8 -5 11l-31 13l31 83q51 -3 77.5 -15t26.5 -40zM316 38q0 -28 -25 -65l-64 -101l-49 18l39 96q3 8 -5 11l-31 13l31 83q51 -3 77.5 -15t26.5 -40z" />
    <glyph glyph-name="dagger" unicode="&#x2020;" horiz-adv-x="397" 
d="M403 405h-74l-80 27l26 -112l-46 -213l-27 -190h-82l27 190l13 213l56 112l-88 -27h-74l13 87h74l79 -27l-13 96l12 84h87l-12 -84l-40 -96l88 27h73zM254 465h-34l-4 -33h33z" />
    <glyph glyph-name="daggerdbl" unicode="&#x2021;" horiz-adv-x="420" 
d="M220 -83h-87l12 84l40 96l-87 -27h-74l12 87h74l80 -27l-24 116l11 76l55 110l-87 -27h-74l12 87h74l80 -27l-14 96l12 84h87l-12 -84l-40 -96l88 27h74l-13 -87h-73l-80 27l26 -110l-11 -76l-58 -116l88 27h74l-13 -87h-73l-80 27l13 -96zM219 97l4 33h-33l-5 -33h34z
M266 432l4 33h-33l-5 -33h34z" />
    <glyph glyph-name="bullet" unicode="&#x2022;" horiz-adv-x="395" 
d="M68 290q0 138 142 138t143 -138q-1 -138 -143 -139q-142 1 -142 139z" />
    <glyph glyph-name="ellipsis" unicode="&#x2026;" horiz-adv-x="622" 
d="M27 44q0 82 85 82q64 0 64 -56q0 -82 -84 -82q-65 0 -65 56zM433 44q0 82 85 82q64 0 64 -56q0 -82 -84 -82q-65 0 -65 56zM230 44q0 82 85 82q64 0 64 -56q0 -82 -84 -82q-65 0 -65 56z" />
    <glyph glyph-name="perthousand" unicode="&#x2030;" horiz-adv-x="1106" 
d="M930 248q-80 0 -80 -134q0 -62 51 -62q79 0 79 127q0 69 -50 69zM940 313q127 0 127 -128q0 -90 -46.5 -143.5t-130.5 -53.5q-126 0 -126 127q0 90 46 144t130 54zM597 248q-80 0 -80 -134q0 -62 51 -62q79 0 79 127q0 69 -50 69zM557 -12q-126 0 -126 127q0 90 46.5 144
t130.5 54q126 0 126 -128q0 -90 -46.5 -143.5t-130.5 -53.5zM249 555q-80 0 -80 -126q0 -70 50 -70q79 0 79 129q0 67 -49 67zM227 -17h-108l466 638h107zM209 295q-127 0 -127 128q0 90 46.5 143.5t130.5 53.5q126 0 126 -127q0 -90 -46 -144t-130 -54z" />
    <glyph glyph-name="guilsinglleft" unicode="&#x2039;" horiz-adv-x="278" 
d="M219 103h-97l-65 155l110 150h99l-97 -139q-8 -10 -4 -19z" />
    <glyph glyph-name="guilsinglright" unicode="&#x203a;" horiz-adv-x="278" 
d="M141 103h-100l97 145q6 10 3 19l-57 141h98l66 -153z" />
    <glyph glyph-name="fraction" unicode="&#x2044;" horiz-adv-x="213" 
d="M-45 -17h-107l462 741h106z" />
    <glyph glyph-name="zerosuperior" unicode="&#x2070;" horiz-adv-x="424" 
d="M251 418q35 0 55 35t30 102t9.5 103t-12 52.5t-45.5 16.5t-55 -34.5t-31 -100.5t-9 -102q0 -36 11.5 -54t46.5 -18zM233 342q-148 0 -148 155q0 306 222 306q146 0 146 -154q0 -29 -7 -76q-16 -118 -65 -174.5t-148 -56.5z" />
    <glyph glyph-name="foursuperior" unicode="&#x2074;" horiz-adv-x="409" 
d="M269 510l25 183l-134 -183h109zM342 350h-96l11 81h-198l11 71l212 289h122l-39 -281h55l-12 -79h-55z" />
    <glyph glyph-name="fivesuperior" unicode="&#x2075;" horiz-adv-x="370" 
d="M282 630q47 0 77 -30t30 -95t-50.5 -114t-148.5 -49t-153 60l60 59q41 -43 89 -43q98 0 99 85q0 55 -53 55q-35 0 -68 -31l-66 29l49 236h255l-13 -83h-176l-25 -104q47 25 94 25z" />
    <glyph glyph-name="sixsuperior" unicode="&#x2076;" horiz-adv-x="406" 
d="M321 505q0 50 -47 50q-34 0 -71 -23q-3 -27 -3 -34q0 -84 54 -84q31 0 49 25.5t18 65.5zM322 728q-44 0 -74.5 -37t-39.5 -92q56 27 104 27t79 -29t31 -98t-50 -113t-128 -44q-146 0 -145 166q0 100 54.5 197t182.5 97q68 0 116 -47l-51 -56q-35 29 -79 29z" />
    <glyph glyph-name="sevensuperior" unicode="&#x2077;" horiz-adv-x="378" 
d="M183 709q-7 0 -10 -7l-15 -51l-69 -5l22 146h331l-11 -74q-69 -61 -126 -165t-74 -203h-110q27 119 85.5 215t112.5 144h-136z" />
    <glyph glyph-name="eightsuperior" unicode="&#x2078;" horiz-adv-x="376" 
d="M327 697q0 41 -51 41q-30 0 -47 -16t-17 -44t58 -62q57 50 57 81zM155 456q0 -49 60 -49q37 0 57 18.5t20 42.5t-17.5 38.5t-57.5 35.5q-62 -47 -62 -86zM276 803q134 -1 134 -105q0 -54 -79 -116q65 -38 65 -102t-54.5 -101t-128.5 -37q-146 0 -146 102q0 44 25.5 74.5
t68.5 60.5q-48 35 -48 93t48.5 94.5t114.5 36.5z" />
    <glyph glyph-name="ninesuperior" unicode="&#x2079;" horiz-adv-x="414" 
d="M327 654q0 77 -53 77q-32 0 -49 -27.5t-17 -66.5q0 -61 50 -61q32 0 64 23q5 25 5 55zM212 415q44 0 68.5 27.5t35.5 88.5q-46 -26 -98 -26t-84 31.5t-32 101.5t51.5 117.5t131.5 47.5q146 0 146 -174q0 -97 -46 -192t-171 -95q-90 0 -138 50l51 58q41 -35 85 -35z" />
    <glyph glyph-name="plussuperior" unicode="&#x207a;" horiz-adv-x="321" 
d="M239 441h-82l13 94h-89l11 75h89l13 91h82l-13 -91h90l-10 -75h-90z" />
    <glyph glyph-name="minussuperior" unicode="&#x207b;" horiz-adv-x="321" 
d="M343 535h-262l11 75h261z" />
    <glyph glyph-name="equalsuperior" unicode="&#x207c;" horiz-adv-x="321" 
d="M348 573h-261l11 76h261zM330 447h-261l11 77h261z" />
    <glyph glyph-name="parenleftsuperior" unicode="&#x207d;" horiz-adv-x="270" 
d="M103 484q0 175 165 349l71 -45q-67 -80 -96.5 -153t-29.5 -165t47 -189l-85 -44q-72 106 -72 247z" />
    <glyph glyph-name="parenrightsuperior" unicode="&#x207e;" horiz-adv-x="261" 
d="M150 600q0 92 -47 189l85 44q72 -108 72 -247q0 -174 -166 -349l-70 45q68 79 97 152.5t29 165.5z" />
    <glyph glyph-name="zeroinferior" unicode="&#x2080;" horiz-adv-x="424" 
d="M186 -79q35 0 54.5 35t29.5 102t10 103t-11 52.5t-45 16.5t-55 -35t-31 -101t-10 -102t11.5 -53.5t46.5 -17.5zM168 -155q-148 0 -148 155q0 306 222 306q146 0 146 -154q0 -29 -7 -76q-16 -118 -65 -174.5t-148 -56.5z" />
    <glyph glyph-name="oneinferior" unicode="&#x2081;" horiz-adv-x="278" 
d="M235 -147h-237l7 53l56 5q11 1 13 13l43 294q3 11 -7 13l-57 12l9 53h171l-55 -372q-3 -11 9 -13l55 -5z" />
    <glyph glyph-name="twoinferior" unicode="&#x2082;" horiz-adv-x="363" 
d="M231 196q0 39 -41 39t-57 -13t-22 -47l-92 9q12 72 58.5 97t119.5 25q138 0 138 -101q0 -51 -31 -86t-63 -67l-133 -134h110q10 0 12 8l16 48h72l-18 -121h-324l9 61l149 149q66 66 81.5 90.5t15.5 42.5z" />
    <glyph glyph-name="threeinferior" unicode="&#x2083;" horiz-adv-x="371" 
d="M316 -2q0 -72 -51 -112.5t-145 -40.5t-147 62l60 59q41 -45 88 -45q92 0 92 72q0 56 -62 56q-21 0 -49 -4l10 67l35 4q87 9 87 77q0 41 -46 41q-29 0 -44 -12.5t-20 -46.5l-95 9q15 122 161 122t146 -99q0 -46 -26.5 -76t-64.5 -42v-2q71 -17 71 -89z" />
    <glyph glyph-name="fourinferior" unicode="&#x2084;" horiz-adv-x="409" 
d="M204 13l25 183l-134 -183h109zM277 -147h-96l11 81h-198l11 71l212 289h122l-39 -281h55l-12 -79h-55z" />
    <glyph glyph-name="fiveinferior" unicode="&#x2085;" horiz-adv-x="370" 
d="M217 133q47 0 77 -30t30 -95t-51 -114t-149 -49t-152 60l60 59q42 -43 90 -43q98 0 98 85q0 55 -53 55q-35 0 -68 -31l-66 29l49 236h255l-13 -83h-176l-25 -104q47 25 94 25z" />
    <glyph glyph-name="sixinferior" unicode="&#x2086;" horiz-adv-x="406" 
d="M256 8q0 50 -47 50q-34 0 -71 -23q-3 -27 -3 -34q0 -84 54 -84q31 0 49 25.5t18 65.5zM257 231q-44 0 -74.5 -37t-39.5 -92q57 27 105 27t78.5 -29t30.5 -98t-49.5 -113t-127.5 -44q-146 0 -146 166q0 100 54 197t182 97q68 0 117 -47l-51 -56q-35 29 -79 29z" />
    <glyph glyph-name="seveninferior" unicode="&#x2087;" horiz-adv-x="378" 
d="M118 212q-7 0 -10 -7l-15 -51l-69 -5l22 146h331l-11 -74q-69 -61 -126 -165t-74 -203h-110q27 119 85.5 215t112.5 144h-136z" />
    <glyph glyph-name="eightinferior" unicode="&#x2088;" horiz-adv-x="376" 
d="M262 200q0 41 -51 41q-30 0 -47 -16t-17 -44t58 -62q57 50 57 81zM90 -41q0 -49 60 -49q37 0 57 18t20 42t-17.5 39t-57.5 36q-62 -47 -62 -86zM210 306q134 0 135 -104q0 -54 -79 -117q65 -39 65 -103t-54.5 -100.5t-128.5 -36.5q-146 0 -146 102q0 44 25.5 74.5
t68.5 60.5q-48 35 -48 93t48 94.5t114 36.5z" />
    <glyph glyph-name="nineinferior" unicode="&#x2089;" horiz-adv-x="414" 
d="M262 157q0 77 -53 77q-32 0 -49 -27.5t-17 -66.5q0 -61 50 -61q32 0 64 23q5 25 5 55zM147 -82q44 0 68.5 27.5t35.5 88.5q-46 -26 -98 -26t-84 31t-32 101t51.5 118t131.5 48q146 0 146 -174q0 -97 -46 -192t-171 -95q-90 0 -138 50l51 58q41 -35 85 -35z" />
    <glyph glyph-name="parenleftinferior" unicode="&#x208d;" horiz-adv-x="270" 
d="M38 -13q0 175 165 349l71 -45q-67 -80 -96.5 -153.5t-29.5 -165.5t47 -188l-85 -44q-72 106 -72 247z" />
    <glyph glyph-name="parenrightinferior" unicode="&#x208e;" horiz-adv-x="261" 
d="M85 102q0 92 -47 190l85 44q72 -108 72 -247q0 -174 -166 -349l-70 45q68 79 97 152t29 165z" />
    <glyph glyph-name="Euro" unicode="&#x20ac;" horiz-adv-x="536" 
d="M403 564q-127 0 -173 -145h181l-22 -74h-175q-4 -36 -5 -61h167l-22 -74h-143q13 -135 117 -135q71 0 77 24l23 78l78 5l-21 -157q-24 -13 -76.5 -25t-102.5 -12q-200 0 -216 222h-84l22 74h62q1 21 5 61h-54l22 74h48q34 116 114 174t183 58t159 -38l-21 -155l-77 5
l-3 78q0 23 -63 23z" />
    <glyph glyph-name="afii61352" unicode="&#x2116;" horiz-adv-x="1120" 
d="M896 286q96 0 96 146q0 77 -62 77q-44 0 -71 -35.5t-27 -111.5t64 -76zM896 222q-158 0 -157 142q0 94 52.5 151.5t138.5 57.5q156 0 156 -141q0 -97 -52 -153.5t-138 -56.5zM708 98l12 86h329l-12 -86h-329zM610 0h-129l-218 490l-56 -398q-2 -12 0 -15.5t13 -4.5l66 -8
l-9 -64h-257l9 64l64 7q11 2 14.5 5.5t4.5 14.5l63 449q2 12 -0.5 15.5t-12.5 4.5l-62 7l9 65h217l212 -477l54 386q2 12 -0.5 15.5t-12.5 4.5l-62 7l9 64h256l-9 -64l-68 -8q-11 -2 -14 -5t-5 -14z" />
    <glyph glyph-name="trademark" unicode="&#x2122;" horiz-adv-x="837" 
d="M885 348h-147v40l45 5v209l-90 -173h-51l-88 174v-210l48 -5v-40h-148v40l38 5v284l-38 4v43h103l112 -227l115 227h99v-43l-40 -4v-284l42 -5v-40zM355 348h-184v41l56 5v280h-78l-8 -53h-40v103h320v-103h-40l-7 53h-80v-280l61 -5v-41z" />
    <glyph glyph-name="Omega" unicode="&#x2126;" horiz-adv-x="838" 
d="M678 454q0 188 -202 188q-102 0 -173 -70.5t-71 -211.5t123 -194l-23 -166h-303l23 165h81l4 -69q2 -11 15 -11h106l6 45q-72 31 -112 95t-40 145q0 160 107.5 263.5t268.5 103.5t235.5 -71.5t74.5 -195.5t-68 -211.5t-174 -129.5l-6 -44h101q14 0 17 11l25 69h81
l-24 -165h-297l23 166q146 56 174 147t28 141z" />
    <glyph glyph-name="onethird" unicode="&#x2153;" horiz-adv-x="905" 
d="M854 145q0 -72 -51 -112.5t-145 -40.5t-147 62l60 59q41 -45 88 -45q92 0 92 72q0 56 -62 56q-21 0 -49 -4l10 67l35 4q87 9 87 77q0 41 -46 41q-29 0 -44 -12.5t-20 -46.5l-95 9q15 122 161 122t146 -99q0 -46 -26.5 -76t-64.5 -42v-2q71 -17 71 -89zM275 -17h-107
l462 741h106zM304 281h-237l7 53l56 5q11 1 13 13l43 294q3 11 -7 13l-57 12l9 53h171l-55 -372q-3 -11 9 -13l55 -5z" />
    <glyph glyph-name="twothirds" unicode="&#x2154;" horiz-adv-x="905" 
d="M877 145q0 -72 -50.5 -112.5t-144.5 -40.5t-148 62l60 59q41 -45 88 -45q92 0 92 72q0 56 -62 56q-21 0 -49 -4l10 67l35 4q87 9 87 77q0 41 -46 41q-29 0 -44 -12.5t-20 -46.5l-95 9q15 122 161 122t146 -99q0 -46 -26.5 -76t-64.5 -42v-2q71 -17 71 -89zM321 -17h-107
l462 741h106zM309 624q0 39 -41 39t-57 -13t-22 -47l-92 9q12 72 58.5 97t119.5 25q138 0 138 -101q0 -51 -31 -86t-63 -67l-133 -134h110q10 0 12 8l16 48h72l-18 -121h-324l9 61l149 149q66 66 81.5 90.5t15.5 42.5z" />
    <glyph glyph-name="oneeighth" unicode="&#x215b;" horiz-adv-x="905" 
d="M787 347q0 41 -51 41q-30 0 -47 -16t-17 -44t58 -62q57 50 57 81zM615 106q0 -49 60 -49q37 0 57 18.5t20 42.5t-17.5 38.5t-57.5 35.5q-62 -47 -62 -86zM736 453q134 -1 134 -105q0 -54 -79 -116q65 -38 65 -102t-54.5 -101t-128.5 -37q-146 0 -146 102q0 44 25.5 74.5
t68.5 60.5q-48 35 -48 93t48.5 94.5t114.5 36.5zM282 -17h-107l462 741h106zM314 281h-237l7 53l56 5q11 1 13 13l43 294q3 11 -7 13l-57 12l9 53h171l-55 -372q-3 -11 9 -13l55 -5z" />
    <glyph glyph-name="threeeighths" unicode="&#x215c;" horiz-adv-x="905" 
d="M802 347q0 41 -51 41q-30 0 -47 -16t-17 -44t58 -62q57 50 57 81zM630 106q0 -49 60 -49q37 0 57 18.5t20 42.5t-17.5 38.5t-57.5 35.5q-62 -47 -62 -86zM750 453q134 -1 135 -105q0 -54 -79 -116q65 -38 65 -102t-54.5 -101t-128.5 -37q-146 0 -146 102q0 44 25.5 74.5
t68.5 60.5q-48 35 -48 93t48 94.5t114 36.5zM306 -17h-107l462 741h106zM394 426q0 -72 -51 -112.5t-145 -40.5t-147 62l60 59q41 -45 88 -45q92 0 92 72q0 56 -62 56q-21 0 -49 -4l10 67l35 4q87 9 87 77q0 41 -46 41q-29 0 -44 -12.5t-20 -46.5l-95 9q15 122 161 122
t146 -99q0 -46 -26.5 -76t-64.5 -42v-2q71 -17 71 -89z" />
    <glyph glyph-name="fiveeighths" unicode="&#x215d;" horiz-adv-x="905" 
d="M807 347q0 41 -51 41q-30 0 -47 -16t-17 -44t58 -62q57 50 57 81zM635 106q0 -49 60 -49q37 0 57 18.5t20 42.5t-17.5 38.5t-57.5 35.5q-62 -47 -62 -86zM756 453q134 -1 134 -105q0 -54 -79 -116q65 -38 65 -102t-54.5 -101t-128.5 -37q-146 0 -146 102q0 44 25.5 74.5
t68.5 60.5q-48 35 -48 93t48.5 94.5t114.5 36.5zM310 -17h-107l462 741h106zM297 561q47 0 77 -30t30 -95t-51 -114t-149 -49t-152 60l60 59q42 -43 90 -43q98 0 98 85q0 55 -53 55q-35 0 -68 -31l-66 29l49 236h255l-13 -83h-176l-25 -104q47 25 94 25z" />
    <glyph glyph-name="seveneighths" unicode="&#x215e;" horiz-adv-x="905" 
d="M763 347q0 41 -51 41q-30 0 -47 -16t-17 -44t58 -62q57 50 57 81zM591 106q0 -49 60 -49q37 0 57 18.5t20 42.5t-17.5 38.5t-57.5 35.5q-62 -47 -62 -86zM712 453q134 -1 134 -105q0 -54 -79 -116q65 -38 65 -102t-54.5 -101t-128.5 -37q-146 0 -146 102q0 44 25.5 74.5
t68.5 60.5q-48 35 -48 93t48.5 94.5t114.5 36.5zM240 -17h-107l462 741h106zM173 640q-7 0 -10 -7l-15 -51l-69 -5l22 146h331l-11 -74q-69 -61 -126 -165t-74 -203h-110q27 119 85.5 215t112.5 144h-136z" />
    <glyph glyph-name="partialdiff" unicode="&#x2202;" horiz-adv-x="581" 
d="M300 330q-63 0 -96 -49.5t-33 -101.5q0 -104 80 -104q48 0 97 44.5t71 156.5q-56 54 -119 54zM236 -12q-183 0 -183 186q0 96 66 167t161 71t157 -56q8 66 8 105q0 125 -100 125q-77 0 -155 -52l-37 73q104 67 219 67q184 0 184 -249q0 -224 -96.5 -330.5t-223.5 -106.5z
" />
    <glyph glyph-name="Delta" unicode="&#x2206;" horiz-adv-x="688" 
d="M509 94l-95 519h-3l-247 -519h345zM660 0h-652l355 724h140z" />
    <glyph glyph-name="product" unicode="&#x220f;" horiz-adv-x="786" 
d="M702 -176h-279l9 60l64 7q11 2 14.5 5.5t4.5 14.5l102 727h-316l-102 -726q-2 -12 0 -15.5t13 -4.5l66 -8l-9 -60h-279l9 60l64 7q11 2 14.5 5.5t4.5 14.5l101 724q2 12 -0.5 15.5t-12.5 4.5l-62 7l9 62h712l-9 -62l-68 -8q-11 -2 -14.5 -5t-4.5 -14l-101 -723
q-2 -12 0 -15.5t13 -4.5l66 -8z" />
    <glyph glyph-name="summation" unicode="&#x2211;" horiz-adv-x="627" 
d="M518 638h-280l143 -354l-269 -363h319q14 0 17 11l28 88h84l-26 -196h-565l9 71l285 381l-163 383l9 65h537l-25 -180l-84 4l-3 77q-1 13 -16 13z" />
    <glyph glyph-name="minus" unicode="&#x2212;" horiz-adv-x="570" 
d="M491 275h-381l13 95h381z" />
    <glyph glyph-name="uni2215" unicode="&#x2215;" horiz-adv-x="454" 
d="M120 -17h-102l404 648h101z" />
    <glyph glyph-name="uni2219" unicode="&#x2219;" horiz-adv-x="289" 
d="M115 301q0 82 85 82q64 0 64 -56q0 -82 -84 -82q-65 0 -65 56z" />
    <glyph glyph-name="radical" unicode="&#x221a;" horiz-adv-x="573" 
d="M360 0h-113l-94 219q-5 11 -17 8l-65 -17l-21 69l157 70l96 -237l258 633l93 -24z" />
    <glyph glyph-name="infinity" unicode="&#x221e;" horiz-adv-x="664" 
d="M506 398q-31 0 -54.5 -17t-51.5 -51q57 -74 107 -74q28 0 45.5 20t17.5 50t-16.5 51t-47.5 21zM134 319q0 -74 68 -74q47 0 103 69q-53 75 -106 75q-29 0 -47 -20t-18 -50zM221 461q75 0 138 -78q72 78 140 78t105 -34.5t37 -98.5t-40 -106t-115 -42t-142 79
q-69 -79 -137 -79t-106 34t-38 98t41.5 106.5t116.5 42.5z" />
    <glyph glyph-name="integral" unicode="&#x222b;" horiz-adv-x="487" 
d="M193 -104q56 0 50 69l-52 615q-7 76 34 111.5t99 35.5t115 -21l-22 -82q-35 17 -70 17q-57 0 -52 -63l54 -621q7 -77 -33.5 -111.5t-99.5 -34.5t-116 22l22 80q35 -17 71 -17z" />
    <glyph glyph-name="approxequal" unicode="&#x2248;" horiz-adv-x="530" 
d="M181 418q-30 0 -66 -47l-55 27q31 54 59.5 80t69.5 26t113 -20.5t96 -20.5t35 10.5t24 37.5l58 -18q-20 -56 -44.5 -85.5t-65.5 -29.5t-117.5 20t-106.5 20zM401 202q-41 0 -117 20.5t-100 20.5t-38.5 -10.5t-34.5 -36.5l-55 26q31 54 59.5 80t69.5 26t113 -20.5
t96 -20.5t34 10.5t24 37.5l59 -18q-20 -55 -44.5 -85t-65.5 -30z" />
    <glyph glyph-name="notequal" unicode="&#x2260;" horiz-adv-x="570" 
d="M494 147h-199l-50 -90h-88l50 90h-91l14 97h132l42 75h-164l14 97h205l49 87h87l-49 -87h86l-14 -97h-126l-42 -75h158z" />
    <glyph glyph-name="lessequal" unicode="&#x2264;" horiz-adv-x="570" 
d="M458 0h-381l13 95h381zM473 114l-361 142l17 116l383 144l15 -89l-309 -111l281 -109z" />
    <glyph glyph-name="greaterequal" unicode="&#x2265;" horiz-adv-x="570" 
d="M451 0h-381l13 95h381zM487 256l-401 -142l2 95l311 110l-278 108l27 94l355 -149z" />
    <glyph glyph-name="triangle" unicode="&#x25b3;" horiz-adv-x="425" 
d="M352 320l-185 -117v231z" />
    <glyph glyph-name="lozenge" unicode="&#x25ca;" horiz-adv-x="546" 
d="M261 81l139 226l-76 221l-138 -221zM291 -17h-88l-111 324l202 324h88l111 -324z" />
    <glyph glyph-name="circle" unicode="&#x25cb;" horiz-adv-x="610" 
d="M329 119q-85 0 -145 60t-60 145t60 145t145 60t145 -60t60 -145t-60 -145t-145 -60z" />
    <glyph glyph-name="zero.tosf" unicode="&#xf81e;" horiz-adv-x="570" 
d="M268 73q162 0 162 310q0 116 -98 116q-70 0 -117 -65t-47 -227q0 -134 100 -134zM258 -12q-208 0 -208 217q0 50 5 86q42 296 289 296q204 0 204 -217q0 -40 -6 -83q-19 -144 -84 -221.5t-200 -77.5z" />
    <glyph glyph-name="eight.tosf" unicode="&#xf826;" horiz-adv-x="570" 
d="M429 503q0 67 -85 67q-45 0 -74 -23t-29 -60t26 -61.5t75 -51.5q87 71 87 129zM167 152q0 -83 103 -83q55 0 88 29.5t33 71.5t-18.5 57.5t-26.5 22.5t-76 46q-103 -72 -103 -144zM509 184q0 -90 -71 -143t-172 -53q-203 0 -203 147q0 65 36.5 113.5t99.5 91.5
q-69 47 -69 130t63 132t153 49t137 -37t47 -99q0 -97 -112 -182q91 -59 91 -149z" />
    <glyph glyph-name="st" unicode="&#xfb06;" horiz-adv-x="849" 
d="M269 452q-85 0 -85 -68q0 -33 29 -47.5t59 -25.5t90.5 -35t60.5 -113q0 -90 -62.5 -132.5t-138.5 -42.5t-129 11.5t-70 22.5l19 131l79 -5l2 -62q1 -27 71 -27q124 0 123 76q0 29 -22 46t-61 29q-68 21 -112.5 51t-44.5 106q0 77 61.5 118.5t125.5 41.5t103 -9
q6 102 26.5 137t50.5 46t94 11t179 -32l-22 -153q-2 -10 7 -10h141l-12 -82h-149l-38 -272q-3 -21 -3 -41q0 -44 60 -45q36 0 88 18l17 -73q-73 -34 -151 -34q-127 0 -127 122q0 28 4 55l65 460q-37 10 -66 10t-45 -11.5t-26 -61.5t-24 -198l-80 4l-2 58q0 26 -85 26z" />
    <glyph glyph-name="CR" 
 />
    <glyph glyph-name="hyphen.case" horiz-adv-x="317" 
d="M319 299h-271l15 104h271z" />
    <glyph glyph-name="ct" horiz-adv-x="875" 
d="M326 442q-68 0 -117 -56t-49 -172q0 -138 116 -138q70 0 136 33l22 -76q-74 -45 -180 -45q-211 0 -211 213q0 162 84 244t215 82q36 0 65 -6q7 107 33.5 149t105.5 42t197 -32l-22 -153q-2 -10 7 -10h141l-12 -82h-149l-38 -272q-3 -21 -3 -41q0 -44 60 -45q36 0 88 18
l17 -73q-73 -34 -151 -34q-127 0 -127 122q0 28 4 55l65 461q-34 9 -60 9t-46 -20.5t-42 -265.5l-78 4l-3 66q0 23 -68 23z" />
    <glyph glyph-name="ch" horiz-adv-x="1095" 
d="M254 -12q-211 0 -211 213q0 162 84 244t215 82q32 0 62 -5q15 171 59 209.5t125 38.5q80 0 175 -21l-44 -313q111 91 199 91q112 0 115 -115q0 -34 -4 -62l-38 -263q-2 -12 0.5 -15.5t13.5 -4.5l53 -8l-9 -59h-184l-2 3l19 104l32 220q4 32 4 49q0 50 -42 50
q-58 0 -168 -95l-34 -244q-2 -12 0 -15.5t13 -4.5l59 -8l-9 -59h-249l9 60l46 7q11 2 14.5 5t4.5 15l84 597q-24 6 -62 6t-54 -25t-28 -112t-27 -204l-78 4l-3 66q0 23 -68 23t-117 -56t-49 -172q0 -138 116 -138q70 0 136 33l22 -76q-74 -45 -180 -45z" />
    <glyph glyph-name="ck" horiz-adv-x="1068" 
d="M254 -12q-211 0 -211 213q0 162 84 244t215 82q32 0 62 -5q15 171 59 209.5t127 38.5q82 0 176 -21l-62 -450l184 175q57 53 121 53q28 0 49 -5l-9 -71q-57 4 -105 -43l-75 -72l96 -252q6 -14 27 -17l50 -9l-8 -58h-161l-3 3l-34 104l-63 158l-85 -80l-14 -98
q-2 -12 0 -15.5t13 -4.5l58 -8l-8 -59h-250l8 60l48 7q10 1 13 5t5 15l85 597q-24 6 -62 6t-54 -25t-28 -112t-27 -204l-78 4l-3 66q0 23 -68 23t-117 -56t-49 -172q0 -138 116 -138q70 0 136 33l22 -76q-74 -45 -180 -45z" />
    <glyph glyph-name="Th" horiz-adv-x="1139" 
d="M961 376q0 50 -42 50q-58 0 -168 -95l-34 -244q-2 -12 0 -15.5t13 -4.5l59 -8l-9 -59h-249l9 60l46 7q11 2 14.5 5t4.5 15l78 551h-229l-77 -551q-2 -11 0 -14.5t13 -4.5l110 -8l-8 -60h-362l8 60l103 8q11 1 14.5 4.5t5.5 14.5l77 551h-133q-14 0 -17 -11l-28 -87h-81
l25 184h580q13 0 17 11l7 20h100l-43 -319q111 91 196 91q112 0 115 -115q0 -34 -4 -62l-38 -263q-2 -12 0.5 -15.5t13.5 -4.5l53 -8l-9 -59h-184l-2 3l19 104l32 220q4 32 4 49z" />
    <glyph glyph-name="hyphensuperior" horiz-adv-x="223" 
d="M249 496h-183l12 84h183z" />
    <glyph glyph-name="commasuperior" horiz-adv-x="138" 
d="M161 404q0 -24 -20 -57l-48 -74l-45 13l29 70q3 5 -3 8l-26 9l25 72q44 -1 66 -9t22 -32z" />
    <glyph glyph-name="periodsuperior" horiz-adv-x="156" 
d="M175 403q0 -61 -65 -61q-52 0 -52 38q0 65 66 65q51 0 51 -42z" />
    <glyph glyph-name="a.sup" horiz-adv-x="404" 
d="M171 474q0 -56 39 -57q39 0 99 58l18 123q-27 27 -69 27t-64.5 -47.5t-22.5 -103.5zM180 342q-103 0 -103 128q0 87 42 155t128 68q54 0 93 -37l13 31h80q-15 -70 -17 -84l-28 -190q-1 -13 9 -14l31 -5l-6 -44h-123l8 54l-3 1q-66 -63 -124 -63z" />
    <glyph glyph-name="b.sup" horiz-adv-x="402" 
d="M266 411q38 0 58 43t20 103t-39 60q-32 0 -95 -53l-18 -121q36 -32 74 -32zM344 693q96 0 96 -125q0 -76 -35.5 -150t-123.5 -74q-58 0 -101 39h-3l-8 -33h-89q17 58 23 94l48 326q1 10 -7 13l-35 11l7 45h132l-30 -205l1 -1q70 60 125 60z" />
    <glyph glyph-name="c.sup" horiz-adv-x="338" 
d="M270 630q-41 0 -70 -34t-29 -110t72 -77q42 0 89 20l16 -55q-55 -32 -128 -32t-108.5 37t-35.5 121t58 138.5t138 54.5t117 -26l-14 -98l-62 3l-2 43q0 15 -41 15z" />
    <glyph glyph-name="d.sup" horiz-adv-x="406" 
d="M264 625q-35 0 -64 -35.5t-29 -104.5t43 -69q35 0 95 62l19 122q-29 25 -64 25zM180 342q-103 0 -103 128q0 77 39 150t131 73q51 0 91 -29l14 106q1 10 -6 14l-35 10l8 45h131l-62 -428q-3 -10 9 -12l31 -5l-6 -44h-123l8 53l-3 1q-67 -62 -124 -62z" />
    <glyph glyph-name="e.sup" horiz-adv-x="337" 
d="M297.5 602q0.5 27 -33.5 27t-58 -24.5t-32 -65.5q38 4 80.5 20t43 43zM216 342q-140 0 -140 136q0 97 56.5 156t125.5 59q124 0 124 -82q0 -109 -212 -128q1 -36 16 -55t54 -19t99 24l14 -59q-72 -32 -137 -32z" />
    <glyph glyph-name="f.sup" horiz-adv-x="280" 
d="M131 626h-44l8 61h51l7 45q17 114 132 114q67 0 112 -33l-34 -56q-37 24 -65 24t-39 -11t-16 -37l-6 -40q0 -6 5 -6h105l-8 -61h-112l-60 -414h-91l60 408q2 6 -5 6z" />
    <glyph glyph-name="g.sup" horiz-adv-x="395" 
d="M268 625q-57 0 -76.5 -49.5t-19.5 -102.5t40 -53t97 57l19 121q-29 27 -60 27zM181 345q-103 0 -103 125q0 79 38.5 151t130.5 72q57 0 94 -37l13 31h79q-13 -57 -17 -87l-38 -263q-20 -132 -161 -132q-86 0 -144 35l29 56q50 -27 98 -27t69.5 17.5t26.5 57.5l9 60l-2 1
q-72 -60 -122 -60z" />
    <glyph glyph-name="h.sup" horiz-adv-x="418" 
d="M311 617q-32 0 -96 -53l-21 -151q-2 -12 9 -14l36 -5l-6 -44h-178l6 45l31 4q11 2 12 13l52 358q1 12 -6 13l-34 11l6 45h131l-31 -208q78 62 135 62q70 0 73 -73q0 -19 -3 -40l-24 -167q-1 -11 8 -13l34 -6l-6 -44h-136l-3 3l14 68l23 161q6 35 -26 35z" />
    <glyph glyph-name="i.sup" horiz-adv-x="208" 
d="M230 350h-138l-2 3l16 85l26 179q1 12 -7 14l-34 10l7 46h133l-38 -274q-2 -12 9 -14l34 -5zM186 742q-49 0 -49 46q0 29 17.5 46t47.5 17q49 0 49 -45q0 -29 -17.5 -46.5t-47.5 -17.5z" />
    <glyph glyph-name="j.sup" horiz-adv-x="207" 
d="M187 742q-49 0 -49 46q0 29 17 46t48 17q50 0 50 -45q0 -29 -18 -46.5t-48 -17.5zM37 271q27 0 38 12.5t16 46.5l43 287q1 12 -7 14l-36 10l7 46h135l-54 -373q-15 -109 -115 -109q-79 0 -111 32l32 51q25 -17 52 -17z" />
    <glyph glyph-name="k.sup" horiz-adv-x="406" 
d="M414 694q15 0 37 -4l-6 -53q-38 1 -70 -27l-44 -40l60 -158q5 -12 18 -13l33 -5l-6 -44h-120l-2 2l-23 70l-39 96l-48 -43l-9 -63q-3 -11 8 -13l36 -5l-6 -44h-178l6 45l31 4q11 1 12 13l53 358q2 11 -7 13l-35 11l7 45h135l-41 -282l112 100q41 37 86 37z" />
    <glyph glyph-name="l.sup" horiz-adv-x="211" 
d="M229 350h-139l-1 3l16 85l48 332q3 11 -7 14l-33 10l6 45h135l-63 -426q-2 -12 9 -14l35 -5z" />
    <glyph glyph-name="m.sup" horiz-adv-x="597" 
d="M539 693q68 0 70 -69q0 -12 -4 -44l-24 -168q-1 -11 9 -13l34 -5l-6 -44h-138l-1 2l13 69l23 155q7 39 -19 39q-25 0 -84 -48l-23 -155q-2 -11 8 -13l35 -5l-7 -44h-137l-1 2l13 72l24 157q5 34 -22 34t-85 -51l-22 -152q-2 -11 9 -13l36 -5l-6 -44h-179l7 45l30 4
q11 1 12 13l30 205q2 11 -7 13l-33 11l6 46h127l-8 -55q76 61 133 61t63 -62q78 62 124 62z" />
    <glyph glyph-name="n.sup" horiz-adv-x="419" 
d="M351 693q77 0 80 -77q0 -18 -3 -36l-25 -168q-1 -10 9 -13l34 -5l-6 -44h-137l-1 2l13 75l22 159q4 31 -22 31q-39 0 -98 -53l-22 -152q-1 -12 9 -13l36 -5l-6 -44h-179l7 45l30 4q11 1 12 13l30 205q1 12 -7 13l-33 11l6 46h127l-8 -55q76 61 132 61z" />
    <glyph glyph-name="o.sup" horiz-adv-x="384" 
d="M233 408q96 0 96 144q0 76 -62 76q-44 0 -71 -35t-27 -110t64 -75zM234 342q-158 0 -158 142q0 94 52 151.5t138 57.5q156 0 157 -141q0 -97 -51.5 -153.5t-137.5 -56.5z" />
    <glyph glyph-name="p.sup" horiz-adv-x="405" 
d="M270 411q37 0 57 43.5t20 103.5t-39 59q-31 0 -94 -53l-18 -121q37 -32 74 -32zM345 693q98 0 98 -124t-50.5 -175t-104.5 -51t-102 34l-16 -101q-1 -10 9 -11l67 -7l-7 -46h-169l-2 3l20 109l43 293q2 12 -7 13l-34 11l7 46h127l-8 -54q72 60 129 60z" />
    <glyph glyph-name="q.sup" horiz-adv-x="395" 
d="M257 625q-42 0 -64 -48t-22 -104q1 -56 37 -56t101 60l19 121q-29 27 -71 27zM175 343q-98 0 -98 127q0 74 38.5 148t125.5 74q60 0 100 -36l12 31h81q-15 -58 -19 -87l-46 -325q-2 -10 9 -12l32 -4l-7 -47h-192l6 47l58 5q12 1 13 13l19 127l-2 1q-71 -62 -130 -62z" />
    <glyph glyph-name="r.sup" horiz-adv-x="312" 
d="M328 693q32 0 49 -6l-15 -115l-72 4l-1 36q0 8 -12 8t-58 -44l-23 -163q-3 -11 9 -13l64 -6l-7 -44h-207l7 45l31 4q11 1 12 13l29 205q1 11 -6 13l-34 11l6 46h126l-9 -61q52 67 111 67z" />
    <glyph glyph-name="s.sup" horiz-adv-x="318" 
d="M234 635q-52 0 -53 -34q0 -17 15.5 -26.5t55.5 -20.5q94 -25 93 -95q0 -59 -46.5 -88t-122.5 -29t-113 23l13 90l63 -4l1 -36q0 -18 60 -18t60 42q0 24 -20 31.5t-44 15.5q-45 15 -72 32.5t-27 67.5t44.5 78.5t114.5 28.5t108 -19l-13 -95l-64 6l-1 32q0 18 -52 18z" />
    <glyph glyph-name="t.sup" horiz-adv-x="283" 
d="M198 342q-93 0 -93 74q0 14 3 33l25 171q1 6 -5 6h-46l8 55q41 6 64 28t36 69h57l-13 -85q0 -6 4 -6h95l-8 -61h-100l-24 -162q-2 -18 -2 -22q0 -33 39 -33q20 0 57 11l12 -54q-54 -24 -109 -24z" />
    <glyph glyph-name="u.sup" horiz-adv-x="417" 
d="M180 343q-75 0 -75 80q0 15 3 36l24 165q1 8 0 10t-9 3l-33 5l7 45h131l3 -4l-31 -210q-2 -18 -2 -24q0 -28 30 -28t91 54l22 149q1 12 -9 13l-35 5l6 45h134l4 -4l-41 -271q-2 -11 7 -12l35 -6l-6 -44h-128l9 55l-2 1q-80 -63 -135 -63z" />
    <glyph glyph-name="v.sup" horiz-adv-x="395" 
d="M285 350h-106l-54 275q-2 8 -12 11l-27 6l6 45h119l6 -6l33 -253h2l107 209l-44 5l6 45h128l7 -18z" />
    <glyph glyph-name="w.sup" horiz-adv-x="571" 
d="M489 350h-103l-28 231h-2l-88 -231h-110l-43 275q-2 9 -12 12l-28 6l8 44h116l5 -6l27 -247h2l92 248h100l34 -249h2l88 205l-38 5l7 44h109l7 -17z" />
    <glyph glyph-name="x.sup" horiz-adv-x="393" 
d="M416 350h-109l-6 4l-63 114l-64 -68l42 -6l-6 -44h-165l5 43l31 6q10 1 18 11l104 108l-61 107q-7 10 -14 11l-26 6l6 45h101l6 -5l55 -105l60 61l-35 5l7 44h156l-7 -44l-28 -7q-11 -2 -20 -13l-99 -97l67 -114q5 -11 16 -12l37 -6z" />
    <glyph glyph-name="y.sup" horiz-adv-x="384" 
d="M102 205q-55 0 -93 32l33 51q32 -19 64 -19t64 49l20 36l-70 271q-2 10 -11 11l-28 7l7 44h112l5 -7l47 -228h2l97 185l-41 6l6 44h122l8 -18l-202 -371q-27 -49 -57 -71t-85 -22z" />
    <glyph glyph-name="z.sup" horiz-adv-x="344" 
d="M178 629q-7 0 -10 -7l-14 -38l-61 -3l14 106h287l-7 -52l-209 -228h107q7 0 10 8l15 45l63 3l-16 -113h-297l7 50l212 229h-101z" />
    <glyph glyph-name="hypheninferior" horiz-adv-x="223" 
d="M184 -1h-183l12 84h183z" />
    <glyph glyph-name="commainferior" horiz-adv-x="138" 
d="M96 -100q0 -18 -20 -50l-48 -74l-45 13l29 70q3 5 -3 8l-26 9l25 72q66 0 77 -15t11 -33z" />
    <glyph glyph-name="periodinferior" horiz-adv-x="156" 
d="M110 -94q0 -61 -65 -61q-52 0 -52 38q0 65 66 65q51 0 51 -42z" />
    <glyph glyph-name="minusinferior" horiz-adv-x="321" 
d="M278 38h-262l11 75h261z" />
    <glyph glyph-name="plusinferior" horiz-adv-x="321" 
d="M174 -56h-82l13 94h-89l11 75h89l13 91h82l-13 -91h90l-10 -75h-90z" />
    <glyph glyph-name="equalinferior" horiz-adv-x="321" 
d="M283 76h-261l11 76h261zM265 -50h-261l11 77h261z" />
    <glyph glyph-name="a.sinf" horiz-adv-x="404" 
d="M106 -24q0 -56 39 -56t99 58l18 123q-28 27 -70 27t-64 -48t-22 -104zM115 -155q-103 0 -103 128q0 87 42 155t128 68q54 0 93 -37l13 31h80q-15 -70 -17 -84l-28 -190q-1 -13 9 -14l31 -5l-6 -44h-123l8 54l-3 1q-66 -63 -124 -63z" />
    <glyph glyph-name="b.sinf" horiz-adv-x="402" 
d="M201 -86q38 0 58 43t20 103t-39 60q-32 0 -95 -53l-18 -121q36 -32 74 -32zM279 196q96 0 96 -125q0 -76 -35.5 -150t-123.5 -74q-58 0 -101 39h-3l-8 -33h-89q17 58 23 94l48 326q1 10 -7 13l-35 11l7 45h132l-30 -205l1 -1q70 60 125 60z" />
    <glyph glyph-name="c.sinf" horiz-adv-x="338" 
d="M205 133q-41 0 -70 -34.5t-29 -110.5t72 -76q42 0 89 20l16 -55q-55 -32 -128 -32t-108.5 37t-35.5 121t57.5 138.5t137.5 54.5t118 -26l-14 -98l-62 3l-2 43q0 15 -41 15z" />
    <glyph glyph-name="d.sinf" horiz-adv-x="406" 
d="M199 128q-35 0 -64 -35.5t-29 -104.5t43 -69q35 0 95 62l19 122q-29 25 -64 25zM115 -155q-103 0 -103 128q0 77 39 150t131 73q51 0 91 -29l14 106q1 10 -6 14l-35 10l8 45h131l-62 -428q-3 -10 9 -12l31 -5l-6 -44h-123l8 53l-3 1q-67 -62 -124 -62z" />
    <glyph glyph-name="e.sinf" horiz-adv-x="337" 
d="M232 105q0 27 -34 27t-57.5 -24.5t-31.5 -65.5q38 4 80.5 20t42.5 43zM151 -155q-140 0 -140 136q0 97 56.5 156t125.5 59q124 0 124 -82q0 -109 -212 -128q1 -36 16 -55t54 -19t99 24l14 -59q-72 -32 -137 -32z" />
    <glyph glyph-name="f.sinf" horiz-adv-x="280" 
d="M66 129h-44l8 61h51l7 45q17 114 132 114q67 0 112 -33l-34 -56q-38 24 -66 24t-38.5 -11t-15.5 -37l-6 -40q0 -6 5 -6h105l-8 -61h-112l-60 -414h-91l60 408q1 6 -5 6z" />
    <glyph glyph-name="g.sinf" horiz-adv-x="395" 
d="M203 128q-57 0 -76.5 -49.5t-19.5 -102.5t40 -53t97 57l19 121q-29 27 -60 27zM13 -27q0 79 38.5 151t130.5 72q57 0 94 -37l13 31h79q-13 -57 -17 -87l-38 -263q-20 -132 -161 -132q-86 0 -144 35l29 56q51 -27 99 -27t69 17.5t26 57.5l9 60l-2 1q-72 -60 -122 -60
q-103 0 -103 125z" />
    <glyph glyph-name="h.sinf" horiz-adv-x="418" 
d="M246 120q-32 0 -96 -53l-21 -151q-2 -12 9 -14l36 -5l-6 -44h-178l6 45l31 4q11 2 12 13l52 358q1 12 -6 13l-34 11l6 45h131l-31 -208q78 62 135 62q70 0 73 -73q0 -19 -3 -40l-24 -167q-1 -11 8 -13l34 -6l-6 -44h-136l-3 3l14 68l23 161q6 35 -26 35z" />
    <glyph glyph-name="i.sinf" horiz-adv-x="208" 
d="M165 -147h-138l-2 3l16 85l26 179q1 12 -7 14l-34 10l7 46h133l-38 -274q-2 -12 9 -14l34 -5zM121 245q-49 0 -49 46q0 29 17.5 46t47.5 17q49 0 49 -45q0 -29 -17.5 -46.5t-47.5 -17.5z" />
    <glyph glyph-name="j.sinf" horiz-adv-x="207" 
d="M122 245q-49 0 -49 46q0 29 17 46t48 17q50 0 50 -45q0 -29 -18 -46.5t-48 -17.5zM-28 -226q26 0 37.5 12.5t16.5 46.5l43 287q1 12 -7 14l-36 10l7 46h135l-54 -373q-15 -109 -115 -109q-79 0 -111 32l32 51q26 -17 52 -17z" />
    <glyph glyph-name="k.sinf" horiz-adv-x="406" 
d="M349 197q15 0 37 -4l-6 -53q-38 1 -70 -27l-44 -40l60 -158q5 -12 18 -13l33 -5l-6 -44h-120l-2 2l-23 70l-39 96l-48 -43l-9 -63q-3 -11 8 -13l36 -5l-6 -44h-178l6 45l31 4q11 1 12 13l53 358q2 11 -7 13l-35 11l7 45h135l-41 -282l112 100q41 37 86 37z" />
    <glyph glyph-name="l.sinf" horiz-adv-x="211" 
d="M164 -147h-139l-1 3l16 85l48 332q3 11 -7 14l-33 10l6 45h135l-63 -426q-2 -12 9 -14l35 -5z" />
    <glyph glyph-name="m.sinf" horiz-adv-x="597" 
d="M237 118q-27 0 -85 -51l-22 -152q-2 -11 9 -13l36 -5l-6 -44h-179l7 45l30 4q11 1 12 13l30 205q2 11 -7 13l-33 11l6 46h127l-8 -55q76 61 133 61t63 -62q78 62 124 62q68 0 70 -69q0 -12 -4 -44l-24 -168q-1 -11 9 -13l34 -5l-6 -44h-138l-1 2l13 69l23 155
q7 39 -19 39q-25 0 -84 -48l-23 -155q-2 -11 8 -13l35 -5l-7 -44h-137l-1 2l13 72l24 157q5 34 -22 34z" />
    <glyph glyph-name="n.sinf" horiz-adv-x="419" 
d="M286 196q77 0 80 -77q0 -18 -3 -36l-25 -168q-1 -10 9 -13l34 -5l-6 -44h-137l-1 2l13 75l22 159q4 31 -22 31q-39 0 -98 -53l-22 -152q-1 -12 9 -13l36 -5l-6 -44h-179l7 45l30 4q11 1 12 13l30 205q1 12 -7 13l-33 11l6 46h127l-8 -55q76 61 132 61z" />
    <glyph glyph-name="o.sinf" horiz-adv-x="384" 
d="M168 -89q96 0 96 144q0 76 -62 76q-44 0 -71 -35t-27 -110t64 -75zM168 -155q-158 0 -157 142q0 94 52.5 151.5t138.5 57.5q156 0 156 -141q0 -97 -52 -153.5t-138 -56.5z" />
    <glyph glyph-name="p.sinf" horiz-adv-x="405" 
d="M205 -86q37 0 57 43t20 103t-39 60q-31 0 -94 -53l-18 -121q37 -32 74 -32zM280 196q98 0 98 -124t-50 -175t-104 -51t-103 34l-16 -101q-1 -10 9 -11l67 -7l-7 -46h-169l-2 3l20 109l43 293q2 12 -7 13l-34 11l7 46h127l-8 -54q72 60 129 60z" />
    <glyph glyph-name="q.sinf" horiz-adv-x="395" 
d="M192 128q-42 0 -64 -48t-22 -104t36 -56t102 60l19 121q-29 27 -71 27zM110 -154q-98 0 -98 127q0 74 38.5 148t125.5 74q60 0 100 -36l12 31h81q-15 -58 -19 -87l-46 -325q-2 -10 9 -12l32 -4l-7 -47h-192l6 47l58 5q12 1 13 13l19 127l-2 1q-71 -62 -130 -62z" />
    <glyph glyph-name="r.sinf" horiz-adv-x="312" 
d="M263 196q33 0 49 -6l-15 -115l-72 4l-1 36q0 8 -12 8t-58 -44l-23 -163q-3 -11 9 -13l64 -6l-7 -44h-207l7 45l31 4q11 1 12 13l29 205q1 11 -6 13l-34 11l6 46h126l-9 -61q52 67 111 67z" />
    <glyph glyph-name="s.sinf" horiz-adv-x="318" 
d="M168 138q-52 0 -52 -34q0 -17 15 -26.5t55 -20.5q94 -25 94 -95q0 -59 -46.5 -88t-122.5 -29t-113 23l13 90l63 -4l1 -36q0 -18 60 -18t60 42q0 24 -20.5 31.5t-44.5 15.5q-45 15 -71.5 32.5t-26.5 67.5t44 78.5t114 28.5t109 -19l-13 -95l-64 6l-1 32q-1 18 -53 18z" />
    <glyph glyph-name="t.sinf" horiz-adv-x="283" 
d="M133 -155q-93 0 -93 74q0 13 3 33l25 171q2 6 -5 6h-46l8 55q41 6 64 28t36 69h57l-13 -85q0 -6 4 -6h95l-8 -61h-100l-24 -162q-2 -18 -2 -22q0 -33 39 -33q20 0 57 11l12 -54q-54 -24 -109 -24z" />
    <glyph glyph-name="u.sinf" horiz-adv-x="417" 
d="M40 -74q0 15 3 36l24 165q1 8 0 10t-9 3l-33 5l7 45h131l3 -4l-31 -210q-2 -18 -2 -24q-1 -28 29 -28t92 54l22 149q1 12 -9 13l-35 5l6 45h134l4 -4l-41 -271q-2 -11 7 -12l35 -6l-6 -44h-128l9 55l-2 1q-80 -63 -135 -63q-75 0 -75 80z" />
    <glyph glyph-name="v.sinf" horiz-adv-x="395" 
d="M220 -147h-106l-54 275q-2 8 -12 11l-27 6l6 45h119l6 -6l33 -253h2l107 209l-44 5l6 45h128l7 -18z" />
    <glyph glyph-name="w.sinf" horiz-adv-x="571" 
d="M424 -147h-103l-28 231h-2l-88 -231h-110l-43 275q-2 9 -12 12l-28 6l8 44h116l5 -6l27 -247h2l92 248h100l34 -249h2l88 205l-38 5l7 44h109l7 -17z" />
    <glyph glyph-name="x.sinf" horiz-adv-x="393" 
d="M351 -147h-109l-6 4l-63 114l-64 -68l42 -6l-6 -44h-165l5 43l31 6q10 1 18 11l104 108l-61 107q-7 10 -14 11l-26 6l6 45h101l6 -5l55 -105l60 61l-35 5l7 44h156l-7 -44l-28 -7q-11 -2 -20 -13l-99 -97l67 -114q5 -11 16 -12l37 -6z" />
    <glyph glyph-name="y.sinf" horiz-adv-x="384" 
d="M37 -292q-55 0 -93 32l33 51q33 -19 65 -19t63 49l20 36l-70 271q-2 10 -11 11l-28 7l7 44h112l5 -7l47 -228h2l97 185l-41 6l6 44h122l8 -18l-202 -371q-27 -49 -57 -71t-85 -22z" />
    <glyph glyph-name="z.sinf" horiz-adv-x="344" 
d="M113 132q-7 0 -10 -7l-14 -38l-61 -3l14 106h287l-7 -52l-209 -228h107q7 0 10 8l15 45l63 3l-16 -113h-297l7 50l212 229h-101z" />
    <glyph glyph-name="zero.num" horiz-adv-x="424" 
d="M251 349q35 0 55 35t30 102t9.5 103t-12 52.5t-45.5 16.5t-55 -35t-31 -101t-9 -102q0 -36 11.5 -53.5t46.5 -17.5zM233 273q-148 0 -148 155q0 306 222 306q146 0 146 -154q0 -29 -7 -76q-16 -118 -65 -174.5t-148 -56.5z" />
    <glyph glyph-name="one.num" horiz-adv-x="278" 
d="M284 281h-237l7 53l56 5q11 1 13 13l43 294q3 11 -7 13l-57 12l9 53h171l-55 -372q-3 -11 9 -13l55 -5z" />
    <glyph glyph-name="two.num" horiz-adv-x="363" 
d="M296 624q0 39 -41 39t-57 -13t-22 -47l-92 9q12 72 58.5 97t119.5 25q138 0 138 -101q0 -51 -31 -86t-63 -67l-133 -134h110q10 0 12 8l16 48h72l-18 -121h-324l9 61l149 149q65 66 81 90.5t16 42.5z" />
    <glyph glyph-name="three.num" horiz-adv-x="371" 
d="M381 426q0 -72 -50.5 -112.5t-144.5 -40.5t-148 62l60 59q41 -45 88 -45q92 0 92 72q0 56 -62 56q-21 0 -49 -4l10 67l35 4q87 9 87 77q0 41 -46 41q-29 0 -44 -12.5t-20 -46.5l-95 9q15 122 161 122t146 -99q0 -46 -26.5 -76t-64.5 -42v-2q71 -17 71 -89z" />
    <glyph glyph-name="four.num" horiz-adv-x="409" 
d="M269 441l25 183l-134 -183h109zM342 281h-96l11 81h-198l11 71l212 289h122l-39 -281h55l-12 -79h-55z" />
    <glyph glyph-name="five.num" horiz-adv-x="370" 
d="M282 561q47 0 77 -30t30 -95t-50.5 -114t-148.5 -49t-153 60l60 59q41 -43 89 -43q98 0 99 85q0 55 -53 55q-35 0 -68 -31l-66 29l49 236h255l-13 -83h-176l-25 -104q47 25 94 25z" />
    <glyph glyph-name="six.num" horiz-adv-x="406" 
d="M321 436q0 50 -47 50q-34 0 -71 -23q-3 -27 -3 -34q0 -84 54 -84q31 0 49 25.5t18 65.5zM322 659q-44 0 -74.5 -37t-39.5 -92q56 27 104 27t79 -29t31 -98t-50 -113t-128 -44q-146 0 -145 166q0 100 54.5 197t182.5 97q68 0 116 -47l-51 -56q-35 29 -79 29z" />
    <glyph glyph-name="seven.num" horiz-adv-x="378" 
d="M183 640q-7 0 -10 -7l-15 -51l-69 -5l22 146h331l-11 -74q-69 -61 -126 -165t-74 -203h-110q27 119 85.5 215t112.5 144h-136z" />
    <glyph glyph-name="eight.num" horiz-adv-x="376" 
d="M327 628q0 41 -51 41q-30 0 -47 -16t-17 -44t58 -62q57 50 57 81zM155 387q0 -49 60 -49q37 0 57 18t20 42t-17.5 39t-57.5 36q-62 -47 -62 -86zM276 734q134 0 134 -104q0 -54 -79 -117q65 -39 65 -103t-54.5 -100.5t-128.5 -36.5q-146 0 -146 102q0 44 25.5 74.5
t68.5 60.5q-48 35 -48 93t48.5 94.5t114.5 36.5z" />
    <glyph glyph-name="nine.num" horiz-adv-x="414" 
d="M327 585q0 77 -53 77q-32 0 -49 -27.5t-17 -66.5q0 -61 50 -61q32 0 64 23q5 25 5 55zM212 346q44 0 68.5 27.5t35.5 88.5q-46 -26 -98 -26t-84 31t-32 101t51.5 118t131.5 48q146 0 146 -174q0 -97 -46 -192t-171 -95q-90 0 -138 50l51 58q41 -35 85 -35z" />
    <glyph glyph-name="parenleft.ordn" horiz-adv-x="270" 
d="M103 415q0 175 165 349l71 -45q-67 -80 -96.5 -153.5t-29.5 -165.5t47 -188l-85 -44q-72 106 -72 247z" />
    <glyph glyph-name="parenright.ordn" horiz-adv-x="261" 
d="M150 530q0 92 -47 190l85 44q72 -108 72 -247q0 -174 -166 -349l-70 45q68 79 97 152t29 165z" />
    <glyph glyph-name="hyphen.ordn" horiz-adv-x="223" 
d="M249 427h-183l12 84h183z" />
    <glyph glyph-name="comma.ordn" horiz-adv-x="138" 
d="M161 328q0 -18 -20 -50l-48 -74l-45 13l29 70q3 5 -3 8l-26 9l25 72q66 0 77 -15t11 -33z" />
    <glyph glyph-name="period.ordn" horiz-adv-x="156" 
d="M175 334q0 -61 -65 -61q-52 0 -52 38q0 65 66 65q51 0 51 -42z" />
    <glyph glyph-name="minus.ordn" horiz-adv-x="321" 
d="M343 466h-262l11 75h261z" />
    <glyph glyph-name="plus.ordn" horiz-adv-x="321" 
d="M239 372h-82l13 94h-89l11 75h89l13 91h82l-13 -91h90l-10 -75h-90z" />
    <glyph glyph-name="equal.ordn" horiz-adv-x="321" 
d="M348 504h-261l11 76h261zM330 378h-261l11 77h261z" />
    <glyph glyph-name="a.ordn" horiz-adv-x="404" 
d="M171 404q0 -56 39 -56t99 58l18 123q-27 27 -69 27t-64.5 -48t-22.5 -104zM180 273q-103 0 -103 128q0 87 42 155t128 68q54 0 93 -37l13 31h80q-15 -70 -17 -84l-28 -190q-1 -13 9 -14l31 -5l-6 -44h-123l8 54l-3 1q-66 -63 -124 -63z" />
    <glyph glyph-name="b.ordn" horiz-adv-x="402" 
d="M266 342q38 0 58 43t20 103t-39 60q-32 0 -95 -53l-18 -121q36 -32 74 -32zM344 624q96 0 96 -125q0 -76 -35.5 -150t-123.5 -74q-58 0 -101 39h-3l-8 -33h-89q17 58 23 94l48 326q1 10 -7 13l-35 11l7 45h132l-30 -205l1 -1q70 60 125 60z" />
    <glyph glyph-name="c.ordn" horiz-adv-x="338" 
d="M270 561q-41 0 -70 -34.5t-29 -110.5t72 -76q42 0 89 20l16 -55q-55 -32 -128 -32t-108.5 37t-35.5 121t58 138.5t138 54.5t117 -26l-14 -98l-62 3l-2 43q0 15 -41 15z" />
    <glyph glyph-name="d.ordn" horiz-adv-x="406" 
d="M264 556q-35 0 -64 -35.5t-29 -104.5t43 -69q35 0 95 62l19 122q-29 25 -64 25zM180 273q-103 0 -103 128q0 77 39 150t131 73q51 0 91 -29l14 106q1 10 -6 14l-35 10l8 45h131l-62 -428q-3 -10 9 -12l31 -5l-6 -44h-123l8 53l-3 1q-67 -62 -124 -62z" />
    <glyph glyph-name="e.ordn" horiz-adv-x="337" 
d="M297.5 533q0.5 27 -33.5 27t-58 -24.5t-32 -65.5q38 4 80.5 20t43 43zM216 273q-140 0 -140 136q0 97 56.5 156t125.5 59q124 0 124 -82q0 -109 -212 -128q1 -36 16 -55t54 -19t99 24l14 -59q-72 -32 -137 -32z" />
    <glyph glyph-name="f.ordn" horiz-adv-x="280" 
d="M131 557h-44l8 61h51l7 45q17 114 132 114q67 0 112 -33l-34 -56q-37 24 -65 24t-39 -11t-16 -37l-6 -40q0 -6 5 -6h105l-8 -61h-112l-60 -414h-91l60 408q2 6 -5 6z" />
    <glyph glyph-name="g.ordn" horiz-adv-x="395" 
d="M268 556q-57 0 -76.5 -49.5t-19.5 -102.5t40 -53t97 57l19 121q-29 27 -60 27zM181 276q-103 0 -103 125q0 79 38.5 151t130.5 72q57 0 94 -37l13 31h79q-13 -57 -17 -87l-38 -263q-20 -132 -161 -132q-86 0 -144 35l29 56q50 -27 98 -27t69.5 17.5t26.5 57.5l9 60l-2 1
q-72 -60 -122 -60z" />
    <glyph glyph-name="h.ordn" horiz-adv-x="419" 
d="M311 548q-32 0 -96 -53l-21 -151q-2 -12 9 -14l36 -5l-6 -44h-178l6 45l31 4q11 2 12 13l52 358q1 12 -6 13l-34 11l6 45h131l-31 -208q78 62 135 62q70 0 73 -73q0 -19 -3 -40l-24 -167q-1 -11 8 -13l34 -6l-6 -44h-136l-3 3l14 68l23 161q6 35 -26 35z" />
    <glyph glyph-name="i.ordn" horiz-adv-x="207" 
d="M230 281h-138l-2 3l16 85l26 179q1 12 -7 14l-34 10l7 46h133l-38 -274q-2 -12 9 -14l34 -5zM186 673q-49 0 -49 46q0 29 17.5 46t47.5 17q49 0 49 -45q0 -29 -17.5 -46.5t-47.5 -17.5z" />
    <glyph glyph-name="j.ordn" horiz-adv-x="207" 
d="M187 673q-49 0 -49 46q0 29 17 46t48 17q50 0 50 -45q0 -29 -18 -46.5t-48 -17.5zM37 202q27 0 38 12.5t16 46.5l43 287q1 12 -7 14l-36 10l7 46h135l-54 -373q-15 -109 -115 -109q-79 0 -111 32l32 51q25 -17 52 -17z" />
    <glyph glyph-name="k.ordn" horiz-adv-x="406" 
d="M414 625q15 0 37 -4l-6 -53q-38 1 -70 -27l-44 -40l60 -158q5 -12 18 -13l33 -5l-6 -44h-120l-2 2l-23 70l-39 96l-48 -43l-9 -63q-3 -11 8 -13l36 -5l-6 -44h-178l6 45l31 4q11 1 12 13l53 358q2 11 -7 13l-35 11l7 45h135l-41 -282l112 100q41 37 86 37z" />
    <glyph glyph-name="l.ordn" horiz-adv-x="211" 
d="M229 281h-139l-1 3l16 85l48 332q3 11 -7 14l-33 10l6 45h135l-63 -426q-2 -12 9 -14l35 -5z" />
    <glyph glyph-name="m.ordn" horiz-adv-x="597" 
d="M539 624q68 0 70 -69q0 -12 -4 -44l-24 -168q-1 -11 9 -13l34 -5l-6 -44h-138l-1 2l13 69l23 155q7 39 -19 39q-25 0 -84 -48l-23 -155q-2 -11 8 -13l35 -5l-7 -44h-137l-1 2l13 72l24 157q5 34 -22 34t-85 -51l-22 -152q-2 -11 9 -13l36 -5l-6 -44h-179l7 45l30 4
q11 1 12 13l30 205q2 11 -7 13l-33 11l6 46h127l-8 -55q76 61 133 61t63 -62q78 62 124 62z" />
    <glyph glyph-name="n.ordn" horiz-adv-x="419" 
d="M351 624q77 0 80 -77q0 -18 -3 -36l-25 -168q-1 -10 9 -13l34 -5l-6 -44h-137l-1 2l13 75l22 159q4 31 -22 31q-39 0 -98 -53l-22 -152q-1 -12 9 -13l36 -5l-6 -44h-179l7 45l30 4q11 1 12 13l30 205q1 12 -7 13l-33 11l6 46h127l-8 -55q76 61 132 61z" />
    <glyph glyph-name="o.ordn" horiz-adv-x="384" 
d="M233 339q96 0 96 144q0 76 -62 76q-44 0 -71 -35t-27 -110t64 -75zM234 273q-158 0 -158 142q0 94 52 151.5t138 57.5q156 0 157 -141q0 -97 -51.5 -153.5t-137.5 -56.5z" />
    <glyph glyph-name="p.ordn" horiz-adv-x="405" 
d="M270 342q37 0 57 43t20 103t-39 60q-31 0 -94 -53l-18 -121q37 -32 74 -32zM345 624q98 0 98 -124t-50.5 -175t-104.5 -51t-102 34l-16 -101q-1 -10 9 -11l67 -7l-7 -46h-169l-2 3l20 109l43 293q2 12 -7 13l-34 11l7 46h127l-8 -54q72 60 129 60z" />
    <glyph glyph-name="q.ordn" horiz-adv-x="395" 
d="M257 556q-42 0 -64 -48t-22 -104q1 -56 37 -56t101 60l19 121q-29 27 -71 27zM175 274q-98 0 -98 127q0 74 38.5 148t125.5 74q60 0 100 -36l12 31h81q-15 -58 -19 -87l-46 -325q-2 -10 9 -12l32 -4l-7 -47h-192l6 47l58 5q12 1 13 13l19 127l-2 1q-71 -62 -130 -62z" />
    <glyph glyph-name="r.ordn" horiz-adv-x="312" 
d="M328 624q32 0 49 -6l-15 -115l-72 4l-1 36q0 8 -12 8t-58 -44l-23 -163q-3 -11 9 -13l64 -6l-7 -44h-207l7 45l31 4q11 1 12 13l29 205q1 11 -6 13l-34 11l6 46h126l-9 -61q52 67 111 67z" />
    <glyph glyph-name="s.ordn" horiz-adv-x="318" 
d="M234 566q-52 0 -53 -34q0 -17 15.5 -26.5t55.5 -20.5q94 -25 93 -95q0 -59 -46.5 -88t-122.5 -29t-113 23l13 90l63 -4l1 -36q0 -18 60 -18t60 42q0 24 -20 31.5t-44 15.5q-45 15 -72 32.5t-27 67.5t44.5 78.5t114.5 28.5t108 -19l-13 -95l-64 6l-1 32q0 18 -52 18z" />
    <glyph glyph-name="t.ordn" horiz-adv-x="283" 
d="M198 273q-93 0 -93 74q0 13 3 33l25 171q1 6 -5 6h-46l8 55q41 6 64 28t36 69h57l-13 -85q0 -6 4 -6h95l-8 -61h-100l-24 -162q-2 -18 -2 -22q0 -33 39 -33q20 0 57 11l12 -54q-54 -24 -109 -24z" />
    <glyph glyph-name="u.ordn" horiz-adv-x="417" 
d="M180 274q-75 0 -75 80q0 15 3 36l24 165q1 8 0 10t-9 3l-33 5l7 45h131l3 -4l-31 -210q-2 -18 -2 -24q0 -28 30 -28t91 54l22 149q1 12 -9 13l-35 5l6 45h134l4 -4l-41 -271q-2 -11 7 -12l35 -6l-6 -44h-128l9 55l-2 1q-80 -63 -135 -63z" />
    <glyph glyph-name="v.ordn" horiz-adv-x="395" 
d="M285 281h-106l-54 275q-2 8 -12 11l-27 6l6 45h119l6 -6l33 -253h2l107 209l-44 5l6 45h128l7 -18z" />
    <glyph glyph-name="w.ordn" horiz-adv-x="571" 
d="M489 281h-103l-28 231h-2l-88 -231h-110l-43 275q-2 9 -12 12l-28 6l8 44h116l5 -6l27 -247h2l92 248h100l34 -249h2l88 205l-38 5l7 44h109l7 -17z" />
    <glyph glyph-name="x.ordn" horiz-adv-x="393" 
d="M416 281h-109l-6 4l-63 114l-64 -68l42 -6l-6 -44h-165l5 43l31 6q10 1 18 11l104 108l-61 107q-7 10 -14 11l-26 6l6 45h101l6 -5l55 -105l60 61l-35 5l7 44h156l-7 -44l-28 -7q-11 -2 -20 -13l-99 -97l67 -114q5 -11 16 -12l37 -6z" />
    <glyph glyph-name="y.ordn" horiz-adv-x="384" 
d="M102 136q-55 0 -93 32l33 51q32 -19 64 -19t64 49l20 36l-70 271q-2 10 -11 11l-28 7l7 44h112l5 -7l47 -228h2l97 185l-41 6l6 44h122l8 -18l-202 -371q-27 -49 -57 -71t-85 -22z" />
    <glyph glyph-name="z.ordn" horiz-adv-x="344" 
d="M178 560q-7 0 -10 -7l-14 -38l-61 -3l14 106h287l-7 -52l-209 -228h107q7 0 10 8l15 45l63 3l-16 -113h-297l7 50l212 229h-101z" />
    <glyph glyph-name="zero.denom" horiz-adv-x="424" 
d="M201 68q35 0 55 35t30 102t9.5 103t-12 52.5t-45.5 16.5t-55 -34.5t-31 -100.5t-9 -102q0 -36 11.5 -54t46.5 -18zM183 -8q-148 0 -148 155q0 306 222 306q146 0 146 -154q0 -29 -7 -76q-16 -118 -65 -174.5t-148 -56.5z" />
    <glyph glyph-name="one.denom" horiz-adv-x="278" 
d="M234 0h-237l7 53l56 5q11 1 13 13l43 294q3 11 -7 13l-57 12l9 53h171l-55 -372q-3 -11 9 -13l55 -5z" />
    <glyph glyph-name="two.denom" horiz-adv-x="363" 
d="M246 343q0 39 -41 39t-57 -13t-22 -47l-92 9q12 72 58.5 97t119.5 25q138 0 138 -101q0 -51 -31 -86t-63 -67l-133 -134h110q10 0 12 8l16 48h72l-18 -121h-324l9 61l149 149q65 66 81 90.5t16 42.5z" />
    <glyph glyph-name="three.denom" horiz-adv-x="371" 
d="M331 145q0 -72 -50.5 -112.5t-144.5 -40.5t-148 62l60 59q41 -45 88 -45q92 0 92 72q0 56 -62 56q-21 0 -49 -4l10 67l35 4q87 9 87 77q0 41 -46 41q-29 0 -44 -12.5t-20 -46.5l-95 9q15 122 161 122t146 -99q0 -46 -26.5 -76t-64.5 -42v-2q71 -17 71 -89z" />
    <glyph glyph-name="four.denom" horiz-adv-x="409" 
d="M219 160l25 183l-134 -183h109zM292 0h-96l11 81h-198l11 71l212 289h122l-39 -281h55l-12 -79h-55z" />
    <glyph glyph-name="five.denom" horiz-adv-x="370" 
d="M232 280q47 0 77 -30t30 -95t-50.5 -114t-148.5 -49t-153 60l60 59q41 -43 89 -43q98 0 99 85q0 55 -53 55q-35 0 -68 -31l-66 29l49 236h255l-13 -83h-176l-25 -104q47 25 94 25z" />
    <glyph glyph-name="six.denom" horiz-adv-x="406" 
d="M271 155q0 50 -47 50q-34 0 -71 -23q-3 -27 -3 -34q0 -84 54 -84q31 0 49 25.5t18 65.5zM272 378q-44 0 -74.5 -37t-39.5 -92q56 27 104 27t79 -29t31 -98t-50 -113t-128 -44q-146 0 -145 166q0 100 54.5 197t182.5 97q68 0 116 -47l-51 -56q-35 29 -79 29z" />
    <glyph glyph-name="seven.denom" horiz-adv-x="378" 
d="M133 359q-7 0 -10 -7l-15 -51l-69 -5l22 146h331l-11 -74q-69 -61 -126 -165t-74 -203h-110q27 119 85.5 215t112.5 144h-136z" />
    <glyph glyph-name="eight.denom" horiz-adv-x="376" 
d="M277 347q0 41 -51 41q-30 0 -47 -16t-17 -44t58 -62q57 50 57 81zM105 106q0 -49 60 -49q37 0 57 18.5t20 42.5t-17.5 38.5t-57.5 35.5q-62 -47 -62 -86zM226 453q134 -1 134 -105q0 -54 -79 -116q65 -38 65 -102t-54.5 -101t-128.5 -37q-146 0 -146 102q0 44 25.5 74.5
t68.5 60.5q-48 35 -48 93t48.5 94.5t114.5 36.5z" />
    <glyph glyph-name="nine.denom" horiz-adv-x="414" 
d="M277 304q0 77 -53 77q-32 0 -49 -27.5t-17 -66.5q0 -61 50 -61q32 0 64 23q5 25 5 55zM162 65q44 0 68.5 27.5t35.5 88.5q-46 -26 -98 -26t-84 31.5t-32 101.5t51.5 117.5t131.5 47.5q146 0 146 -174q0 -97 -46 -192t-171 -95q-90 0 -138 50l51 58q41 -35 85 -35z" />
    <glyph glyph-name="onefifth" horiz-adv-x="905" 
d="M752 280q47 0 77 -30t30 -95t-50.5 -114t-148.5 -49t-153 60l60 59q41 -43 89 -43q98 0 99 85q0 55 -53 55q-35 0 -68 -31l-66 29l49 236h255l-13 -83h-176l-25 -104q47 25 94 25zM284 -17h-107l462 741h106zM304 281h-237l7 53l56 5q11 1 13 13l43 294q3 11 -7 13
l-57 12l9 53h171l-55 -372q-3 -11 9 -13l55 -5z" />
    <glyph glyph-name="twofifths" horiz-adv-x="905" 
d="M772 280q47 0 77 -30t30 -95t-50.5 -114t-148.5 -49t-153 60l60 59q41 -43 89 -43q98 0 99 85q0 55 -53 55q-35 0 -68 -31l-66 29l49 236h255l-13 -83h-176l-25 -104q47 25 94 25zM320 -17h-107l462 741h106zM299 624q0 39 -41 39t-57 -13t-22 -47l-92 9q12 72 58.5 97
t119.5 25q138 0 138 -101q0 -51 -31 -86t-63 -67l-133 -134h110q10 0 12 8l16 48h72l-18 -121h-324l9 61l149 149q66 66 81.5 90.5t15.5 42.5z" />
    <glyph glyph-name="threefifths" horiz-adv-x="905" 
d="M765 280q47 0 77 -30t30 -95t-51 -114t-149 -49t-152 60l60 59q42 -43 90 -43q98 0 98 85q0 55 -53 55q-35 0 -68 -31l-66 29l49 236h255l-13 -83h-176l-25 -104q47 25 94 25zM303 -17h-107l462 741h106zM395 426q0 -72 -50.5 -112.5t-144.5 -40.5t-148 62l60 59
q41 -45 88 -45q92 0 92 72q0 56 -62 56q-21 0 -49 -4l10 67l35 4q87 9 87 77q0 41 -46 41q-29 0 -44 -12.5t-20 -46.5l-95 9q15 122 161 122t146 -99q0 -46 -26.5 -76t-64.5 -42v-2q71 -17 71 -89z" />
    <glyph glyph-name="fourfifths" horiz-adv-x="905" 
d="M771 280q47 0 77 -30t30 -95t-51 -114t-149 -49t-152 60l60 59q42 -43 90 -43q98 0 98 85q0 55 -53 55q-35 0 -68 -31l-66 29l49 236h255l-13 -83h-176l-25 -104q47 25 94 25zM317 -17h-107l462 741h106zM269 441l25 183l-134 -183h109zM342 281h-96l11 81h-198l11 71
l212 289h122l-39 -281h55l-12 -79h-55z" />
    <glyph glyph-name="onesixth" horiz-adv-x="905" 
d="M766 155q0 50 -47 50q-34 0 -71 -23q-3 -27 -3 -34q0 -84 54 -84q31 0 49 25.5t18 65.5zM767 378q-44 0 -74.5 -37t-39.5 -92q57 27 105 27t78.5 -29t30.5 -98t-49.5 -113t-127.5 -44q-146 0 -146 166q0 100 54 197t182 97q68 0 117 -47l-51 -56q-35 29 -79 29zM291 -17
h-107l462 741h106zM299 281h-237l7 53l56 5q11 1 13 13l43 294q3 11 -7 13l-57 12l9 53h171l-55 -372q-3 -11 9 -13l55 -5z" />
    <glyph glyph-name="fivesixths" horiz-adv-x="905" 
d="M767 155q0 50 -47 50q-34 0 -71 -23q-3 -27 -3 -34q0 -84 54 -84q31 0 49 25.5t18 65.5zM768 378q-44 0 -74.5 -37t-39.5 -92q56 27 104 27t79 -29t31 -98t-50 -113t-128 -44q-146 0 -145 166q0 100 54.5 197t182.5 97q68 0 116 -47l-51 -56q-35 29 -79 29zM309 -17h-107
l462 741h106zM300 561q47 0 77 -30t30 -95t-50.5 -114t-148.5 -49t-153 60l60 59q41 -43 89 -43q98 0 99 85q0 55 -53 55q-35 0 -68 -31l-66 29l49 236h255l-13 -83h-176l-25 -104q47 25 94 25z" />
    <glyph glyph-name="oneseventh" horiz-adv-x="905" 
d="M655 359q-7 0 -10 -7l-15 -51l-69 -5l22 146h331l-11 -74q-69 -61 -126 -165t-74 -203h-110q27 119 85.5 215t112.5 144h-136zM263 -17h-107l462 741h106zM303 281h-237l7 53l56 5q11 1 13 13l43 294q3 11 -7 13l-57 12l9 53h171l-55 -372q-3 -11 9 -13l55 -5z" />
    <glyph glyph-name="twosevenths" horiz-adv-x="905" 
d="M682 359q-7 0 -10 -7l-15 -51l-69 -5l22 146h331l-11 -74q-69 -61 -126 -165t-74 -203h-110q27 119 85.5 215t112.5 144h-136zM303 -17h-107l462 741h106zM285 624q0 39 -41 39t-57 -13t-22 -47l-92 9q12 72 58.5 97t119.5 25q138 0 138 -101q0 -51 -31 -86t-63 -67
l-133 -134h110q10 0 12 8l16 48h72l-18 -121h-324l9 61l149 149q66 66 81.5 90.5t15.5 42.5z" />
    <glyph glyph-name="threesevenths" horiz-adv-x="905" 
d="M679 359q-7 0 -10 -7l-15 -51l-69 -5l22 146h331l-11 -74q-69 -61 -126 -165t-74 -203h-110q27 119 85.5 215t112.5 144h-136zM295 -17h-107l462 741h106zM393 426q0 -72 -50.5 -112.5t-144.5 -40.5t-148 62l60 59q41 -45 88 -45q92 0 92 72q0 56 -62 56q-21 0 -49 -4
l10 67l35 4q87 9 87 77q0 41 -46 41q-29 0 -44 -12.5t-20 -46.5l-95 9q15 122 161 122t146 -99q0 -46 -26.5 -76t-64.5 -42v-2q71 -17 71 -89z" />
    <glyph glyph-name="foursevenths" horiz-adv-x="905" 
d="M678 359q-7 0 -10 -7l-15 -51l-69 -5l22 146h331l-11 -74q-69 -61 -126 -165t-74 -203h-110q27 119 85.5 215t112.5 144h-136zM295 -17h-107l462 741h106zM262 441l25 183l-134 -183h109zM335 281h-96l11 81h-198l11 71l212 289h122l-39 -281h55l-12 -79h-55z" />
    <glyph glyph-name="fivesevenths" horiz-adv-x="905" 
d="M672 359q-7 0 -10 -7l-15 -51l-69 -5l22 146h331l-11 -74q-69 -61 -126 -165t-74 -203h-110q27 119 85.5 215t112.5 144h-136zM290 -17h-107l462 741h106zM287 561q47 0 77 -30t30 -95t-51 -114t-149 -49t-152 60l60 59q42 -43 90 -43q98 0 98 85q0 55 -53 55
q-35 0 -68 -31l-66 29l49 236h255l-13 -83h-176l-25 -104q47 25 94 25z" />
    <glyph glyph-name="sixsevenths" horiz-adv-x="905" 
d="M677 359q-7 0 -10 -7l-15 -51l-69 -5l22 146h331l-11 -74q-69 -61 -126 -165t-74 -203h-110q27 119 85.5 215t112.5 144h-136zM296 -17h-107l462 741h106zM296 436q0 50 -47 50q-34 0 -71 -23q-3 -27 -3 -34q0 -84 54 -84q31 0 49 25.5t18 65.5zM297 659q-44 0 -74.5 -37
t-39.5 -92q57 27 105 27t78.5 -29t30.5 -98t-49.5 -113t-127.5 -44q-146 0 -146 166q0 100 54 197t182 97q68 0 117 -47l-51 -56q-35 29 -79 29z" />
    <glyph glyph-name="oneninth" horiz-adv-x="905" 
d="M765 304q0 77 -53 77q-32 0 -49 -27.5t-17 -66.5q0 -61 50 -61q32 0 64 23q5 25 5 55zM650 65q44 0 68.5 27.5t35.5 88.5q-46 -26 -98 -26t-84 31.5t-32 101.5t51.5 117.5t131.5 47.5q146 0 146 -174q0 -97 -46 -192t-171 -95q-90 0 -138 50l51 58q41 -35 85 -35z
M265 -17h-107l462 741h106zM292 281h-237l7 53l56 5q11 1 13 13l43 294q3 11 -7 13l-57 12l9 53h171l-55 -372q-3 -11 9 -13l55 -5z" />
    <glyph glyph-name="twoninths" horiz-adv-x="905" 
d="M791 304q0 77 -53 77q-32 0 -49 -27.5t-17 -66.5q0 -61 50 -61q32 0 64 23q5 25 5 55zM676 65q44 0 68.5 27.5t35.5 88.5q-46 -26 -98 -26t-84 31.5t-32 101.5t51.5 117.5t131.5 47.5q146 0 146 -174q0 -97 -46 -192t-171 -95q-90 0 -138 50l51 58q41 -35 85 -35z
M313 -17h-107l462 741h106zM296 624q0 39 -41 39t-57 -13t-22 -47l-92 9q12 72 58.5 97t119.5 25q138 0 138 -101q0 -51 -31 -86t-63 -67l-133 -134h110q10 0 12 8l16 48h72l-18 -121h-324l9 61l149 149q65 66 81 90.5t16 42.5z" />
    <glyph glyph-name="fourninths" horiz-adv-x="905" 
d="M792 304q0 77 -53 77q-32 0 -49 -27.5t-17 -66.5q0 -61 50 -61q32 0 64 23q5 25 5 55zM677 65q44 0 68.5 27.5t35.5 88.5q-46 -26 -98 -26t-84 31.5t-32 101.5t51.5 117.5t131.5 47.5q146 0 146 -174q0 -97 -46 -192t-171 -95q-90 0 -138 50l51 58q41 -35 85 -35z
M305 -17h-107l462 741h106zM263 441l25 183l-134 -183h109zM336 281h-96l11 81h-198l11 71l212 289h122l-39 -281h55l-12 -79h-55z" />
    <glyph glyph-name="fiveninths" horiz-adv-x="905" 
d="M792 304q0 77 -53 77q-32 0 -49 -27.5t-17 -66.5q0 -61 50 -61q32 0 64 23q5 25 5 55zM677 65q44 0 68.5 27.5t35.5 88.5q-46 -26 -98 -26t-84 31.5t-32 101.5t51.5 117.5t131.5 47.5q146 0 146 -174q0 -97 -46 -192t-171 -95q-90 0 -138 50l51 58q41 -35 85 -35z
M299 -17h-107l462 741h106zM288 561q47 0 77 -30t30 -95t-50.5 -114t-148.5 -49t-153 60l60 59q41 -43 89 -43q98 0 99 85q0 55 -53 55q-35 0 -68 -31l-66 29l49 236h255l-13 -83h-176l-25 -104q47 25 94 25z" />
    <glyph glyph-name="sevenninths" horiz-adv-x="905" 
d="M750 304q0 77 -53 77q-32 0 -49 -27.5t-17 -66.5q0 -61 50 -61q32 0 64 23q5 25 5 55zM635 65q44 0 68.5 27.5t35.5 88.5q-46 -26 -98 -26t-84 31.5t-32 101.5t51.5 117.5t131.5 47.5q146 0 146 -174q0 -97 -46 -192t-171 -95q-90 0 -138 50l51 58q41 -35 85 -35z
M229 -17h-107l462 741h106zM173 640q-7 0 -10 -7l-15 -51l-69 -5l22 146h331l-11 -74q-69 -61 -126 -165t-74 -203h-110q27 119 85.5 215t112.5 144h-136z" />
    <glyph glyph-name="eightninths" horiz-adv-x="905" 
d="M793 304q0 77 -53 77q-32 0 -49 -27.5t-17 -66.5q0 -61 50 -61q32 0 64 23q5 25 5 55zM678 65q44 0 68.5 27.5t35.5 88.5q-46 -26 -98 -26t-84 31.5t-32 101.5t51.5 117.5t131.5 47.5q146 0 146 -174q0 -97 -46 -192t-171 -95q-90 0 -138 50l51 58q41 -35 85 -35z
M308 -17h-107l462 741h106zM330 628q0 41 -51 41q-30 0 -47 -16t-17 -44t58 -62q57 50 57 81zM158 387q0 -49 60 -49q37 0 57 18t20 42t-17.5 39t-57.5 36q-62 -47 -62 -86zM278 734q134 0 135 -104q0 -54 -79 -117q65 -39 65 -103t-54.5 -100.5t-128.5 -36.5
q-146 0 -146 102q0 44 25.5 74.5t68.5 60.5q-48 35 -48 93t48 94.5t114 36.5z" />
    <glyph glyph-name="commaaccent" 
d="M302 -112q0 -30 -27 -73l-61 -93l-50 17l34 91q3 8 -3 11l-34 14l33 87q54 -2 81 -13t27 -41z" />
    <glyph glyph-name="revcommaaccent" 
d="M270 619q0 31 27 72l60 93l51 -17l-34 -91q-4 -8 3 -11l34 -14l-33 -87q-54 2 -81 13t-27 42z" />
    <glyph glyph-name="tilde.cap" 
d="M282 903q30 0 93 -17t75 -17t15 4l34 34l50 -34l-29 -38q-41 -54 -66 -54q-26 0 -66 10l-99 27q-11 3 -17 -3l-41 -36l-46 33l35 48q32 43 62 43z" />
    <glyph glyph-name="ring.cap" 
d="M357 787q19 0 30 13.5t11 34.5q0 29 -31 29q-42 0 -42 -44q0 -33 32 -33zM354 737q-84 -1 -84 81q0 40 30 68.5t69 28.5q84 1 84 -79q0 -40 -29.5 -69.5t-69.5 -29.5z" />
    <glyph glyph-name="circumflex.cap" 
d="M528 813l-52 -47l-107 83l-130 -83l-41 47l133 106h92z" />
    <glyph glyph-name="acute.cap" 
d="M489 861l-219 -95l-28 58l207 123z" />
    <glyph glyph-name="grave.cap" 
d="M444 766l-198 96l58 84l178 -126z" />
    <glyph glyph-name="dieresis.cap" 
d="M262 781q-53 0 -53 52q0 32 19 51.5t52 19.5q54 0 54 -51q0 -32 -19.5 -52t-52.5 -20zM466 781q-53 0 -53 52q0 32 19 51.5t52 19.5q54 0 54 -51q0 -32 -19.5 -52t-52.5 -20z" />
    <glyph glyph-name="caron.cap" 
d="M538 884l-133 -106h-92l-105 106l52 47l107 -83l130 83z" />
    <glyph glyph-name="macron.cap" 
d="M516 790h-311l11 82h311z" />
    <glyph glyph-name="dotaccent.cap" 
d="M381 929q65 0 65 -61q0 -39 -23 -63t-59 -24q-70 0 -70 62q0 39 23.5 62.5t63.5 23.5z" />
    <glyph glyph-name="cedilla.cap" 
d="M167 -181q71 0 71 51q0 40 -63 42l33 118l62 -8l-19 -67q67 -19 67 -78t-41.5 -90t-88.5 -31t-71 8l14 59q14 -4 36 -4z" />
    <glyph glyph-name="hungarumlaut.cap" 
d="M607 905l-187 -143l-40 43l167 166zM428 913l-181 -151l-44 43l161 173z" />
    <glyph glyph-name="commaaccent.cap" 
d="M302 -112q0 -30 -27 -73l-61 -93l-50 17l34 91q3 8 -3 11l-34 14l33 87q54 -2 81 -13t27 -41z" />
    <glyph glyph-name="breve.cap" 
d="M362 782q-128 0 -145 123l66 22q15 -70 86 -70t106 71l63 -23q-48 -123 -176 -123z" />
    <glyph glyph-name="caron.alt" 
d="M300 678q0 40 -9 60l91 31q24 -27 24 -53q0 -52 -76 -174l-63 23q33 73 33 113z" />
    <glyph glyph-name="ogonek.cap" 
d="M226 -224q-86 0 -86 67q0 52 38.5 93.5t103.5 84.5l61 -17q-102 -78 -102 -127q0 -25 24 -25t54 11l14 -63q-54 -24 -107 -24z" />
    <glyph glyph-name="square" horiz-adv-x="610" 
d="M494 151h-349v349h349v-349z" />
    <glyph glyph-name="square.open" horiz-adv-x="610" 
d="M494 151h-349v349h349v-349zM449 196v259h-259v-259h259z" />
    <glyph glyph-name="circle.open" horiz-adv-x="610" 
d="M328 167q64 0 108 47.5t44 111.5t-43.5 109t-107.5 45t-107 -45.5t-43 -110.5t42.5 -111t106.5 -46zM329 119q-85 0 -145 60t-60 145t60 145t145 60t145 -60t60 -145t-60 -145t-145 -60z" />
    <glyph glyph-name="triangle.left" horiz-adv-x="425" 
d="M308 203l-185 117l185 114v-231z" />
    <glyph glyph-name="raute" horiz-adv-x="610" 
d="M543 325l-210 -209l-209 210l210 209z" />
    <glyph glyph-name="arrow.right" horiz-adv-x="570" 
d="M56 228l13 94h349l-44 121h99l71 -169l-119 -169h-106l80 123h-343z" />
    <glyph glyph-name="arrow.left" horiz-adv-x="570" 
d="M551 322l-13 -94h-350l44 -123h-99l-71 169l119 169h100l-78 -121h348z" />
    <glyph glyph-name="arrow.up" horiz-adv-x="570" 
d="M318 33h-97l50 352l-131 -62l14 97l183 94l156 -94l-14 -99l-112 61z" />
    <glyph glyph-name="arrow.down" horiz-adv-x="570" 
d="M297 517h97l-49 -349l131 61l-14 -99l-182 -94l-157 94l13 98l111 -62z" />
    <glyph glyph-name="arrow.leftup" horiz-adv-x="570" 
d="M71 257l54 188l185 52l70 -70l-128 -41l248 -248l-69 -66l-246 246l-44 -130z" />
    <glyph glyph-name="arrow.rightup" horiz-adv-x="570" 
d="M507 445l27 -188l-79 -69l-27 130l-280 -246l-60 66l281 247l-122 41l81 71z" />
    <glyph glyph-name="zero.lf" horiz-adv-x="571" 
d="M282 74q65 0 99 64.5t50 179.5t16 170q0 121 -94 121q-77 0 -114 -64t-51 -178t-15 -168q0 -54 22 -89.5t87 -35.5zM274 -12q-126 0 -173.5 60t-47.5 171q0 53 10 130q45 349 287 349q124 0 170 -59t46 -167q0 -53 -10 -126q-24 -180 -90 -269t-192 -89z" />
    <glyph glyph-name="one.lf" horiz-adv-x="383" 
d="M334 0h-324l8 63l90 6q16 2 19 20l69 490q2 17 -11 21l-89 18l12 64h217l-83 -593q-2 -12 0 -15.5t13 -4.5l88 -7z" />
    <glyph glyph-name="two.lf" horiz-adv-x="510" 
d="M387 539q0 73 -87 73q-53 0 -78 -20.5t-34 -78.5l-106 11q14 107 78.5 140.5t157.5 33.5t140 -39.5t47 -98.5t-26 -110t-51.5 -80.5t-76.5 -82.5l-196 -208h203q12 0 16 12l26 82h82l-24 -173h-453l10 72l220 235q92 100 122 142t30 90z" />
    <glyph glyph-name="three.lf" horiz-adv-x="525" 
d="M480 226q0 -110 -69.5 -174t-200.5 -64t-208 92l73 70q60 -70 153 -70q57 0 96 34t39 102q0 100 -108 100q-28 0 -73 -6l12 85l58 6q143 13 143 133q0 78 -85 78q-52 0 -77 -20.5t-33 -78.5l-110 11q14 107 80 140.5t152 33.5q188 0 188 -150q0 -67 -37.5 -113t-97.5 -68
l-1 -4q106 -27 106 -137z" />
    <glyph glyph-name="four.lf" horiz-adv-x="559" 
d="M348 261l41 299h-4l-223 -299h186zM505 0h-312l9 63l102 6q10 1 13 4.5t5 15.5l13 87h-295l9 71l327 435h138l-58 -421h85l-12 -88h-86l-13 -86q-2 -11 1 -14t13 -4l69 -7z" />
    <glyph glyph-name="five.lf" horiz-adv-x="529" 
d="M328 428q78 0 121.5 -46.5t43.5 -146.5t-70.5 -173.5t-208.5 -73.5t-214 89l74 71q59 -68 155 -68q59 0 102.5 39.5t43.5 105.5q0 113 -94 113q-63 0 -119 -51l-75 36l72 359h360l-13 -99h-270l-44 -197q58 42 136 42z" />
    <glyph glyph-name="six.lf" horiz-adv-x="549" 
d="M182 231q0 -156 98 -156q60 0 90.5 46t30.5 115q0 103 -82 103q-60 0 -135 -50q-2 -34 -2 -58zM352 425q166 0 166 -195q0 -101 -69 -171.5t-182 -70.5q-200 0 -200 260q0 115 34 203t69.5 136t91.5 79.5t125 31.5q108 0 175 -67l-62 -68q-50 45 -109 45t-119 -54
t-81 -179q81 50 161 50z" />
    <glyph glyph-name="seven.lf" horiz-adv-x="501" 
d="M194 583q-12 0 -15 -12l-28 -83l-81 -6l29 200h465l-12 -88q-100 -90 -193 -266t-119 -328h-123q39 185 128 343t171 240h-222z" />
    <glyph glyph-name="eight.lf" horiz-adv-x="514" 
d="M411 542q0 75 -84 75q-46 0 -76.5 -28t-30.5 -68t24.5 -66t71.5 -54q95 80 95 141zM142 160q0 -90 105 -90q53 0 89 34.5t36 68.5q0 58 -37 88t-88 56q-105 -81 -105 -157zM490 198q0 -94 -74 -152t-176 -58t-153.5 41t-51.5 115q0 119 140 220q-69 54 -69 140t67 140
t159 54t137.5 -40.5t45.5 -103.5q0 -98 -121 -200q96 -62 96 -156z" />
    <glyph glyph-name="nine.lf" horiz-adv-x="553" 
d="M322 611q-58 0 -91 -45.5t-33 -122.5q0 -113 78 -113q67 0 134 53q4 36 4 87q-2 141 -92 141zM246 240q-167 0 -167 206q0 104 68.5 178t180.5 74t157.5 -70.5t45.5 -198.5q0 -198 -58 -286.5t-114 -121.5t-119 -33q-138 0 -203 71l62 73q59 -55 128 -55q137 0 175 216
q-76 -53 -156 -53z" />
    <glyph glyph-name="dollar.lf" horiz-adv-x="520" 
d="M364 184q0 45 -49 79l-25 -182q74 24 74 103zM196 499q0 -42 55 -79l23 176q-78 -13 -78 -97zM472 197q0 -75 -50.5 -128.5t-142.5 -68.5l-11 -80h-86l11 80q-115 7 -176 38l21 148h81l7 -76q1 -19 23 -25t54 -9l31 224q-99 58 -123 94.5t-24 86.5q0 88 54 137.5
t145 62.5l10 72h87l-10 -73q78 -4 148 -30l-21 -161l-81 9l-3 75q0 15 -17 20t-38 8l-29 -218q73 -45 94 -65q46 -46 46 -121z" />
    <glyph glyph-name="Euro.lf" horiz-adv-x="566" 
d="M428 611q-133 0 -180 -168h189l-22 -74h-181q-5 -42 -6 -61h174l-22 -74h-151q11 -159 125 -159q66 0 72 21l26 81l80 5l-22 -160q-71 -34 -176 -34q-106 0 -162 66t-64 180h-83l21 74h61l7 61h-54l21 74h48q28 112 106.5 183.5t186.5 71.5t174 -38l-22 -155l-78 5l-3 79
q0 22 -65 22z" />
    <glyph glyph-name="cent.lf" horiz-adv-x="543" 
d="M209 312q0 -90 52 -119l44 320q-96 -44 -96 -201zM88 306q0 115 61 196t168 98l14 102h82l-15 -102q74 -5 135 -34l-20 -138l-77 4l-2 65q0 13 -47 20l-47 -334q48 2 54 21l21 65l79 4l-20 -138q-56 -32 -145 -36l-14 -99h-81l14 104q-160 29 -160 202z" />
    <glyph glyph-name="sterling.lf" horiz-adv-x="555" 
d="M400 698q115 0 175 -58l-56 -70q-49 41 -112 41t-91.5 -29.5t-36.5 -90.5l-13 -92h170l-12 -87h-168l-6 -46q-16 -122 -91 -187h239q14 0 18 12l26 82h82l-24 -173h-462l-5 72q54 35 75 76.5t31 124.5l4 39h-77l11 87h76l11 77q16 109 68.5 165.5t167.5 56.5z" />
    <glyph glyph-name="yen.lf" horiz-adv-x="608" 
d="M497 289h-125l-8 -54h126l-10 -69h-125l-11 -76q-2 -12 0 -15t13 -4l99 -8l-8 -63h-341l8 63l96 9q10 1 13.5 4.5t4.5 16.5l10 73h-128l10 69h128l7 54h-128l11 69h92l-95 237q-6 12 -22 17l-41 11l9 59h249l-8 -59l-73 -9l85 -222h5l141 222l-57 9l8 59h216l-9 -60
l-42 -9q-15 -3 -29 -24l-152 -231h92z" />
    <glyph glyph-name="florin.lf" horiz-adv-x="564" 
d="M48 -98q-111 0 -165 43l43 73q48 -33 92 -33t66 18.5t37 66.5l82 257q2 10 -7 10h-90l23 78h102l35 115q28 92 74.5 130t131.5 38t147 -37l-42 -135l-72 6l8 66q2 19 -42 19t-64.5 -22.5t-35.5 -69.5l-32 -100q-3 -10 6 -10h134l-23 -78h-144l-82 -263q-30 -98 -75 -135
t-107 -37z" />
    <glyph glyph-name="zero.slash" horiz-adv-x="570" 
d="M168 212q0 -54 10 -80l186 476q-6 1 -18 1q-76 0 -113 -63.5t-51 -171.5t-14 -162zM265 77q74 0 107.5 62.5t49.5 174.5t15 162q0 51 -10 80l-185 -477q14 -2 23 -2zM48 194q0 86 10 162q21 156 89 249t212 93q108 0 153 -59t45 -186t-30.5 -223.5t-80.5 -169t-194 -72.5
q-111 0 -157.5 60t-46.5 146z" />
    <glyph glyph-name="zero.tf" horiz-adv-x="570" 
d="M274 77q64 0 98 62.5t50 174.5t15 170q0 60 -19.5 92.5t-83.5 32.5t-101 -63.5t-51 -171.5t-14 -168t21 -94.5t85 -34.5zM48 194q0 86 10 162q21 156 89 249t212 93q108 0 153 -59t45 -186t-30.5 -223.5t-80.5 -169t-194 -72.5q-111 0 -157.5 60t-46.5 146z" />
    <glyph glyph-name="one.tf" horiz-adv-x="570" 
d="M436 0h-359l9 63l112 6q10 1 13 5t5 15l70 490q1 17 -12 21l-89 18l13 64h217l-84 -593q-2 -12 0.5 -15.5t13.5 -4.5l99 -7z" />
    <glyph glyph-name="two.tf" horiz-adv-x="570" 
d="M405 539q0 73 -87 73q-53 0 -78 -20.5t-34 -78.5l-106 11q14 107 78.5 140.5t157.5 33.5t140 -39.5t47 -98.5t-26 -110t-51.5 -80.5t-76.5 -82.5l-196 -208h203q12 0 16 12l26 82h82l-24 -173h-453l10 72l220 235q92 100 122 142t30 90z" />
    <glyph glyph-name="three.tf" horiz-adv-x="570" 
d="M490 226q0 -110 -69.5 -174t-200.5 -64t-208 92l73 70q60 -70 153 -70q57 0 96 34t39 102q0 100 -108 100q-28 0 -73 -6l12 85l58 6q143 13 143 133q0 78 -85 78q-52 0 -77 -20.5t-33 -78.5l-110 11q14 107 80 140.5t152 33.5q188 0 188 -150q0 -67 -37.5 -113t-97.5 -68
l-1 -4q106 -27 106 -137z" />
    <glyph glyph-name="four.tf" horiz-adv-x="570" 
d="M346 261l41 299h-4l-223 -299h186zM503 0h-312l9 63l102 6q10 1 13 4.5t5 15.5l13 87h-295l9 71l327 435h138l-58 -421h85l-12 -88h-86l-13 -86q-2 -11 1 -14t13 -4l69 -7z" />
    <glyph glyph-name="five.tf" horiz-adv-x="570" 
d="M338 428q78 0 121.5 -46.5t43.5 -146.5t-70.5 -173.5t-208.5 -73.5t-214 89l74 71q59 -68 155 -68q59 0 102.5 39.5t43.5 105.5q0 113 -94 113q-63 0 -119 -51l-75 36l72 359h360l-13 -99h-270l-44 -197q58 42 136 42z" />
    <glyph glyph-name="six.tf" horiz-adv-x="570" 
d="M185 231q0 -156 98 -156q60 0 90.5 46t30.5 115q0 103 -82 103q-60 0 -135 -50q-2 -34 -2 -58zM354 425q166 0 167 -195q0 -101 -69 -171.5t-182 -70.5q-200 0 -200 260q0 115 34 203t69.5 136t91.5 79.5t125 31.5q108 0 175 -67l-62 -68q-50 45 -109 45t-119 -54
t-81 -179q80 50 160 50z" />
    <glyph glyph-name="seven.tf" horiz-adv-x="570" 
d="M218 583q-12 0 -15 -12l-28 -83l-81 -6l29 200h472l-12 -88q-100 -90 -193.5 -266.5t-118.5 -327.5h-122q40 185 129 343t172 240h-232z" />
    <glyph glyph-name="eight.tf" horiz-adv-x="570" 
d="M435 542q0 75 -84 75q-46 0 -76.5 -28t-30.5 -68t24.5 -66t71.5 -54q95 80 95 141zM166 160q0 -90 105 -90q53 0 89 34.5t36 68.5q0 58 -37 88t-88 56q-105 -81 -105 -157zM514 198q0 -94 -74 -152t-176 -58t-153.5 41t-51.5 115q0 119 140 220q-69 54 -69 140t67 140
t159 54t137.5 -40.5t45.5 -103.5q0 -98 -121 -200q96 -62 96 -156z" />
    <glyph glyph-name="nine.tf" horiz-adv-x="570" 
d="M322 611q-58 0 -91 -45.5t-33 -122.5q0 -113 78 -113q67 0 134 53q4 36 4 87q-2 141 -92 141zM246 240q-167 0 -167 206q0 104 68.5 178t180.5 74t157.5 -70.5t45.5 -198.5q0 -198 -58 -286.5t-114 -121.5t-119 -33q-138 0 -203 71l62 73q59 -55 128 -55q137 0 175 216
q-76 -53 -156 -53z" />
    <glyph glyph-name="dollar.tf" horiz-adv-x="570" 
d="M378 184q0 45 -49 79l-25 -182q74 24 74 103zM210 499q0 -42 55 -79l23 176q-78 -13 -78 -97zM486 197q0 -75 -50.5 -128.5t-142.5 -68.5l-11 -80h-86l11 80q-115 7 -176 38l21 148h81l7 -76q1 -19 23 -25t54 -9l31 224q-99 58 -123 94t-24 87q0 88 54 137.5t145 62.5
l10 72h87l-10 -73q78 -4 148 -30l-21 -161l-81 9l-3 75q0 15 -17 20t-38 8l-29 -218q73 -45 94 -65q46 -46 46 -121z" />
    <glyph glyph-name="Euro.tf" horiz-adv-x="570" 
d="M418 611q-133 0 -180 -168h189l-22 -74h-181q-5 -42 -6 -61h174l-22 -74h-151q11 -159 125 -159q66 0 72 21l26 81l80 5l-22 -160q-71 -34 -176 -34q-106 0 -162 66t-64 180h-83l21 74h61l7 61h-54l21 74h48q28 112 106.5 183.5t186.5 71.5t174 -38l-22 -155l-78 5l-3 79
q0 22 -65 22z" />
    <glyph glyph-name="cent.tf" horiz-adv-x="570" 
d="M215 312q0 -90 52 -119l44 320q-96 -44 -96 -201zM94 306q0 115 61 196t168 98l14 102h82l-15 -102q74 -5 135 -34l-20 -138l-77 4l-2 65q0 13 -47 20l-47 -334q48 2 54 21l21 65l79 4l-20 -138q-56 -32 -145 -36l-14 -99h-81l14 104q-160 29 -160 202z" />
    <glyph glyph-name="sterling.tf" horiz-adv-x="570" 
d="M398 698q115 0 175 -58l-56 -70q-49 41 -112 41t-91.5 -29.5t-36.5 -90.5l-13 -92h170l-12 -87h-168l-6 -46q-16 -122 -91 -187h239q14 0 18 12l26 82h82l-24 -173h-462l-5 72q54 35 75 76.5t31 124.5l4 39h-77l11 87h76l11 77q16 109 68.5 165.5t167.5 56.5z" />
    <glyph glyph-name="yen.tf" horiz-adv-x="570" 
d="M476 289h-125l-8 -54h126l-10 -69h-125l-11 -76q-2 -12 0 -15t13 -4l99 -8l-8 -63h-341l8 63l96 9q10 1 13.5 4.5t4.5 16.5l10 73h-128l10 69h128l7 54h-128l11 69h92l-95 237q-6 12 -22 17l-41 11l9 59h249l-8 -59l-73 -9l85 -222h5l141 222l-57 9l8 59h216l-9 -60
l-42 -9q-15 -3 -29 -24l-152 -231h92z" />
    <glyph glyph-name="florin.tf" horiz-adv-x="570" 
d="M44 -98q-111 0 -164 43l43 73q47 -33 91 -33t66.5 18.5t37.5 66.5l82 257q2 10 -7 10h-90l23 78h102l35 115q28 92 74.5 130t131.5 38t147 -37l-42 -135l-72 6l8 66q2 19 -42 19t-64.5 -22.5t-35.5 -69.5l-32 -100q-3 -10 6 -10h134l-23 -78h-144l-82 -263
q-30 -98 -75.5 -135t-107.5 -37z" />
    <glyph glyph-name="zeroslash.tosf" horiz-adv-x="570" 
d="M332 499q-164 0 -164 -297q0 -46 11 -75l172 371q-6 1 -19 1zM268 73q128 -1 152 181q10 78 10 120t-12 73l-174 -372q7 -2 24 -2zM258 -12q-208 0 -208 217q0 50 5 86q42 296 289 296q204 0 204 -217q0 -40 -6 -83q-19 -144 -84 -221.5t-200 -77.5z" />
    <glyph glyph-name="one.tosf" horiz-adv-x="570" 
d="M449 0h-370l9 63l124 6q9 1 12 4.5t5 15.5l54 382q2 17 -12 21l-86 18l9 62h215l-67 -483q-2 -12 0.5 -15.5t12.5 -4.5l103 -7z" />
    <glyph glyph-name="two.tosf" horiz-adv-x="570" 
d="M391 434q0 67 -84 67q-54 0 -77.5 -20t-30.5 -79l-104 11q14 110 77.5 142t153.5 32t133.5 -38.5t43.5 -103.5t-24 -98t-31.5 -43.5t-29.5 -30.5t-29.5 -27t-34.5 -30t-34 -29l-125 -108h181q12 0 16 11l26 83h80l-24 -173h-428l10 75l163 144q11 10 63 55t80.5 80
t28.5 80z" />
    <glyph glyph-name="three.tosf" horiz-adv-x="570" 
d="M233 8q130 0 130 117q0 93 -109 93q-27 0 -69 -6l10 81l54 6q67 7 104 41t37 88q0 73 -82 73q-54 0 -78 -20.5t-31 -78.5l-106 11q18 174 227 174q183 0 183 -148q0 -63 -35.5 -107.5t-96.5 -64.5v-4q46 -12 75.5 -46t29.5 -91q0 -98 -66 -153.5t-158 -55.5
q-171 0 -236 91l71 68q58 -68 146 -68z" />
    <glyph glyph-name="four.tosf" horiz-adv-x="570" 
d="M406 -67h-106l19 141h-285l12 79l274 431l88 -49l-245 -372h169l25 183l109 15l-28 -198h85l-12 -89h-87z" />
    <glyph glyph-name="five.tosf" horiz-adv-x="570" 
d="M387 143q-1 110 -103 110q-48 0 -105 -45l-76 34l67 330h353l-13 -96h-265l-41 -175l1 -1q61 41 135 41t118 -46.5t44 -142.5t-69 -165.5t-201 -69.5t-211 90l71 69q61 -68 135 -68t117 36.5t43 98.5z" />
    <glyph glyph-name="six.tosf" horiz-adv-x="570" 
d="M196 219q0 -144 94 -144q60 0 90 44.5t30 100.5t-19 76t-73 20t-120 -51q-2 -34 -2 -46zM390 562q-58 0 -113.5 -47t-71.5 -165q79 54 158 54t121 -42.5t42 -121.5q0 -118 -67 -185t-179 -67q-200 0 -200 247q0 111 31.5 191t86.5 152.5t175 72.5q119 0 185 -66l-61 -69
q-49 46 -107 46z" />
    <glyph glyph-name="seven.tosf" horiz-adv-x="570" 
d="M207 476q-12 0 -15 -11l-28 -88l-79 -6l27 201h455l-12 -84q-99 -94 -184.5 -251t-110.5 -304h-120q37 183 117.5 318t169.5 225h-220z" />
    <glyph glyph-name="nine.tosf" horiz-adv-x="570" 
d="M311 501q-56 0 -87.5 -44t-31.5 -103t17 -82t71 -23t124 54q1 15 1 46q4 152 -94 152zM224 7q139 0 173 211q-77 -54 -157 -54t-122.5 43.5t-42.5 121.5q0 118 66 188t181 70q199 0 199 -248q0 -298 -113 -360t-175 -62q-130 0 -194 73l59 71q59 -54 126 -54z" />
    <glyph glyph-name="dollar.tosf" horiz-adv-x="570" 
d="M383 171q0 47 -50 76l-22 -165q72 21 72 89zM215 468q0 -32 13.5 -48t44.5 -32l22 163q-34 -7 -57 -29t-23 -54zM489 191q0 -76 -51 -125.5t-138 -61.5l-11 -84h-80l11 80q-122 7 -182 38l21 148h81l8 -74q1 -19 21 -24q22 -7 62 -10l27 197q-118 53 -135 93.5t-17 77.5
q0 79 55 125.5t144 59.5l11 72h81l-10 -73q78 -4 148 -30l-21 -161l-81 9l-3 75q0 22 -54 28l-27 -192q109 -56 124.5 -94.5t15.5 -73.5z" />
    <glyph glyph-name="Euro.tosf" horiz-adv-x="570" 
d="M415 564q-126 0 -170 -145h184l-22 -74h-178q-4 -36 -5 -61h172l-22 -74h-148q14 -135 113 -135q71 0 77 24l24 78l78 5l-21 -157q-74 -37 -176 -37q-199 0 -215 222h-83l22 74h61q2 41 5 61h-55l22 74h48q34 116 112.5 174t181.5 58t159 -38l-22 -155l-76 5l-4 78
q0 23 -62 23z" />
    <glyph glyph-name="cent.tosf" horiz-adv-x="570" 
d="M214 245q0 -90 52 -119l44 320q-96 -44 -96 -201zM93 239q0 115 61 196t168 98l14 102h82l-15 -102q74 -5 135 -34l-20 -138l-77 4l-2 65q0 13 -47 20l-47 -334q48 2 54 21l21 65l79 4l-20 -138q-56 -32 -145 -36l-14 -99h-81l14 104q-160 29 -160 202z" />
    <glyph glyph-name="sterling.tosf" horiz-adv-x="570" 
d="M393 651q112 0 172 -58l-55 -69q-48 40 -109 40t-88.5 -30t-35.5 -90l-9 -67h163l-12 -87h-161l-5 -38q-15 -108 -87 -173h233q11 0 16 12l25 82h81l-23 -173h-453l-5 72q53 35 71.5 72t30.5 121l3 25h-76l12 87h74l8 58q14 104 66 160t164 56z" />
    <glyph glyph-name="yen.tosf" horiz-adv-x="570" 
d="M484 289h-125l-7 -54h126l-10 -69h-125l-11 -76q-2 -12 0 -15t13 -4l99 -8l-8 -63h-341l8 63l96 9q10 1 13.5 4.5t4.5 16.5l10 73h-128l10 69h128l6 54h-128l11 69h92l-101 187q-7 12 -22 17l-41 11l9 59h249l-8 -59l-73 -9l91 -176h4l136 176l-57 9l8 59h216l-9 -60
l-42 -9q-12 -2 -18.5 -10.5t-13 -17.5t-8.5 -11l-135 -166h92z" />
    <glyph glyph-name="florin.tosf" horiz-adv-x="570" 
d="M52 -98q-110 0 -160 43l42 73q47 -33 91 -33t65 18t36 67l69 222q2 10 -6 10h-89l23 78h100l33 105q28 91 73 128.5t128 37.5t143 -37l-40 -135l-71 6l8 66q-1 19 -43 19t-62 -22.5t-35 -69.5l-28 -88q-3 -10 6 -10h132l-24 -78h-141l-68 -224q-31 -100 -76.5 -138
t-105.5 -38z" />
    <glyph glyph-name="a.smcp" horiz-adv-x="593" 
d="M372 229l-41 229h-3l-108 -229h152zM564 0h-237l8 54l65 7l-17 90h-196l-44 -90l61 -7l-9 -54h-210l7 54l36 8q16 4 22 17l238 477h130l103 -480q1 -9 17 -14l35 -8z" />
    <glyph glyph-name="b.smcp" horiz-adv-x="527" 
d="M282 323q118 0 118 95q0 35 -23 47t-69 12h-52l-22 -154h48zM260 79q64 0 98 21.5t34 77.5q0 69 -94 69h-75l-24 -168h61zM267 0h-252l8 54l50 6q13 1 16 15l57 405q3 14 -11 15l-49 5l8 56h260q155 0 155 -119q0 -111 -117 -146v-2q115 -14 115 -115q0 -174 -240 -174z
" />
    <glyph glyph-name="c.smcp" horiz-adv-x="538" 
d="M162 238q0 -164 138 -164q92 0 99 26l23 73h78l-20 -140q-74 -42 -197 -42t-181.5 63.5t-58.5 195.5t86.5 224t245.5 92q112 0 173 -43l-20 -148l-80 6l-2 72q0 28 -86 28t-142 -63.5t-56 -179.5z" />
    <glyph glyph-name="d.smcp" horiz-adv-x="598" 
d="M472 327q0 150 -157 150h-61l-57 -398h61q106 0 160 67.5t54 180.5zM249 0h-235l9 56l49 5q13 1 14 15l57 404q3 15 -10 16l-49 5l8 55h246q125 0 187 -59.5t62 -166.5q0 -148 -85.5 -239t-252.5 -91z" />
    <glyph glyph-name="e.smcp" 
d="M391 478h-136l-23 -159h189l-11 -80h-190l-22 -162h152q11 0 14 8l21 66h79l-21 -151h-429l6 54l51 6q12 2 15 15l57 405q3 14 -10 15l-48 6l7 55h413l-21 -148l-78 3l-4 57q0 10 -11 10z" />
    <glyph glyph-name="f.smcp" horiz-adv-x="475" 
d="M386 478h-131l-22 -160h185l-12 -80h-185l-23 -161q-3 -13 10 -15l114 -7l-8 -55h-301l8 54l50 6q12 2 15 15l57 405q1 13 -10 15l-49 6l8 55h410l-22 -148l-78 3l-4 57q0 10 -12 10z" />
    <glyph glyph-name="g.smcp" horiz-adv-x="584" 
d="M164 238q0 -162 147 -162q86 0 88 21l16 103h-91l20 68h236l-9 -60l-32 -3q-14 -1 -15 -11l-23 -167q-80 -36 -208 -36t-188 65.5t-60 174.5q0 149 86.5 242t246.5 93q113 0 173 -44l-19 -143l-81 6l-2 68q-1 27 -89 27t-142 -65.5t-54 -176.5z" />
    <glyph glyph-name="h.smcp" horiz-adv-x="643" 
d="M589 0h-238l8 54l50 6q8 1 10 3.5t4 11.5l24 164h-226l-23 -163q-3 -14 9 -15l53 -7l-9 -54h-237l7 54l50 6q9 1 11 3.5t4 11.5l58 405q2 9 0 11.5t-11 3.5l-48 5l8 56h239l-8 -56l-53 -6q-9 -1 -11 -3t-4 -11l-23 -158h225l23 158q3 14 -10 15l-49 5l7 56h240l-9 -56
l-52 -6q-9 -1 -10.5 -3t-3.5 -11l-57 -404q-3 -13 10 -15l49 -7z" />
    <glyph glyph-name="i.smcp" horiz-adv-x="305" 
d="M262 0h-254l6 54l58 6q12 2 15 15l57 405q2 9 0 11.5t-11 3.5l-56 5l8 56h254l-7 -56l-61 -6q-9 -1 -11 -3t-4 -11l-57 -404q-2 -9 -0.5 -11.5t10.5 -3.5l60 -7z" />
    <glyph glyph-name="j.smcp" horiz-adv-x="405" 
d="M149 77q36 0 47 11t15 37l50 355q1 14 -11 15l-69 5l7 56h260l-8 -56l-53 -6q-8 -1 -10 -3t-4 -11l-51 -356q-20 -133 -142 -133q-123 0 -165 31l19 133l78 -6l1 -53q0 -19 36 -19z" />
    <glyph glyph-name="k.smcp" horiz-adv-x="595" 
d="M560 0h-152l-4 4l-40 83l-82 149l-71 -71l-12 -89q-3 -13 10 -15l53 -6l-8 -55h-239l8 55l49 5q13 2 15 16l57 404q3 15 -11 16l-48 5l7 55h239l-7 -55l-54 -6q-8 -1 -10 -3.5t-4 -11.5l-29 -198l219 212l-46 6l8 56h199l-7 -56l-35 -5q-17 -4 -26 -13l-171 -166
l129 -238q6 -11 21 -14l49 -9z" />
    <glyph glyph-name="l.smcp" horiz-adv-x="487" 
d="M348 80q11 0 14 8l23 76h79l-23 -164h-427l8 55l50 5q13 2 15 16l57 404q1 13 -11 15l-48 6l7 55h251l-7 -55l-66 -7q-12 -2 -14 -14l-57 -400h149z" />
    <glyph glyph-name="m.smcp" horiz-adv-x="761" 
d="M707 0h-252l7 54l67 6q12 2 15 15l44 312h-3l-164 -270h-105l-89 274h-3l-44 -315q-3 -15 10 -15l68 -7l-8 -54h-234l7 54l51 6q12 2 15 15l57 405q2 14 -10 15l-49 6l7 55h192l105 -333h4l198 333h195l-7 -55l-53 -6q-10 -1 -12 -3t-4 -12l-57 -405q0 -4 -1 -9t12 -5
l49 -7z" />
    <glyph glyph-name="n.smcp" horiz-adv-x="648" 
d="M536 0h-121l-196 410l-47 -334q-3 -13 10 -15l52 -7l-7 -54h-213l7 54l51 6q12 1 15 15l57 406q1 9 -0.5 11.5t-10.5 3.5l-48 6l7 54h186l194 -410l47 334q3 14 -10 15l-49 5l8 56h211l-7 -56l-54 -6q-11 -1 -13 -14z" />
    <glyph glyph-name="o.smcp" horiz-adv-x="614" 
d="M486 328q0 147 -139 147q-68 0 -127 -59.5t-59 -198.5t135 -139q159 0 186 199q4 24 4 51zM290 -12q-130 0 -189 61t-59 166q0 171 93 261t221 90t188 -63t60 -164q0 -177 -92 -264t-222 -87z" />
    <glyph glyph-name="p.smcp" horiz-adv-x="521" 
d="M279 286q60 0 95 23.5t35 91.5q0 74 -93 74h-60l-28 -189h51zM353 556q174 0 174 -149q0 -100 -65 -150.5t-182 -50.5h-63l-17 -130q-1 -9 0.5 -11.5t9.5 -3.5l111 -6l-8 -55h-298l8 55l51 5q14 1 15 16l57 404q3 14 -11 15l-49 5l8 56h259z" />
    <glyph glyph-name="q.smcp" horiz-adv-x="609" 
d="M486 328q0 147 -139 147q-68 0 -127 -59.5t-59 -198.5t135 -139q159 0 186 199q4 24 4 51zM356 566q128 0 188 -63t60 -164q0 -167 -82.5 -250t-208.5 -87v-2q97 -46 167 -46q23 0 60 5l-4 -82q-40 -5 -82 -5t-88.5 16.5t-81 33t-68.5 16.5t-79 -28l-36 68q30 21 74 31v2
q-133 41 -133 208t93 257t221 90z" />
    <glyph glyph-name="r.smcp" horiz-adv-x="552" 
d="M282 306q122 0 122 100q0 39 -24 55t-78 16h-46l-24 -171h50zM279 228h-58l-21 -151q-3 -13 10 -15l46 -7l-7 -55h-233l7 55l51 6q14 2 15 15l58 404q3 14 -11 15l-48 6l6 55h259q88 0 128.5 -38t40.5 -98q0 -123 -130 -165q29 -12 45 -73l25 -101q4 -18 21 -20l48 -6
l-7 -55h-154l-5 4l-47 190q-8 34 -39 34z" />
    <glyph glyph-name="s.smcp" horiz-adv-x="480" 
d="M319 482q-121 0 -121 -71q0 -41 34 -55.5t52 -20.5l36 -12q43 -15 83.5 -45t40.5 -113t-67.5 -130t-176.5 -47q-52 0 -104 10t-74 21l21 144h82l5 -65q3 -25 81 -25q118 0 118 84q0 30 -22.5 45.5t-58.5 27.5t-42.5 13.5t-28.5 10.5t-44 24t-35.5 41t-13.5 65
q0 89 66 135.5t162 46.5t164 -32l-21 -144l-80 7l-3 64q0 21 -53 21z" />
    <glyph glyph-name="t.smcp" horiz-adv-x="542" 
d="M174 477q-10 0 -13 -9l-22 -68h-79l22 156h498l-21 -156h-79l-3 68q0 9 -11 9h-89l-58 -399q-3 -14 10 -15l85 -7l-7 -56h-303l8 56l80 7q11 0 14 15l58 399h-90z" />
    <glyph glyph-name="u.smcp" horiz-adv-x="622" 
d="M299 -9q-104 0 -152.5 39.5t-48.5 122.5q0 23 3 47l38 280q3 14 -9 16l-49 5l7 55h240l-8 -55l-54 -6q-9 -1 -10.5 -3t-3.5 -12l-36 -259q-6 -41 -6 -71q0 -70 98 -70q62 0 93.5 30.5t41.5 102.5l36 267q3 14 -10 16l-48 5l8 55h224l-8 -55l-53 -6q-9 -1 -11 -3.5
t-4 -11.5l-39 -282q-29 -207 -239 -207z" />
    <glyph glyph-name="v.smcp" horiz-adv-x="577" 
d="M350 0h-148l-91 480q-2 10 -18 13l-33 8l8 55h235l-8 -55l-65 -7l69 -405h3l173 405l-61 7l8 55h205l-8 -55l-34 -8q-17 -3 -24 -19z" />
    <glyph glyph-name="w.smcp" horiz-adv-x="811" 
d="M616 0h-148l-31 306h-3l-126 -306h-143l-51 474q-2 17 -17 20l-39 7l9 55h232l-8 -55l-67 -6l37 -395h4l140 352h115l40 -360h4l140 403l-64 6l9 55h214l-8 -55l-39 -8q-16 -2 -22 -19z" />
    <glyph glyph-name="x.smcp" horiz-adv-x="596" 
d="M559 0h-244l8 54l62 7l-89 146l-126 -146l59 -7l-8 -54h-221l8 54l46 8q11 2 22 15l175 198l-124 205q-7 11 -17 13l-38 8l9 55h238l-8 -55l-61 -7l83 -142l126 142l-58 7l9 55h210l-8 -55l-39 -8q-11 -2 -22 -15l-173 -193l131 -209q7 -11 20 -14l38 -8z" />
    <glyph glyph-name="y.smcp" horiz-adv-x="535" 
d="M407 0h-298l7 55l79 5q8 1 10 3.5t4 12.5l18 132l-117 272q-5 10 -18 13l-34 8l9 55h226l-8 -55l-58 -7l77 -194h4l126 194l-56 7l8 55h200l-8 -55l-35 -8q-14 -3 -22 -15l-181 -269l-18 -133q-3 -13 11 -15l81 -6z" />
    <glyph glyph-name="z.smcp" horiz-adv-x="526" 
d="M197 478q-12 0 -14 -8l-24 -71l-81 -4l24 161h428l-10 -72l-350 -406h202q13 0 15 8l26 82h78l-23 -168h-449l10 72l353 406h-185z" />
    <glyph glyph-name="thorn.smcp" horiz-adv-x="516" 
d="M261 201q59 0 93.5 22.5t34.5 85.5q0 69 -92 69h-57l-26 -177h47zM506 313q0 -192 -242 -192h-60l-6 -44q-2 -10 0 -12.5t10 -3.5l111 -6l-8 -55h-297l8 55l50 6q14 2 15 15l56 404q3 14 -11 15l-48 5l7 56h241l-7 -56l-59 -5q-11 -1 -12 -12l-4 -27h83q173 0 173 -143z
" />
    <glyph glyph-name="agrave.smcp" horiz-adv-x="593" 
d="M457 642l-53 -43l-156 144l78 67zM372 229l-41 229h-3l-108 -229h152zM564 0h-237l8 54l65 7l-17 90h-196l-44 -90l61 -7l-9 -54h-210l7 54l36 8q16 4 22 17l238 477h130l103 -480q1 -9 17 -14l35 -8z" />
    <glyph glyph-name="aacute.smcp" horiz-adv-x="593" 
d="M484 734l-186 -135l-43 49l165 158zM372 229l-41 229h-3l-108 -229h152zM564 0h-237l8 54l65 7l-17 90h-196l-44 -90l61 -7l-9 -54h-210l7 54l36 8q16 4 22 17l238 477h130l103 -480q1 -9 17 -14l35 -8z" />
    <glyph glyph-name="acircumflex.smcp" horiz-adv-x="593" 
d="M522 650l-55 -44l-107 98l-135 -98l-46 44l143 125h92zM372 229l-41 229h-3l-108 -229h152zM564 0h-237l8 54l65 7l-17 90h-196l-44 -90l61 -7l-9 -54h-210l7 54l36 8q16 4 22 17l238 477h130l103 -480q1 -9 17 -14l35 -8z" />
    <glyph glyph-name="atilde.smcp" horiz-adv-x="593" 
d="M444 615q-23 0 -92 19t-78 21t-16 -5l-41 -36l-44 32l36 47q35 45 61 45t92 -18t73.5 -19.5t15.5 4.5l37 35l48 -33l-28 -38q-41 -54 -64 -54zM372 229l-41 229h-3l-108 -229h152zM564 0h-237l8 54l65 7l-17 90h-196l-44 -90l61 -7l-9 -54h-210l7 54l36 8q16 4 22 17
l238 477h130l103 -480q1 -9 17 -14l35 -8z" />
    </font>
</defs>
</svg>
